<svg version="1.1" xmlns="http://www.w3.org/2000/svg" xmlns:xlink="http://www.w3.org/1999/xlink" width="63.90996" height="67.90245" viewBox="0,0,63.90996,67.90245"><g transform="translate(-290.67712,-150.67711)"><g data-paper-data="{&quot;isPaintingLayer&quot;:true}" fill-rule="nonzero" stroke-linejoin="miter" stroke-miterlimit="10" stroke-dasharray="" stroke-dashoffset="0" style="mix-blend-mode: normal"><path d="M290.67712,180c0,-16.19458 13.12831,-29.32289 29.3229,-29.32289c16.19459,0 29.3229,13.12831 29.3229,29.32289c0,16.19458 -13.12831,29.32289 -29.3229,29.32289c-16.19459,0 -29.3229,-13.12831 -29.3229,-29.32289z" fill="#f7f3ff" stroke="#000000" stroke-width="0" stroke-linecap="butt"/><path d="" fill="#f7f3ff" stroke="none" stroke-width="0" stroke-linecap="butt"/><path d="M291.42044,186.99624c0,-17.44298 14.14034,-31.58332 31.58332,-31.58332c17.44298,0 31.58332,14.14034 31.58332,31.58332c0,17.44298 -14.14034,31.58332 -31.58332,31.58332c-17.44298,0 -31.58332,-14.14034 -31.58332,-31.58332z" fill="none" stroke="#000000" stroke-width="0" stroke-linecap="butt"/><path d="M305.30467,189.45906h7.0943v-19.93159h22.29636" fill="none" stroke="#000000" stroke-width="5" stroke-linecap="round"/><path d="M334.3575,169.86529v20.60724h-6.75647" fill="none" stroke="#000000" stroke-width="5" stroke-linecap="round"/></g></g></svg>