<svg xmlns="http://www.w3.org/2000/svg" xmlns:xlink="http://www.w3.org/1999/xlink" version="1.1" width="11.593997955322266" height="12.093994140625" viewBox="36.51900100708008 823.843994140625 11.593997955322266 12.093994140625">
  <!-- Exported by Scratch - http://scratch.mit.edu/ -->
  <path id="path3309" fill="#ff2a2a" stroke="none" d="M 41.425 824.344 L 41.519 827.063 L 41.644 828.719 L 40.144 827.75 L 37.956 826.313 L 37.019 827.875 L 39.488 829.125 L 40.988 829.844 L 39.55 830.531 L 37.019 831.844 L 37.925 833.438 L 40.238 831.875 L 41.644 830.906 L 41.519 833.031 L 41.425 835.438 L 43.238 835.438 L 43.144 833 L 43.019 830.906 L 44.331 831.844 L 46.706 833.469 L 47.613 831.844 L 45.05 830.531 L 43.644 829.844 L 45.05 829.188 L 47.613 827.875 L 46.706 826.281 L 44.363 827.844 L 43.019 828.719 L 43.113 827.094 L 43.238 824.344 L 41.425 824.344 Z " stroke-width="1"/>
</svg>