<svg xmlns="http://www.w3.org/2000/svg" xmlns:xlink="http://www.w3.org/1999/xlink" version="1.1" width="11.187829971313477" height="12.469062805175781" viewBox="-0.3317625820636749 0.406000018119812 11.187829971313477 12.469062805175781">
  <!-- Exported by Scratch - http://scratch.mit.edu/ -->
  <path id="path5730" fill="#ff2a2a" stroke="none" d="M 5.231 0.906 C 4.616 0.909 4.042 0.943 3.481 1 C 2.77 1.073 2.124 1.251 1.575 1.563 C 1.026 1.874 0.683 2.351 0.513 3 C 0.476 3.154 0.444 3.326 0.419 3.5 C 0.394 3.674 0.366 3.85 0.356 4.031 C 0.355 4.212 0.375 4.386 0.388 4.563 C 0.4 4.739 0.415 4.9 0.45 5.063 C 0.555 5.619 0.798 6.077 1.2 6.406 C 1.602 6.736 2.184 6.947 2.919 7.063 C 3.466 7.142 4.135 7.218 4.919 7.281 C 5.702 7.345 6.402 7.43 7.013 7.5 C 7.279 7.536 7.492 7.584 7.669 7.656 C 7.882 7.746 8.057 7.856 8.169 8 C 8.281 8.144 8.345 8.302 8.388 8.5 C 8.397 8.573 8.412 8.655 8.419 8.75 C 8.426 8.845 8.418 8.954 8.419 9.063 C 8.419 9.181 8.43 9.299 8.419 9.406 C 8.408 9.514 8.383 9.614 8.356 9.688 C 8.272 9.922 8.14 10.099 7.95 10.25 C 7.76 10.401 7.47 10.53 7.106 10.594 C 6.951 10.623 6.692 10.63 6.325 10.656 C 5.958 10.683 5.677 10.717 5.45 10.719 L 5.013 10.719 C 4.813 10.72 4.614 10.695 4.388 10.688 C 4.161 10.68 3.935 10.66 3.7 10.625 C 3.039 10.518 2.603 10.294 2.419 9.938 C 2.234 9.581 2.146 9.137 2.169 8.625 L 0.169 8.625 C 0.153 9.785 0.389 10.668 0.856 11.25 C 1.324 11.832 2.197 12.188 3.45 12.313 C 3.731 12.338 4.033 12.338 4.356 12.344 C 4.68 12.35 5.012 12.376 5.356 12.375 C 5.772 12.376 6.164 12.365 6.544 12.344 C 6.923 12.322 7.281 12.272 7.606 12.219 C 8.325 12.107 8.894 11.897 9.325 11.594 C 9.755 11.29 10.039 10.866 10.2 10.313 C 10.253 10.131 10.303 9.927 10.325 9.719 C 10.347 9.51 10.357 9.311 10.356 9.094 C 10.356 8.895 10.343 8.692 10.325 8.5 C 10.307 8.308 10.267 8.11 10.231 7.938 C 10.066 7.199 9.738 6.709 9.231 6.406 C 8.724 6.104 8.124 5.917 7.419 5.844 C 6.813 5.773 6.128 5.685 5.388 5.625 C 4.647 5.565 4.028 5.499 3.513 5.438 C 3.171 5.394 2.9 5.319 2.7 5.188 C 2.5 5.056 2.356 4.858 2.294 4.625 C 2.276 4.552 2.272 4.493 2.263 4.406 C 2.253 4.32 2.263 4.216 2.263 4.125 C 2.259 3.924 2.274 3.746 2.325 3.563 C 2.407 3.279 2.554 3.077 2.794 2.938 C 3.033 2.798 3.344 2.706 3.731 2.656 C 4.13 2.599 4.639 2.566 5.2 2.563 C 5.497 2.57 5.76 2.579 6.013 2.594 C 6.264 2.608 6.493 2.621 6.7 2.656 C 7.193 2.743 7.542 2.905 7.731 3.156 C 7.921 3.407 8.028 3.763 8.044 4.219 L 8.044 4.344 L 9.95 4.344 C 9.945 3.875 9.933 3.497 9.888 3.188 C 9.842 2.878 9.737 2.588 9.606 2.344 C 9.426 2 9.157 1.727 8.763 1.5 C 8.368 1.274 7.818 1.123 7.106 1.031 C 6.816 0.996 6.515 0.957 6.2 0.938 C 5.885 0.918 5.548 0.915 5.231 0.906 Z " stroke-width="1"/>
</svg>