<svg xmlns="http://www.w3.org/2000/svg" xmlns:xlink="http://www.w3.org/1999/xlink" version="1.1" width="13.690109252929688" height="16.01690673828125" viewBox="36.59088897705078 821.9299926757812 13.690109252929688 16.01690673828125">
  <!-- Exported by Scratch - http://scratch.mit.edu/ -->
  <path id="path3503" fill="#ff2a2a" stroke="none" d="M 42.438 822.438 C 42.048 822.455 41.677 822.495 41.375 822.531 C 39.991 822.697 39.002 823.116 38.406 823.781 C 37.81 824.447 37.441 825.397 37.281 826.625 C 37.21 827.084 37.156 827.601 37.125 828.188 C 37.094 828.774 37.093 829.357 37.094 829.969 C 37.094 830.239 37.087 830.524 37.094 830.781 C 37.101 831.039 37.116 831.265 37.125 831.5 C 37.142 831.989 37.177 832.464 37.219 832.906 C 37.26 833.348 37.326 833.739 37.406 834.094 C 37.625 835.101 38.039 835.865 38.656 836.375 C 39.273 836.885 40.127 837.21 41.219 837.344 C 41.529 837.38 41.866 837.419 42.25 837.438 C 42.634 837.456 43.028 837.438 43.438 837.438 C 43.902 837.438 44.371 837.458 44.813 837.438 C 45.254 837.418 45.644 837.357 46 837.313 C 46.856 837.229 47.621 836.981 48.281 836.563 C 48.942 836.144 49.39 835.47 49.625 834.531 C 49.679 834.274 49.721 833.992 49.75 833.656 C 49.779 833.321 49.773 832.981 49.781 832.625 C 49.78 832.324 49.773 832.004 49.75 831.719 C 49.727 831.433 49.693 831.189 49.656 830.969 C 49.48 829.993 49.124 829.291 48.531 828.844 C 47.938 828.396 47.209 828.116 46.375 828.031 C 46.1 827.995 45.778 827.987 45.406 827.969 C 45.035 827.951 44.66 827.938 44.25 827.938 L 43.844 827.938 C 43.442 827.938 43.079 827.953 42.719 827.969 C 42.358 827.985 42.038 828.004 41.781 828.031 C 41.172 828.097 40.64 828.241 40.188 828.469 C 39.735 828.697 39.353 829.038 39.031 829.5 C 39.033 829.056 39.056 828.606 39.094 828.188 C 39.131 827.769 39.163 827.394 39.219 827.031 C 39.333 826.25 39.611 825.629 40 825.188 C 40.389 824.746 40.983 824.468 41.781 824.344 C 42.014 824.309 42.307 824.294 42.656 824.281 C 43.006 824.269 43.342 824.249 43.719 824.25 C 43.998 824.249 44.329 824.256 44.688 824.281 C 45.046 824.307 45.394 824.367 45.719 824.438 C 46.305 824.561 46.696 824.779 46.906 825.063 C 47.117 825.346 47.244 825.713 47.281 826.188 C 47.282 826.225 47.276 826.255 47.281 826.313 C 47.286 826.37 47.28 826.436 47.281 826.5 L 49.563 826.5 C 49.566 826.248 49.546 826.055 49.531 825.875 C 49.414 824.786 49.057 823.995 48.438 823.5 C 47.818 823.005 47.008 822.68 46 822.563 C 45.619 822.509 45.213 822.491 44.813 822.469 C 44.412 822.447 44.015 822.437 43.625 822.438 C 43.206 822.438 42.827 822.42 42.438 822.438 Z M 43.656 829.719 C 44.051 829.719 44.423 829.734 44.781 829.75 C 45.14 829.766 45.455 829.785 45.688 829.813 C 46.299 829.889 46.752 830.083 47.094 830.375 C 47.436 830.668 47.647 831.094 47.719 831.656 C 47.737 831.777 47.772 831.931 47.781 832.094 C 47.79 832.257 47.781 832.397 47.781 832.563 C 47.781 832.764 47.79 832.99 47.781 833.188 C 47.772 833.385 47.737 833.54 47.719 833.688 C 47.626 834.248 47.383 834.685 47 834.969 C 46.617 835.253 46.11 835.416 45.469 835.5 C 45.229 835.535 44.935 835.581 44.594 835.594 C 44.253 835.607 43.906 835.595 43.531 835.594 C 43.164 835.594 42.809 835.605 42.469 835.594 C 42.128 835.583 41.848 835.558 41.625 835.531 C 40.959 835.445 40.427 835.256 40.031 834.969 C 39.635 834.682 39.376 834.278 39.25 833.75 C 39.196 833.531 39.143 833.273 39.125 833 C 39.124 832.937 39.13 832.884 39.125 832.813 C 39.12 832.741 39.126 832.644 39.125 832.563 C 39.125 832.435 39.116 832.317 39.125 832.188 C 39.134 832.058 39.17 831.931 39.188 831.813 C 39.269 831.308 39.481 830.865 39.875 830.5 C 40.269 830.135 40.877 829.921 41.688 829.813 C 41.92 829.786 42.213 829.761 42.563 829.75 C 42.912 829.739 43.28 829.718 43.656 829.719 Z " stroke-width="1"/>
</svg>