<svg version="1.1" xmlns="http://www.w3.org/2000/svg" xmlns:xlink="http://www.w3.org/1999/xlink" width="63.90996" height="81.45155" viewBox="0,0,63.90996,81.45155"><g transform="translate(-290.67712,-140.07023)"><g data-paper-data="{&quot;isPaintingLayer&quot;:true}" fill-rule="nonzero" stroke-linecap="butt" stroke-linejoin="miter" stroke-miterlimit="10" stroke-dasharray="" stroke-dashoffset="0" style="mix-blend-mode: normal"><path d="M290.67712,180c0,-16.19458 13.12831,-29.32289 29.3229,-29.32289c16.19459,0 29.3229,13.12831 29.3229,29.32289c0,16.19458 -13.12831,29.32289 -29.3229,29.32289c-16.19459,0 -29.3229,-13.12831 -29.3229,-29.32289z" fill="#f7f3ff" stroke="#000000" stroke-width="0"/><path d="" fill="#f7f3ff" stroke="none" stroke-width="0"/><path d="M291.42044,186.99624c0,-17.44298 14.14034,-31.58332 31.58332,-31.58332c17.44298,0 31.58332,14.14034 31.58332,31.58332c0,17.44298 -14.14034,31.58332 -31.58332,31.58332c-17.44298,0 -31.58332,-14.14034 -31.58332,-31.58332z" fill="none" stroke="#000000" stroke-width="0"/><text transform="translate(305.66453,197.08631) scale(1.48094,1.48094)" font-size="40" xml:space="preserve" fill="#3b3b3b" fill-rule="nonzero" stroke="none" stroke-width="1" stroke-linecap="butt" stroke-linejoin="miter" stroke-miterlimit="10" stroke-dasharray="" stroke-dashoffset="0" font-family="Curly" font-weight="normal" text-anchor="start" style="mix-blend-mode: normal"><tspan x="0" dy="0">s</tspan></text></g></g></svg>