<svg xmlns="http://www.w3.org/2000/svg" xmlns:xlink="http://www.w3.org/1999/xlink" version="1.1" width="13.375957489013672" height="15.56298828125" viewBox="36.53010940551758 822.25 13.375957489013672 15.56298828125">
  <!-- Exported by Scratch - http://scratch.mit.edu/ -->
  <path id="path3477" fill="#ff2a2a" stroke="none" d="M 37.594 822.75 L 37.188 831.094 L 39.188 831.094 C 39.306 830.673 39.555 830.314 39.969 830.031 C 40.382 829.748 40.939 829.569 41.625 829.5 C 41.836 829.481 42.105 829.483 42.406 829.469 C 42.708 829.455 43.006 829.438 43.344 829.438 C 43.694 829.445 44.053 829.454 44.406 829.469 C 44.759 829.483 45.061 829.528 45.313 829.563 C 45.926 829.635 46.38 829.779 46.688 830 C 46.995 830.221 47.19 830.611 47.281 831.188 C 47.316 831.403 47.362 831.63 47.375 831.875 C 47.388 832.12 47.376 832.329 47.375 832.5 L 47.375 832.75 C 47.375 832.962 47.393 833.165 47.375 833.375 C 47.357 833.585 47.317 833.757 47.281 833.906 C 47.165 834.343 46.932 834.672 46.594 834.906 C 46.255 835.141 45.842 835.298 45.375 835.375 C 45.031 835.427 44.701 835.484 44.344 835.5 C 43.986 835.517 43.625 835.502 43.281 835.5 C 42.968 835.502 42.619 835.512 42.25 835.5 C 41.881 835.489 41.479 835.458 41.031 835.406 C 40.514 835.351 40.083 835.191 39.719 834.906 C 39.354 834.622 39.143 834.144 39.094 833.531 L 39.094 833.344 L 39.094 832.938 L 37.031 832.969 C 37.031 833.084 37.029 833.189 37.031 833.281 C 37.033 833.374 37.054 833.466 37.063 833.563 C 37.132 834.828 37.513 835.735 38.219 836.281 C 38.925 836.827 39.842 837.141 41 837.219 C 41.367 837.254 41.735 837.269 42.094 837.281 C 42.452 837.294 42.82 837.313 43.188 837.313 L 43.594 837.313 C 43.944 837.313 44.31 837.301 44.656 837.281 C 45.002 837.261 45.337 837.232 45.688 837.188 C 46.624 837.075 47.405 836.789 48.031 836.344 C 48.657 835.898 49.082 835.222 49.281 834.281 C 49.334 834.016 49.353 833.696 49.375 833.375 C 49.397 833.054 49.407 832.734 49.406 832.406 C 49.406 832.061 49.409 831.725 49.375 831.375 C 49.341 831.025 49.282 830.685 49.219 830.375 C 49.007 829.475 48.619 828.823 48.031 828.438 C 47.444 828.052 46.734 827.831 45.938 827.75 C 45.649 827.715 45.32 827.702 44.906 827.688 C 44.492 827.673 44.057 827.664 43.625 827.656 C 43.251 827.656 42.905 827.645 42.563 827.656 C 42.22 827.667 41.904 827.692 41.656 827.719 C 41.032 827.793 40.524 827.925 40.125 828.094 C 39.726 828.263 39.402 828.451 39.156 828.688 L 39.406 824.688 L 48.688 824.688 L 48.688 822.75 L 37.594 822.75 Z " stroke-width="1"/>
</svg>