<svg xmlns="http://www.w3.org/2000/svg" xmlns:xlink="http://www.w3.org/1999/xlink" version="1.1" width="11.06340217590332" height="12.063434600830078" viewBox="-0.375 -0.5004353023541626 11.06340217590332 12.063434600830078">
  <!-- Exported by Scratch - http://scratch.mit.edu/ -->
  <path id="path5585" fill="#ff2a2a" stroke="none" d="M 5.563 0 C 5.209 -0.002 4.826 0.002 4.469 0.031 C 4.111 0.061 3.773 0.131 3.438 0.219 C 3.137 0.298 2.86 0.421 2.625 0.594 C 2.39 0.767 2.223 1.018 2.094 1.313 L 2.094 0.156 L 0.125 0.156 L 0.125 11.063 L 2.125 11.063 L 2.125 4.313 C 2.117 3.734 2.24 3.243 2.469 2.844 C 2.697 2.445 3.066 2.152 3.625 1.969 C 3.889 1.889 4.185 1.845 4.469 1.813 C 4.753 1.78 5.009 1.749 5.281 1.75 C 5.61 1.749 5.956 1.769 6.281 1.813 C 6.606 1.856 6.899 1.925 7.156 2.031 C 7.616 2.25 7.885 2.577 8 2.969 C 8.115 3.361 8.174 3.714 8.156 4.031 L 8.156 11.063 L 10.188 11.063 L 10.188 3.656 C 10.197 2.895 10.055 2.244 9.781 1.688 C 9.507 1.131 9.018 0.691 8.344 0.406 C 7.993 0.271 7.588 0.195 7.125 0.125 C 6.662 0.055 6.195 0 5.719 0 L 5.563 0 Z " stroke-width="1"/>
</svg>