<svg xmlns="http://www.w3.org/2000/svg" xmlns:xlink="http://www.w3.org/1999/xlink" version="1.1" width="16.21953773498535" height="12.125" viewBox="-0.375 0.4380000829696655 16.21953773498535 12.125">
  <!-- Exported by Scratch - http://scratch.mit.edu/ -->
  <path id="path5559" fill="#ff2a2a" stroke="none" d="M 5.281 0.938 C 5.082 0.938 4.913 0.954 4.719 0.969 C 4.524 0.983 4.337 0.981 4.156 1 C 3.568 1.075 3.099 1.241 2.781 1.469 C 2.463 1.697 2.245 1.919 2.125 2.156 L 2.156 1.156 L 0.125 1.156 L 0.125 12.063 L 2.156 12.063 L 2.156 4.719 C 2.15 4.214 2.27 3.764 2.5 3.406 C 2.73 3.048 3.114 2.818 3.656 2.719 C 3.792 2.7 3.944 2.702 4.094 2.688 C 4.243 2.673 4.377 2.657 4.531 2.656 C 4.722 2.656 4.914 2.669 5.094 2.688 C 5.273 2.706 5.448 2.745 5.594 2.781 C 6.091 2.915 6.388 3.155 6.531 3.531 C 6.675 3.908 6.766 4.297 6.75 4.719 L 6.75 12.063 L 8.75 12.063 L 8.75 4.719 C 8.747 4.449 8.784 4.209 8.844 4 C 8.904 3.791 8.997 3.59 9.156 3.438 C 9.321 3.24 9.542 3.108 9.781 3 C 10.02 2.892 10.281 2.831 10.563 2.813 C 10.662 2.803 10.762 2.788 10.875 2.781 C 10.988 2.774 11.101 2.782 11.219 2.781 C 11.456 2.781 11.682 2.784 11.906 2.813 C 12.13 2.841 12.334 2.875 12.5 2.938 C 12.881 3.097 13.126 3.339 13.219 3.656 C 13.312 3.974 13.327 4.277 13.313 4.563 L 13.313 12.063 L 15.344 12.063 L 15.344 4.188 C 15.353 3.5 15.249 2.916 15.031 2.438 C 14.813 1.959 14.433 1.603 13.875 1.375 C 13.505 1.227 13.102 1.136 12.719 1.094 C 12.335 1.051 11.95 1.026 11.563 1.031 C 11.243 1.031 10.969 1.063 10.688 1.094 C 10.406 1.125 10.105 1.179 9.813 1.25 C 9.468 1.345 9.15 1.493 8.875 1.719 C 8.6 1.944 8.441 2.159 8.375 2.344 C 8.297 2.097 8.131 1.847 7.875 1.594 C 7.619 1.341 7.198 1.143 6.625 1.031 C 6.425 0.995 6.226 0.987 6 0.969 C 5.773 0.951 5.517 0.938 5.281 0.938 Z " stroke-width="1"/>
</svg>