<svg xmlns="http://www.w3.org/2000/svg" xmlns:xlink="http://www.w3.org/1999/xlink" version="1.1" width="14.062999725341797" height="15.315478324890137" viewBox="-0.5 0.2475212812423706 14.062999725341797 15.315478324890137">
  <!-- Exported by Scratch - http://scratch.mit.edu/ -->
  <path id="path6399" fill="#ff2a2a" stroke="none" d="M 0 0.75 L 0 15.063 L 2.094 15.063 L 2.094 9.125 L 7.438 9.125 C 7.893 9.117 8.271 9.172 8.594 9.313 C 8.917 9.453 9.207 9.706 9.438 10.094 C 9.814 10.766 10.107 11.576 10.313 12.5 C 10.518 13.424 10.683 14.283 10.844 15.063 L 13.063 15.063 C 12.949 14.539 12.804 13.921 12.625 13.156 C 12.446 12.392 12.27 11.659 12.094 11 C 11.976 10.536 11.841 10.108 11.656 9.719 C 11.471 9.329 11.195 9.007 10.844 8.75 C 10.745 8.679 10.63 8.611 10.531 8.563 C 10.432 8.514 10.349 8.473 10.25 8.438 C 10.787 8.292 11.221 8.055 11.531 7.719 C 11.841 7.382 12.042 7.031 12.156 6.625 C 12.235 6.345 12.29 6.039 12.313 5.719 C 12.335 5.399 12.346 5.07 12.344 4.719 C 12.347 4.614 12.328 4.493 12.313 4.406 C 12.295 4.064 12.258 3.779 12.219 3.5 C 12.179 3.221 12.134 2.966 12.063 2.75 C 11.742 1.927 11.192 1.385 10.438 1.125 C 9.683 0.865 8.923 0.727 8.125 0.75 L 0 0.75 Z M 2.094 2.656 L 7.75 2.656 C 8.349 2.642 8.866 2.708 9.281 2.844 C 9.696 2.98 9.989 3.288 10.156 3.75 C 10.2 3.88 10.235 4.008 10.25 4.188 C 10.265 4.367 10.251 4.566 10.25 4.75 C 10.252 4.941 10.261 5.113 10.25 5.313 C 10.239 5.512 10.208 5.716 10.156 5.906 C 9.97 6.512 9.652 6.884 9.188 7.031 C 8.722 7.178 8.189 7.243 7.625 7.219 L 2.094 7.219 L 2.094 2.656 Z " stroke-width="1"/>
</svg>