<svg xmlns="http://www.w3.org/2000/svg" xmlns:xlink="http://www.w3.org/1999/xlink" version="1.1" width="12.656309127807617" height="15.594039916992188" viewBox="-0.4309999942779541 0.25 12.656309127807617 15.594039916992188">
  <!-- Exported by Scratch - http://scratch.mit.edu/ -->
  <path id="path6209" fill="#ff2a2a" stroke="none" d="M 9.631 0.75 L 9.631 10.844 C 9.638 11.589 9.493 12.17 9.225 12.594 C 8.957 13.017 8.504 13.282 7.881 13.406 C 7.672 13.451 7.42 13.48 7.1 13.5 C 6.78 13.52 6.484 13.532 6.194 13.531 L 5.819 13.531 C 5.51 13.532 5.207 13.52 4.913 13.5 C 4.618 13.48 4.354 13.451 4.1 13.406 C 3.338 13.249 2.834 12.981 2.569 12.563 C 2.304 12.144 2.147 11.625 2.131 11 L 2.131 9.531 L 0.069 9.5 L 0.069 10.563 L 0.069 11 C 0.122 12.279 0.418 13.257 0.944 13.938 C 1.469 14.618 2.394 15.069 3.725 15.25 C 4.063 15.294 4.394 15.298 4.756 15.313 C 5.119 15.327 5.49 15.345 5.819 15.344 L 6.319 15.344 C 6.717 15.342 7.132 15.326 7.6 15.281 C 8.068 15.237 8.457 15.19 8.756 15.125 C 9.817 14.885 10.573 14.395 11.038 13.688 C 11.502 12.98 11.735 12.073 11.725 10.969 L 11.725 0.75 L 9.631 0.75 Z " stroke-width="1"/>
</svg>