<svg xmlns="http://www.w3.org/2000/svg" xmlns:xlink="http://www.w3.org/1999/xlink" version="1.1" width="16.761343002319336" height="15.878999710083008" viewBox="-0.4695555530488491 0 16.761343002319336 15.878999710083008">
  <!-- Exported by Scratch - http://scratch.mit.edu/ -->
  <path id="path3210" fill="#ff2a2a" stroke="none" d="M 3.631 0.5 C 3.351 0.5 3.059 0.511 2.788 0.531 C 2.516 0.551 2.282 0.58 2.038 0.625 C 1.536 0.71 1.093 0.918 0.756 1.25 C 0.419 1.582 0.196 2.124 0.1 2.875 C 0.073 3.121 0.054 3.404 0.038 3.688 C 0.021 3.971 0.038 4.241 0.038 4.531 C 0.038 4.84 0.021 5.169 0.038 5.469 C 0.054 5.769 0.073 6.026 0.1 6.281 C 0.166 6.965 0.367 7.517 0.694 7.906 C 1.021 8.295 1.534 8.526 2.194 8.625 C 2.33 8.643 2.468 8.677 2.631 8.688 C 2.795 8.698 2.959 8.679 3.131 8.688 L 3.538 8.688 C 3.749 8.688 3.958 8.696 4.163 8.688 C 4.367 8.678 4.546 8.674 4.694 8.656 C 5.216 8.604 5.65 8.447 6.038 8.188 C 6.424 7.928 6.706 7.547 6.85 7.063 C 6.905 6.854 6.965 6.627 7.006 6.375 C 7.047 6.123 7.05 5.866 7.069 5.594 C 7.086 5.395 7.096 5.203 7.1 5 C 7.104 4.797 7.132 4.574 7.131 4.375 C 7.132 4.05 7.122 3.749 7.1 3.438 C 7.078 3.126 7.028 2.82 6.975 2.531 C 6.869 1.975 6.656 1.532 6.35 1.219 C 6.044 0.905 5.629 0.714 5.1 0.625 C 4.963 0.598 4.809 0.58 4.631 0.563 C 4.453 0.545 4.26 0.509 4.069 0.5 L 3.631 0.5 Z M 12.725 0.75 L 7.288 7.531 L 0.944 15.063 L 3.163 15.063 L 8.6 8.375 L 14.975 0.75 L 12.725 0.75 Z M 3.069 2.094 C 3.178 2.087 3.294 2.094 3.413 2.094 L 3.694 2.094 C 3.83 2.094 3.971 2.086 4.1 2.094 C 4.229 2.101 4.335 2.116 4.444 2.125 C 4.661 2.146 4.859 2.206 5.006 2.344 C 5.154 2.482 5.255 2.736 5.319 3.063 C 5.355 3.255 5.389 3.464 5.413 3.719 C 5.436 3.974 5.443 4.249 5.444 4.531 C 5.444 4.796 5.423 5.037 5.413 5.281 C 5.402 5.525 5.408 5.754 5.381 5.938 C 5.343 6.288 5.24 6.557 5.1 6.75 C 4.96 6.943 4.73 7.05 4.413 7.094 C 4.304 7.111 4.193 7.121 4.069 7.125 C 3.945 7.129 3.829 7.125 3.694 7.125 L 3.381 7.125 C 3.253 7.125 3.154 7.132 3.038 7.125 C 2.921 7.118 2.808 7.103 2.725 7.094 C 2.455 7.059 2.229 6.956 2.069 6.781 C 1.909 6.607 1.802 6.306 1.756 5.875 C 1.73 5.668 1.731 5.442 1.725 5.219 C 1.719 4.996 1.724 4.766 1.725 4.531 C 1.725 4.296 1.74 4.072 1.756 3.844 C 1.772 3.615 1.791 3.396 1.819 3.188 C 1.849 2.857 1.924 2.611 2.069 2.438 C 2.214 2.264 2.46 2.168 2.788 2.125 C 2.87 2.116 2.959 2.101 3.069 2.094 Z M 12.256 7.188 C 12.004 7.187 11.779 7.206 11.538 7.219 C 11.296 7.231 11.044 7.246 10.819 7.281 C 10.329 7.353 9.915 7.553 9.538 7.906 C 9.16 8.259 8.899 8.816 8.788 9.563 C 8.759 9.808 8.746 10.091 8.725 10.375 C 8.704 10.659 8.695 10.928 8.694 11.219 C 8.694 11.528 8.678 11.825 8.694 12.125 C 8.71 12.425 8.76 12.714 8.788 12.969 C 8.853 13.644 9.021 14.176 9.35 14.563 C 9.679 14.95 10.181 15.182 10.85 15.281 C 10.986 15.299 11.155 15.333 11.319 15.344 C 11.482 15.355 11.646 15.366 11.819 15.375 C 11.917 15.376 11.999 15.37 12.1 15.375 C 12.201 15.38 12.305 15.374 12.413 15.375 C 12.594 15.375 12.771 15.384 12.944 15.375 C 13.116 15.366 13.298 15.331 13.444 15.313 C 13.969 15.256 14.402 15.121 14.756 14.875 C 15.11 14.629 15.359 14.257 15.506 13.75 C 15.561 13.541 15.621 13.314 15.663 13.063 C 15.704 12.811 15.706 12.553 15.725 12.281 C 15.743 12.084 15.778 11.88 15.788 11.688 C 15.797 11.495 15.787 11.291 15.788 11.094 C 15.788 10.769 15.785 10.443 15.756 10.125 C 15.727 9.807 15.663 9.517 15.6 9.219 C 15.493 8.66 15.287 8.197 14.975 7.875 C 14.663 7.553 14.255 7.363 13.725 7.281 C 13.579 7.255 13.403 7.232 13.225 7.219 C 13.047 7.206 12.876 7.196 12.694 7.188 L 12.256 7.188 Z M 12.288 8.75 C 12.365 8.745 12.433 8.751 12.506 8.75 C 12.615 8.75 12.748 8.774 12.85 8.781 C 12.952 8.788 13.018 8.772 13.1 8.781 C 13.317 8.81 13.515 8.897 13.663 9.031 C 13.81 9.166 13.911 9.393 13.975 9.719 C 14.011 9.911 14.049 10.151 14.069 10.406 C 14.089 10.661 14.091 10.937 14.1 11.219 C 14.099 11.483 14.083 11.725 14.069 11.969 C 14.054 12.213 14.056 12.41 14.038 12.594 C 13.999 12.943 13.896 13.217 13.756 13.406 C 13.616 13.596 13.386 13.729 13.069 13.781 C 12.951 13.799 12.834 13.803 12.694 13.813 C 12.553 13.822 12.41 13.844 12.256 13.844 L 12.038 13.844 C 11.91 13.843 11.81 13.825 11.694 13.813 C 11.577 13.8 11.464 13.791 11.381 13.781 C 11.111 13.746 10.885 13.643 10.725 13.469 C 10.565 13.294 10.489 12.994 10.444 12.563 C 10.408 12.221 10.381 11.847 10.381 11.469 L 10.381 11.219 C 10.381 10.984 10.37 10.76 10.381 10.531 C 10.392 10.303 10.417 10.083 10.444 9.875 C 10.483 9.544 10.58 9.296 10.725 9.125 C 10.87 8.954 11.094 8.847 11.413 8.813 C 11.496 8.803 11.61 8.788 11.725 8.781 C 11.84 8.774 11.949 8.782 12.069 8.781 C 12.141 8.78 12.21 8.755 12.288 8.75 Z " stroke-width="1"/>
</svg>