<svg xmlns="http://www.w3.org/2000/svg" xmlns:xlink="http://www.w3.org/1999/xlink" version="1.1" width="13.312037467956543" height="15.314382553100586" viewBox="-0.4309999942779541 0.24905550479888916 13.312037467956543 15.314382553100586">
  <!-- Exported by Scratch - http://scratch.mit.edu/ -->
  <path id="path5983" fill="#ff2a2a" stroke="none" d="M 0.069 0.75 L 0.069 15.063 L 8.069 15.063 C 9.154 15.074 10.075 14.878 10.85 14.469 C 11.625 14.06 12.102 13.376 12.288 12.406 C 12.323 12.198 12.337 11.978 12.35 11.75 C 12.363 11.522 12.382 11.298 12.381 11.063 C 12.381 10.818 12.368 10.577 12.35 10.344 C 12.332 10.11 12.292 9.887 12.256 9.688 C 12.043 8.569 11.216 7.871 9.725 7.563 C 10.352 7.379 10.834 7.074 11.163 6.688 C 11.491 6.301 11.665 5.905 11.725 5.469 C 11.76 5.268 11.775 5.058 11.788 4.875 C 11.8 4.692 11.819 4.487 11.819 4.25 C 11.818 4.053 11.811 3.833 11.788 3.594 C 11.764 3.354 11.73 3.157 11.694 2.969 C 11.477 2.129 11.017 1.539 10.319 1.219 C 9.62 0.899 8.853 0.735 8.006 0.75 L 0.069 0.75 Z M 2.1 2.594 L 7.319 2.594 C 7.909 2.586 8.417 2.672 8.85 2.813 C 9.283 2.953 9.558 3.206 9.663 3.594 C 9.69 3.723 9.709 3.868 9.725 4.031 C 9.741 4.194 9.756 4.344 9.756 4.5 C 9.755 4.624 9.739 4.815 9.725 5.031 C 9.711 5.248 9.712 5.416 9.694 5.531 C 9.574 6.095 9.291 6.42 8.881 6.563 C 8.471 6.705 8.053 6.771 7.6 6.75 L 7.256 6.75 L 2.1 6.75 L 2.1 2.594 Z M 2.1 8.594 L 7.538 8.594 C 8.115 8.57 8.664 8.636 9.163 8.781 C 9.661 8.926 10.004 9.278 10.194 9.875 C 10.238 10.03 10.242 10.197 10.256 10.375 C 10.271 10.553 10.289 10.733 10.288 10.906 C 10.29 11.105 10.299 11.304 10.288 11.5 C 10.276 11.696 10.245 11.904 10.194 12.094 C 10.03 12.561 9.717 12.864 9.256 13.031 C 8.796 13.199 8.28 13.291 7.756 13.281 L 2.1 13.281 L 2.1 8.594 Z " stroke-width="1"/>
</svg>