<svg xmlns="http://www.w3.org/2000/svg" xmlns:xlink="http://www.w3.org/1999/xlink" version="1.1" width="11.656034469604492" height="12.375" viewBox="-0.4370344504714012 0.4380000829696655 11.656034469604492 12.375">
  <!-- Exported by Scratch - http://scratch.mit.edu/ -->
  <path id="path5299" fill="#ff2a2a" stroke="none" d="M 5.531 0.938 C 4.94 0.938 4.407 0.964 3.906 1 C 2.845 1.029 1.995 1.278 1.344 1.781 C 0.692 2.285 0.299 3.237 0.156 4.625 C 0.13 4.934 0.105 5.262 0.094 5.625 C 0.083 5.988 0.062 6.369 0.063 6.75 C 0.07 7.158 0.108 7.549 0.125 7.938 C 0.142 8.326 0.144 8.673 0.188 9 C 0.343 10.116 0.709 10.92 1.281 11.406 C 1.853 11.892 2.685 12.178 3.75 12.25 C 3.949 12.268 4.167 12.272 4.406 12.281 C 4.645 12.29 4.885 12.313 5.156 12.313 L 5.531 12.313 C 5.874 12.305 6.207 12.294 6.5 12.281 C 6.793 12.269 7.046 12.245 7.281 12.219 C 8.347 12.109 9.137 11.807 9.656 11.313 C 10.176 10.818 10.517 10.042 10.656 8.969 C 10.674 8.811 10.677 8.613 10.688 8.375 C 10.698 8.137 10.71 7.89 10.719 7.625 L 8.75 7.625 C 8.741 7.862 8.73 8.056 8.719 8.25 C 8.708 8.444 8.705 8.599 8.688 8.719 C 8.606 9.284 8.404 9.709 8.125 9.969 C 7.846 10.228 7.429 10.389 6.844 10.469 C 6.653 10.495 6.445 10.52 6.219 10.531 C 5.992 10.542 5.744 10.532 5.5 10.531 C 5.255 10.531 5.015 10.541 4.781 10.531 C 4.548 10.522 4.356 10.518 4.156 10.5 C 3.503 10.441 3.009 10.264 2.719 10 C 2.428 9.736 2.242 9.313 2.156 8.688 C 2.112 8.415 2.082 8.11 2.063 7.781 C 2.043 7.452 2.031 7.104 2.031 6.75 C 2.032 6.423 2.048 6.088 2.063 5.781 C 2.077 5.474 2.075 5.215 2.094 4.969 C 2.148 4.285 2.33 3.772 2.625 3.438 C 2.92 3.103 3.392 2.88 4.031 2.781 C 4.22 2.746 4.403 2.732 4.594 2.719 C 4.785 2.706 4.99 2.687 5.188 2.688 C 5.269 2.688 5.351 2.714 5.438 2.719 C 5.524 2.724 5.606 2.718 5.688 2.719 C 5.922 2.726 6.167 2.739 6.406 2.75 C 6.645 2.761 6.89 2.77 7.125 2.813 C 7.449 2.841 7.772 2.992 8.094 3.219 C 8.416 3.445 8.619 3.895 8.719 4.625 C 8.728 4.734 8.743 4.864 8.75 4.969 C 8.757 5.073 8.75 5.159 8.75 5.25 L 10.688 5.25 C 10.679 5.105 10.66 4.92 10.656 4.719 C 10.652 4.517 10.633 4.355 10.625 4.219 C 10.535 3.199 10.238 2.424 9.688 1.906 C 9.137 1.388 8.233 1.093 7 1 C 6.604 0.964 6.107 0.938 5.531 0.938 Z " stroke-width="1"/>
</svg>