<svg xmlns="http://www.w3.org/2000/svg" xmlns:xlink="http://www.w3.org/1999/xlink" version="1.1" width="13.602890014648438" height="16.0081787109375" viewBox="36.42499923706055 821.9378051757812 13.602890014648438 16.0081787109375">
  <!-- Exported by Scratch - http://scratch.mit.edu/ -->
  <path id="path3593" fill="#ff2a2a" stroke="none" d="M 43.144 822.438 C 42.709 822.437 42.302 822.448 41.894 822.469 C 41.486 822.489 41.082 822.518 40.738 822.563 C 39.87 822.658 39.099 822.962 38.425 823.438 C 37.751 823.913 37.301 824.572 37.081 825.469 C 37.027 825.726 36.988 826.039 36.956 826.375 C 36.924 826.711 36.926 827.05 36.925 827.406 C 36.926 827.699 36.933 827.998 36.956 828.281 C 36.979 828.565 37.013 828.811 37.05 829.031 C 37.234 830.008 37.617 830.735 38.206 831.188 C 38.796 831.64 39.499 831.883 40.331 831.969 C 40.597 832.004 40.908 832.05 41.269 832.063 C 41.629 832.075 42.001 832.063 42.394 832.063 L 42.894 832.063 C 43.268 832.063 43.613 832.073 43.956 832.063 C 44.299 832.052 44.614 832.027 44.863 832 C 45.472 831.933 46.002 831.796 46.456 831.563 C 46.91 831.329 47.282 830.963 47.613 830.5 C 47.603 830.954 47.584 831.407 47.55 831.844 C 47.516 832.28 47.479 832.667 47.425 833.031 C 47.308 833.791 47.047 834.375 46.644 834.781 C 46.241 835.187 45.655 835.473 44.863 835.594 C 44.65 835.63 44.366 835.638 44.05 835.656 C 43.734 835.674 43.406 835.688 43.05 835.688 C 42.617 835.688 42.201 835.683 41.8 835.656 C 41.399 835.629 41.084 835.585 40.831 835.531 C 40.322 835.423 39.914 835.228 39.644 834.969 C 39.373 834.71 39.221 834.374 39.144 833.969 C 39.135 833.898 39.114 833.843 39.113 833.781 C 39.111 833.72 39.112 833.664 39.113 833.594 L 37.05 833.531 C 37.05 833.596 37.048 833.647 37.05 833.719 C 37.052 833.79 37.041 833.882 37.05 833.938 C 37.15 835.082 37.519 835.888 38.144 836.375 C 38.768 836.863 39.585 837.176 40.613 837.313 C 40.934 837.358 41.31 837.381 41.738 837.406 C 42.165 837.431 42.625 837.437 43.081 837.438 C 43.472 837.438 43.847 837.456 44.206 837.438 C 44.565 837.419 44.861 837.38 45.144 837.344 C 46.45 837.193 47.439 836.813 48.081 836.188 C 48.724 835.562 49.15 834.614 49.331 833.375 C 49.411 832.861 49.455 832.278 49.488 831.625 C 49.52 830.972 49.52 830.301 49.519 829.625 C 49.519 829.079 49.539 828.574 49.519 828.063 C 49.499 827.551 49.438 827.067 49.394 826.656 C 49.267 825.302 48.917 824.337 48.3 823.719 C 47.683 823.1 46.708 822.72 45.394 822.563 C 45.076 822.519 44.714 822.483 44.331 822.469 C 43.948 822.454 43.56 822.436 43.144 822.438 Z M 43.113 824.281 C 43.479 824.281 43.838 824.271 44.175 824.281 C 44.512 824.292 44.787 824.317 45.019 824.344 C 45.652 824.422 46.153 824.601 46.55 824.875 C 46.947 825.149 47.211 825.53 47.331 826.031 C 47.377 826.218 47.431 826.433 47.456 826.688 C 47.481 826.942 47.487 827.197 47.488 827.438 C 47.488 827.519 47.489 827.61 47.488 827.688 C 47.486 827.765 47.465 827.843 47.456 827.906 C 47.441 828.068 47.427 828.213 47.394 828.375 C 47.355 828.534 47.294 828.703 47.238 828.844 C 47.08 829.215 46.828 829.511 46.456 829.75 C 46.085 829.989 45.591 830.144 44.956 830.219 C 44.716 830.246 44.42 830.265 44.081 830.281 C 43.742 830.297 43.385 830.312 43.019 830.313 C 42.634 830.313 42.278 830.299 41.925 830.281 C 41.572 830.263 41.259 830.223 41.019 830.188 C 40.408 830.112 39.92 829.944 39.581 829.656 C 39.243 829.369 39.036 828.937 38.956 828.375 C 38.938 828.245 38.934 828.086 38.925 827.906 C 38.916 827.727 38.925 827.559 38.925 827.375 C 38.926 827.173 38.911 826.975 38.925 826.781 C 38.939 826.588 38.969 826.412 38.988 826.281 C 39.087 825.715 39.321 825.288 39.706 824.969 C 40.091 824.65 40.634 824.455 41.3 824.375 C 41.53 824.348 41.795 824.329 42.113 824.313 C 42.43 824.296 42.766 824.282 43.113 824.281 Z " stroke-width="1"/>
</svg>