<svg xmlns="http://www.w3.org/2000/svg" xmlns:xlink="http://www.w3.org/1999/xlink" version="1.1" width="13.656000137329102" height="15.343999862670898" viewBox="-0.4309999942779541 0.25 13.656000137329102 15.343999862670898">
  <!-- Exported by Scratch - http://scratch.mit.edu/ -->
  <path id="path6321" fill="#ff2a2a" stroke="none" d="M 0.069 0.75 L 0.069 15.063 L 2.1 15.063 L 2.1 7.938 C 2.098 7.489 2.092 6.934 2.069 6.25 C 2.045 5.566 2.032 4.896 2.006 4.25 C 1.981 3.604 1.951 3.116 1.944 2.781 C 1.944 2.746 1.937 2.732 1.944 2.719 C 1.951 2.706 1.966 2.687 1.975 2.688 C 1.995 2.691 2.013 2.724 2.038 2.75 C 2.062 2.776 2.098 2.778 2.1 2.781 C 2.118 2.815 2.249 3.104 2.538 3.625 C 2.826 4.146 3.168 4.684 3.506 5.281 C 3.845 5.878 4.088 6.332 4.256 6.594 C 4.543 7.035 4.973 7.689 5.569 8.594 C 6.164 9.498 6.79 10.446 7.444 11.438 C 8.098 12.429 8.669 13.269 9.131 13.969 C 9.594 14.669 9.829 15.031 9.85 15.063 L 12.725 15.094 L 12.725 0.75 L 10.694 0.75 L 10.694 8.156 C 10.695 8.613 10.707 9.147 10.725 9.781 C 10.743 10.416 10.768 11.011 10.788 11.594 C 10.807 12.176 10.812 12.636 10.819 12.938 C 10.819 12.973 10.828 12.987 10.819 13 C 10.81 13.013 10.774 13.032 10.756 13.031 C 10.737 13.029 10.744 13.016 10.725 13 C 10.705 12.984 10.664 12.971 10.663 12.969 C 10.646 12.939 10.508 12.68 10.225 12.188 C 9.942 11.695 9.614 11.134 9.256 10.531 C 8.899 9.928 8.619 9.453 8.381 9.094 C 8.052 8.601 7.591 7.897 7.006 7 C 6.422 6.103 5.812 5.205 5.194 4.25 C 4.576 3.295 4.061 2.478 3.631 1.813 C 3.202 1.147 2.962 0.779 2.944 0.75 L 0.069 0.75 Z " stroke-width="1"/>
</svg>