<svg xmlns="http://www.w3.org/2000/svg" xmlns:xlink="http://www.w3.org/1999/xlink" version="1.1" width="11.662006378173828" height="15.625038146972656" viewBox="-0.4430064857006073 0.25 11.662006378173828 15.625038146972656">
  <!-- Exported by Scratch - http://scratch.mit.edu/ -->
  <path id="path5325" fill="#ff2a2a" stroke="none" d="M 8.75 0.75 L 8.75 5.125 C 8.547 4.822 8.315 4.576 8.031 4.406 C 7.748 4.236 7.387 4.109 6.969 4.031 C 6.719 3.978 6.401 3.959 6.031 3.938 C 5.662 3.916 5.278 3.906 4.875 3.906 C 4.557 3.906 4.249 3.893 3.969 3.906 C 3.689 3.919 3.451 3.965 3.25 4 C 2.206 4.165 1.466 4.524 1 5.094 C 0.534 5.664 0.256 6.405 0.156 7.344 C 0.121 7.626 0.075 7.96 0.063 8.313 C 0.05 8.665 0.062 9.025 0.063 9.406 C 0.062 9.863 0.074 10.316 0.094 10.75 C 0.114 11.184 0.143 11.544 0.188 11.875 C 0.319 12.857 0.658 13.653 1.188 14.25 C 1.717 14.847 2.438 15.19 3.406 15.281 C 3.638 15.3 3.946 15.33 4.281 15.344 C 4.616 15.358 4.955 15.374 5.313 15.375 C 5.622 15.376 5.916 15.357 6.188 15.344 C 6.459 15.331 6.683 15.317 6.875 15.281 C 7.412 15.189 7.816 15.041 8.094 14.844 C 8.372 14.646 8.614 14.406 8.781 14.125 L 8.75 15.063 L 10.719 15.063 L 10.719 0.75 L 8.75 0.75 Z M 5.313 5.688 C 5.561 5.687 5.814 5.673 6.094 5.688 C 6.373 5.702 6.658 5.737 6.906 5.781 C 7.355 5.853 7.7 6.01 7.969 6.219 C 8.237 6.428 8.425 6.76 8.531 7.219 C 8.619 7.588 8.689 7.997 8.719 8.438 C 8.748 8.879 8.752 9.283 8.75 9.688 C 8.75 10.021 8.748 10.451 8.719 10.969 C 8.69 11.487 8.625 11.863 8.563 12.125 C 8.432 12.523 8.258 12.835 8 13.031 C 7.742 13.227 7.431 13.363 7.094 13.438 C 6.847 13.499 6.589 13.539 6.313 13.563 C 6.036 13.586 5.756 13.595 5.5 13.594 L 5.188 13.594 C 4.882 13.594 4.571 13.583 4.281 13.563 C 3.991 13.543 3.764 13.513 3.594 13.469 C 3.148 13.338 2.823 13.108 2.594 12.781 C 2.364 12.455 2.224 12.058 2.156 11.594 C 2.12 11.342 2.08 11.043 2.063 10.656 C 2.045 10.269 2.031 9.851 2.031 9.438 C 2.031 9.109 2.052 8.793 2.063 8.5 C 2.073 8.208 2.067 7.984 2.094 7.781 C 2.148 7.319 2.302 6.919 2.5 6.594 C 2.698 6.269 3.019 6.022 3.469 5.875 C 3.669 5.821 3.94 5.784 4.281 5.75 C 4.623 5.716 4.96 5.697 5.313 5.688 Z " stroke-width="1"/>
</svg>