<svg xmlns="http://www.w3.org/2000/svg" xmlns:xlink="http://www.w3.org/1999/xlink" version="1.1" width="4.627666473388672" height="15.656999588012695" viewBox="-0.41199999302625656 0.07300001382827759 4.627666473388672 15.656999588012695">
  <!-- Exported by Scratch - http://scratch.mit.edu/ -->
  <path id="path3335" fill="#ff2a2a" stroke="none" d="M 0.088 0.573 C 1.875 0.573 2.921 1.017 3.244 1.917 C 3.568 2.817 3.713 3.955 3.713 5.323 L 3.713 8.386 L 3.713 9.042 L 3.713 9.73 C 3.713 9.952 3.719 10.183 3.713 10.417 C 3.707 10.651 3.694 10.862 3.682 11.073 C 3.657 12.167 3.512 13.135 3.213 13.98 C 2.915 14.824 2.047 15.23 0.651 15.23 L 0.557 15.23 L 0.401 15.23 C 0.376 15.217 0.368 15.23 0.369 15.23 C 0.371 15.23 0.286 15.217 0.088 15.23 L 0.088 13.73 L 0.526 13.73 C 1.162 13.73 1.533 13.537 1.651 13.167 C 1.769 12.797 1.86 12.377 1.869 11.917 L 1.869 11.667 L 1.869 11.542 L 1.901 6.573 L 1.901 4.792 L 1.901 4.605 L 1.901 4.386 L 1.901 4.292 C 1.901 4.261 1.9 4.233 1.901 4.198 C 1.89 3.548 1.817 3.041 1.682 2.667 C 1.547 2.294 1.019 2.105 0.088 2.105 L 0.088 0.573 Z " stroke-width="1"/>
</svg>