<svg xmlns="http://www.w3.org/2000/svg" xmlns:xlink="http://www.w3.org/1999/xlink" version="1.1" width="15.594154357910156" height="15.906005859375" viewBox="36.524845123291016 822 15.594154357910156 15.906005859375">
  <!-- Exported by Scratch - http://scratch.mit.edu/ -->
  <path id="path6880" fill="#ff2a2a" stroke="none" d="M 44.556 822.5 C 42.38 822.529 40.599 823.211 39.213 824.563 C 37.826 825.914 37.104 827.761 37.025 830.094 L 37.025 830.25 C 37.018 831.482 37.246 832.612 37.744 833.688 C 38.242 834.763 39.035 835.635 40.119 836.313 C 41.203 836.99 42.618 837.368 44.369 837.406 L 44.525 837.406 C 45.706 837.382 46.677 837.236 47.431 836.969 C 48.185 836.702 48.726 836.441 49.025 836.219 L 49.025 834.625 C 48.445 835.007 47.769 835.349 47.025 835.625 C 46.281 835.901 45.43 836.049 44.463 836.063 L 44.4 836.063 C 42.887 836.025 41.706 835.704 40.838 835.125 C 39.969 834.546 39.323 833.821 38.963 832.938 C 38.602 832.054 38.451 831.137 38.463 830.188 L 38.463 830.063 C 38.528 828.137 39.121 826.643 40.244 825.563 C 41.366 824.483 42.773 823.924 44.494 823.906 L 44.619 823.906 C 46.307 823.948 47.626 824.442 48.619 825.375 C 49.611 826.308 50.127 827.558 50.15 829.094 L 50.15 829.25 C 50.12 830.019 49.887 830.798 49.463 831.563 C 49.038 832.327 48.459 832.746 47.681 832.813 C 47.407 832.806 47.193 832.739 47.088 832.625 C 46.982 832.511 46.958 832.369 46.963 832.219 L 46.963 832.156 C 46.975 832.043 46.988 831.87 47.025 831.688 C 47.062 831.505 47.097 831.367 47.119 831.281 L 48.588 825.813 L 46.9 825.813 L 46.744 826.375 C 46.627 826.172 46.501 826.015 46.338 825.906 C 46.174 825.798 45.991 825.716 45.775 825.656 C 45.574 825.603 45.356 825.584 45.119 825.563 C 44.882 825.541 44.637 825.531 44.4 825.531 C 44.202 825.528 44.031 825.516 43.869 825.531 C 43.312 825.575 42.833 825.741 42.431 826 C 42.03 826.259 41.691 826.632 41.431 827.125 C 41.139 827.669 40.846 828.318 40.588 829.063 C 40.329 829.807 40.186 830.508 40.119 831.188 C 40.118 831.241 40.093 831.295 40.088 831.344 C 40.082 831.393 40.088 831.447 40.088 831.5 C 40.081 832.083 40.221 832.607 40.494 833.094 C 40.767 833.58 41.214 833.929 41.838 834.125 C 42.046 834.179 42.26 834.223 42.494 834.25 C 42.727 834.277 42.977 834.281 43.213 834.281 C 43.425 834.284 43.611 834.296 43.806 834.281 C 44.22 834.235 44.575 834.112 44.838 833.938 C 45.1 833.763 45.283 833.587 45.4 833.406 C 45.482 833.659 45.711 833.87 46.056 834.063 C 46.402 834.255 46.867 834.365 47.463 834.375 L 47.713 834.375 C 48.797 834.299 49.709 833.788 50.431 832.875 C 51.154 831.962 51.533 830.793 51.619 829.313 L 51.619 829 C 51.571 827.007 50.921 825.431 49.619 824.281 C 48.316 823.132 46.641 822.54 44.65 822.5 L 44.556 822.5 Z M 44.494 827.094 C 44.678 827.094 44.84 827.1 45.025 827.125 C 45.209 827.15 45.394 827.205 45.525 827.25 C 45.724 827.321 45.853 827.415 45.963 827.563 C 46.072 827.71 46.148 827.923 46.15 828.156 C 46.141 828.38 46.082 828.673 45.994 829.031 C 45.906 829.39 45.829 829.656 45.775 829.844 C 45.552 830.587 45.407 831.082 45.306 831.344 C 45.205 831.605 45.077 831.82 44.963 831.969 C 44.863 832.125 44.761 832.264 44.619 832.375 C 44.477 832.486 44.299 832.533 44.119 832.563 C 44.054 832.572 43.99 832.592 43.9 832.594 C 43.81 832.596 43.711 832.595 43.619 832.594 C 43.454 832.594 43.301 832.573 43.15 832.563 C 42.999 832.552 42.854 832.558 42.744 832.531 C 42.432 832.447 42.221 832.287 42.088 832.063 C 41.954 831.838 41.897 831.569 41.9 831.25 L 41.9 831.031 C 41.963 830.513 42.088 829.946 42.306 829.344 C 42.524 828.742 42.707 828.294 42.869 828 C 43.014 827.737 43.212 827.528 43.431 827.375 C 43.651 827.222 43.901 827.145 44.181 827.125 C 44.227 827.124 44.285 827.13 44.338 827.125 C 44.39 827.12 44.439 827.095 44.494 827.094 Z " stroke-width="1"/>
</svg>