<svg xmlns="http://www.w3.org/2000/svg" xmlns:xlink="http://www.w3.org/1999/xlink" version="1.1" width="8.342999935150146" height="12.033777236938477" viewBox="-0.3620000034570694 -0.4707777760922909 8.342999935150146 12.033777236938477">
  <!-- Exported by Scratch - http://scratch.mit.edu/ -->
  <path id="path5692" fill="#ff2a2a" stroke="none" d="M 5.7 0.031 C 4.749 0.022 3.977 0.09 3.388 0.281 C 2.798 0.472 2.365 0.84 2.106 1.344 L 2.106 0.188 L 0.138 0.188 L 0.138 11.063 L 2.106 11.063 L 2.106 4.188 C 2.133 3.32 2.442 2.711 3.013 2.406 C 3.583 2.101 4.244 1.959 5.044 1.938 C 5.314 1.922 5.613 1.903 5.919 1.906 C 6.201 1.906 6.491 1.929 6.763 1.938 C 7.034 1.947 7.262 1.951 7.481 1.969 L 7.481 0.063 C 7.192 0.045 6.902 0.035 6.575 0.031 C 6.248 0.027 5.944 0.031 5.7 0.031 Z " stroke-width="1"/>
</svg>