<svg xmlns="http://www.w3.org/2000/svg" xmlns:xlink="http://www.w3.org/1999/xlink" version="1.1" width="13.656000137329102" height="15.312999725341797" viewBox="-0.43699999898672104 0.25 13.656000137329102 15.312999725341797">
  <!-- Exported by Scratch - http://scratch.mit.edu/ -->
  <path id="path6607" fill="#ff2a2a" stroke="none" d="M 0.813 0.75 L 0.813 2.688 L 9.625 2.625 C 9.604 2.648 9.409 2.838 9.063 3.219 C 8.716 3.599 8.325 4.04 7.906 4.5 C 7.488 4.96 7.175 5.299 6.938 5.563 L 0.063 13.156 L 0.063 15.063 L 12.719 15.063 L 12.719 13.125 L 2.5 13.188 C 2.522 13.166 2.732 12.962 3.125 12.563 C 3.518 12.163 3.969 11.703 4.469 11.188 C 4.968 10.672 5.379 10.214 5.719 9.844 L 12.344 2.688 L 12.344 0.75 L 0.813 0.75 Z " stroke-width="1"/>
</svg>