<svg version="1.1" xmlns="http://www.w3.org/2000/svg" xmlns:xlink="http://www.w3.org/1999/xlink" width="45.71576" height="42.25465" viewBox="0,0,45.71576,42.25465"><defs><linearGradient x1="526.83641" y1="-231.10337" x2="555.83496" y2="-265.73305" gradientUnits="userSpaceOnUse" id="color-1"><stop offset="0" stop-color="#2b46ed"/><stop offset="1" stop-color="#1998bf"/></linearGradient></defs><g transform="translate(-315.3108,-175.49645)"><g data-paper-data="{&quot;isPaintingLayer&quot;:true}" fill="url(#color-1)" fill-rule="nonzero" stroke="#ffffff" stroke-width="1.15823" stroke-linecap="butt" stroke-linejoin="miter" stroke-miterlimit="10" stroke-dasharray="" stroke-dashoffset="0" style="mix-blend-mode: normal"><path d="M333.11389,187.05188c0,0 17.58297,14.71114 25.56573,21.39584c2.09107,1.75104 2.36637,4.8658 0.61566,6.95648c-1.75104,2.09107 -4.86515,2.36639 -6.95622,0.61535c-6.69266,-5.60437 -25.54552,-21.37825 -25.54552,-21.37825c0,0 0.19304,2.33996 1.14252,13.0645c0.24038,2.71692 -1.76677,5.11382 -4.48334,5.35394c-2.71734,0.2395 -5.11426,-1.76701 -5.35434,-4.48367c-0.77021,-8.69569 -2.20846,-24.9574 -2.20846,-24.9574c-0.24007,-2.71666 1.76733,-5.11386 4.48334,-5.35394c0,0 14.03282,-1.24219 24.75766,-2.19142c2.71824,-0.24057 5.11514,1.76657 5.35434,4.48367c0.24071,2.71667 -1.76701,5.11426 -4.48277,5.35325c-8.69767,0.77103 -12.8886,1.14164 -12.8886,1.14164z"/></g></g></svg>