<svg xmlns="http://www.w3.org/2000/svg" xmlns:xlink="http://www.w3.org/1999/xlink" version="1.1" width="14.721016883850098" height="15.906000137329102" viewBox="-0.3310000002384186 -0.030999988317489624 14.721016883850098 15.906000137329102">
  <!-- Exported by Scratch - http://scratch.mit.edu/ -->
  <path id="path6113" fill="#ff2a2a" stroke="none" d="M 6.888 0.469 C 6.535 0.47 6.171 0.486 5.856 0.5 C 5.542 0.514 5.266 0.544 5.013 0.563 C 3.416 0.655 2.263 1.049 1.544 1.781 C 0.825 2.513 0.414 3.668 0.294 5.219 C 0.258 5.638 0.218 6.096 0.2 6.594 C 0.182 7.091 0.169 7.576 0.169 8.094 C 0.176 8.648 0.206 9.22 0.231 9.75 C 0.257 10.28 0.295 10.75 0.356 11.188 C 0.542 12.629 0.992 13.67 1.7 14.281 C 2.408 14.893 3.451 15.23 4.825 15.313 C 5.096 15.331 5.374 15.33 5.7 15.344 C 6.025 15.358 6.37 15.374 6.731 15.375 L 7.231 15.375 C 7.675 15.375 8.082 15.362 8.481 15.344 C 8.88 15.326 9.257 15.317 9.575 15.281 C 10.932 15.143 11.934 14.747 12.575 14.125 C 13.216 13.503 13.625 12.514 13.794 11.125 C 13.83 10.81 13.838 10.438 13.856 10.031 C 13.874 9.624 13.887 9.239 13.888 8.844 C 13.887 8.543 13.893 8.244 13.888 8 C 13.882 7.756 13.888 7.585 13.888 7.438 L 6.325 7.438 L 6.325 9.156 L 11.794 9.156 C 11.793 9.505 11.808 9.852 11.794 10.188 C 11.779 10.523 11.75 10.773 11.731 10.906 C 11.63 11.746 11.373 12.336 10.95 12.719 C 10.527 13.102 9.905 13.358 9.075 13.469 C 8.811 13.504 8.494 13.519 8.169 13.531 C 7.844 13.544 7.514 13.563 7.169 13.563 C 6.823 13.563 6.494 13.542 6.169 13.531 C 5.844 13.52 5.558 13.527 5.294 13.5 C 4.367 13.42 3.685 13.172 3.263 12.781 C 2.84 12.391 2.554 11.739 2.419 10.813 C 2.365 10.445 2.321 10.005 2.294 9.531 C 2.267 9.058 2.263 8.579 2.263 8.094 C 2.263 7.646 2.278 7.223 2.294 6.781 C 2.31 6.34 2.329 5.943 2.356 5.594 C 2.434 4.519 2.711 3.742 3.169 3.25 C 3.627 2.758 4.338 2.451 5.325 2.375 C 5.76 2.339 6.264 2.344 6.825 2.344 L 7.2 2.344 C 7.517 2.343 7.843 2.333 8.138 2.344 C 8.432 2.355 8.705 2.38 8.95 2.406 C 9.861 2.493 10.514 2.742 10.919 3.156 C 11.323 3.571 11.577 4.229 11.669 5.125 C 11.677 5.2 11.667 5.282 11.669 5.375 C 11.671 5.468 11.669 5.55 11.669 5.625 L 13.794 5.594 C 13.794 5.448 13.797 5.316 13.794 5.156 C 13.79 4.997 13.78 4.834 13.763 4.688 C 13.6 3.263 13.161 2.242 12.45 1.625 C 11.739 1.008 10.645 0.664 9.169 0.563 C 8.907 0.544 8.59 0.514 8.263 0.5 C 7.935 0.486 7.579 0.47 7.2 0.469 L 6.888 0.469 Z " stroke-width="1"/>
</svg>