<svg xmlns="http://www.w3.org/2000/svg" xmlns:xlink="http://www.w3.org/1999/xlink" version="1.1" width="12.938552856445312" height="15.344315528869629" viewBox="-0.4695530980825424 0.2496843934059143 12.938552856445312 15.344315528869629">
  <!-- Exported by Scratch - http://scratch.mit.edu/ -->
  <path id="path5403" fill="#ff2a2a" stroke="none" d="M 11.625 0.75 C 11.23 0.747 10.845 0.807 10.469 0.938 C 10.092 1.068 9.768 1.299 9.5 1.594 C 9.328 1.451 9.097 1.337 8.813 1.25 C 8.528 1.163 8.2 1.075 7.813 1.031 C 7.517 1.004 7.16 0.985 6.781 0.969 C 6.403 0.953 6.032 0.938 5.656 0.938 C 5.333 0.937 5.006 0.963 4.688 0.969 C 4.369 0.975 4.042 0.974 3.719 1 C 3.018 1.042 2.388 1.195 1.781 1.469 C 1.175 1.743 0.76 2.278 0.563 3.031 C 0.519 3.222 0.483 3.409 0.469 3.625 C 0.454 3.841 0.468 4.063 0.469 4.281 C 0.476 4.507 0.483 4.727 0.5 4.938 C 0.517 5.148 0.55 5.35 0.594 5.531 C 0.66 5.779 0.779 6 0.969 6.219 C 1.159 6.437 1.383 6.619 1.656 6.75 C 1.458 6.888 1.259 7.064 1.063 7.281 C 0.866 7.498 0.738 7.745 0.656 8 C 0.599 8.201 0.566 8.38 0.563 8.563 C 0.562 8.706 0.589 8.856 0.625 9 C 0.689 9.226 0.797 9.391 0.938 9.531 C 1.078 9.672 1.23 9.767 1.438 9.813 C 1.281 9.866 1.11 9.992 0.875 10.156 C 0.64 10.32 0.415 10.534 0.25 10.813 C 0.154 11.004 0.088 11.215 0.063 11.438 C 0.037 11.66 0.028 11.898 0.031 12.125 C 0.027 12.304 0.064 12.503 0.094 12.75 C 0.123 12.997 0.168 13.222 0.281 13.438 C 0.603 13.973 1.049 14.353 1.563 14.563 C 2.076 14.772 2.583 14.897 3.094 14.938 C 3.483 14.983 3.874 15.006 4.313 15.031 C 4.751 15.056 5.226 15.093 5.688 15.094 C 6.14 15.093 6.563 15.056 7 15.031 C 7.437 15.006 7.86 14.983 8.25 14.938 C 8.945 14.868 9.556 14.714 10.094 14.469 C 10.631 14.224 11.036 13.806 11.281 13.25 C 11.345 13.085 11.372 12.891 11.406 12.656 C 11.44 12.421 11.468 12.171 11.469 11.906 C 11.468 11.64 11.44 11.402 11.406 11.156 C 11.372 10.911 11.345 10.698 11.281 10.531 C 11.082 10.028 10.754 9.644 10.281 9.406 C 9.808 9.169 9.176 9.027 8.438 8.938 C 7.561 8.83 6.619 8.768 5.594 8.75 C 4.569 8.732 3.824 8.692 3.344 8.656 C 3.16 8.642 2.971 8.608 2.781 8.563 C 2.591 8.517 2.455 8.435 2.406 8.313 C 2.397 8.286 2.413 8.272 2.406 8.25 C 2.399 8.228 2.375 8.183 2.375 8.156 C 2.378 8.123 2.385 8.082 2.406 8.031 C 2.476 7.891 2.619 7.761 2.813 7.625 C 3.006 7.489 3.18 7.381 3.313 7.313 C 3.443 7.346 3.553 7.369 3.656 7.375 C 3.76 7.381 3.918 7.391 4.156 7.406 C 4.375 7.415 4.624 7.43 4.906 7.438 C 5.188 7.445 5.503 7.437 5.813 7.438 C 6.195 7.438 6.553 7.451 6.906 7.438 C 7.26 7.425 7.578 7.379 7.844 7.344 C 8.473 7.292 9.048 7.174 9.563 6.938 C 10.077 6.701 10.405 6.226 10.594 5.563 C 10.63 5.4 10.664 5.248 10.688 5.063 C 10.711 4.877 10.749 4.668 10.75 4.469 C 10.75 4.252 10.713 4.045 10.688 3.844 C 10.662 3.642 10.639 3.453 10.594 3.281 C 10.578 3.22 10.572 3.169 10.563 3.125 C 10.553 3.082 10.525 3.043 10.5 3 C 10.619 2.822 10.786 2.699 11 2.625 C 11.214 2.551 11.469 2.529 11.75 2.531 L 11.938 2.531 L 11.969 0.781 C 11.864 0.766 11.748 0.747 11.625 0.75 Z M 5.688 2.531 C 6.025 2.532 6.348 2.547 6.656 2.563 C 6.965 2.579 7.217 2.598 7.438 2.625 C 7.902 2.69 8.22 2.785 8.406 2.938 C 8.592 3.09 8.73 3.282 8.781 3.5 C 8.808 3.591 8.833 3.701 8.844 3.813 C 8.855 3.924 8.844 4.038 8.844 4.156 C 8.844 4.302 8.831 4.426 8.813 4.563 C 8.794 4.699 8.786 4.828 8.75 4.938 C 8.67 5.203 8.525 5.408 8.313 5.531 C 8.1 5.655 7.796 5.741 7.438 5.781 C 7.188 5.809 6.901 5.828 6.563 5.844 C 6.223 5.86 5.857 5.875 5.5 5.875 C 5.209 5.875 4.951 5.853 4.688 5.844 C 4.423 5.835 4.201 5.831 4 5.813 C 3.619 5.79 3.293 5.736 3.031 5.625 C 2.769 5.514 2.571 5.31 2.469 5.063 C 2.407 4.922 2.367 4.812 2.344 4.688 C 2.32 4.563 2.311 4.4 2.313 4.25 C 2.312 4.111 2.302 3.987 2.313 3.844 C 2.323 3.701 2.348 3.572 2.375 3.469 C 2.484 3.144 2.706 2.935 3.031 2.813 C 3.357 2.69 3.692 2.613 4 2.594 C 4.282 2.576 4.548 2.572 4.813 2.563 C 5.076 2.553 5.369 2.531 5.688 2.531 Z M 3.344 10.344 L 3.375 10.344 C 4.194 10.354 5.025 10.355 5.844 10.375 C 6.663 10.395 7.462 10.475 8.281 10.594 C 8.483 10.625 8.687 10.651 8.875 10.719 C 9.063 10.786 9.214 10.905 9.344 11.063 C 9.416 11.149 9.464 11.284 9.5 11.438 C 9.536 11.591 9.562 11.748 9.563 11.906 C 9.562 12.025 9.549 12.118 9.531 12.219 C 9.513 12.319 9.505 12.404 9.469 12.469 C 9.319 12.736 9.071 12.925 8.75 13.063 C 8.429 13.2 8.124 13.31 7.813 13.344 C 7.473 13.379 7.103 13.393 6.719 13.406 C 6.335 13.419 5.951 13.438 5.594 13.438 C 5.204 13.439 4.829 13.42 4.438 13.406 C 4.046 13.392 3.675 13.356 3.313 13.313 C 2.977 13.274 2.652 13.182 2.375 13.031 C 2.098 12.881 1.927 12.625 1.844 12.281 C 1.826 12.209 1.816 12.142 1.813 12.063 C 1.809 11.983 1.812 11.894 1.813 11.813 C 1.811 11.711 1.798 11.615 1.813 11.5 C 1.827 11.385 1.862 11.289 1.906 11.188 C 2.042 10.94 2.265 10.718 2.531 10.563 C 2.797 10.407 3.064 10.349 3.344 10.344 Z " stroke-width="1"/>
</svg>