<svg xmlns="http://www.w3.org/2000/svg" xmlns:xlink="http://www.w3.org/1999/xlink" version="1.1" width="13.757999420166016" height="15.906082153320312" viewBox="-0.46899999864399433 -0.00008192658424377441 13.757999420166016 15.906082153320312">
  <!-- Exported by Scratch - http://scratch.mit.edu/ -->
  <path id="path6425" fill="#ff2a2a" stroke="none" d="M 6.219 0.5 C 5.754 0.498 5.267 0.533 4.719 0.563 C 4.171 0.592 3.643 0.631 3.188 0.719 C 2.42 0.855 1.786 1.13 1.25 1.531 C 0.714 1.933 0.352 2.516 0.188 3.281 C 0.151 3.491 0.117 3.721 0.094 3.969 C 0.071 4.217 0.063 4.464 0.063 4.719 C 0.062 4.918 0.081 5.127 0.094 5.313 C 0.107 5.498 0.121 5.65 0.156 5.813 C 0.308 6.579 0.636 7.167 1.156 7.563 C 1.677 7.958 2.405 8.203 3.313 8.313 C 4.047 8.402 4.924 8.502 5.969 8.594 C 7.013 8.686 7.935 8.776 8.688 8.875 C 9.285 8.955 9.724 9.115 10.031 9.344 C 10.338 9.572 10.541 9.895 10.625 10.281 C 10.652 10.392 10.677 10.515 10.688 10.656 C 10.698 10.798 10.688 10.948 10.688 11.094 C 10.688 11.285 10.676 11.454 10.656 11.625 C 10.636 11.796 10.607 11.935 10.563 12.063 C 10.444 12.42 10.249 12.697 9.969 12.906 C 9.688 13.116 9.282 13.287 8.75 13.375 C 8.468 13.42 8.148 13.442 7.813 13.469 C 7.476 13.496 7.135 13.522 6.781 13.531 L 6.375 13.531 C 6.04 13.531 5.721 13.518 5.406 13.5 C 5.092 13.482 4.803 13.442 4.531 13.406 C 3.712 13.329 3.124 13.151 2.75 12.844 C 2.376 12.537 2.153 11.985 2.125 11.188 C 2.124 11.098 2.13 11.007 2.125 10.906 C 2.12 10.805 2.126 10.679 2.125 10.563 L 0.031 10.563 L 0.031 11.219 C 0.054 12.575 0.358 13.538 1 14.156 C 1.642 14.774 2.676 15.149 4.094 15.281 C 4.463 15.317 4.858 15.357 5.25 15.375 C 5.642 15.393 6.032 15.406 6.438 15.406 L 6.938 15.406 C 7.345 15.397 7.731 15.373 8.125 15.344 C 8.519 15.315 8.897 15.272 9.25 15.219 C 10.225 15.086 10.988 14.814 11.531 14.406 C 12.074 13.999 12.442 13.427 12.625 12.719 C 12.688 12.49 12.721 12.249 12.75 11.969 C 12.779 11.689 12.782 11.416 12.781 11.125 C 12.781 10.89 12.799 10.655 12.781 10.438 C 12.763 10.22 12.723 10.025 12.688 9.844 C 12.498 8.884 12.082 8.185 11.438 7.781 C 10.793 7.377 9.982 7.136 9 7.031 C 8.172 6.926 7.278 6.826 6.344 6.75 C 5.41 6.674 4.666 6.61 4.063 6.531 C 3.598 6.488 3.2 6.37 2.875 6.219 C 2.55 6.067 2.31 5.743 2.188 5.25 C 2.162 5.11 2.162 4.995 2.156 4.875 C 2.151 4.755 2.124 4.618 2.125 4.469 C 2.125 4.354 2.145 4.25 2.156 4.156 C 2.167 4.062 2.192 3.98 2.219 3.875 C 2.32 3.502 2.494 3.195 2.781 3 C 3.069 2.805 3.406 2.67 3.75 2.594 C 4.174 2.498 4.603 2.432 5.031 2.406 C 5.459 2.38 5.889 2.372 6.313 2.375 C 6.74 2.375 7.116 2.409 7.5 2.438 C 7.884 2.466 8.239 2.5 8.531 2.563 C 9.072 2.681 9.472 2.858 9.719 3.094 C 9.965 3.329 10.11 3.683 10.156 4.125 C 10.165 4.18 10.154 4.237 10.156 4.313 C 10.158 4.388 10.157 4.449 10.156 4.531 L 10.156 5 L 12.281 5 C 12.282 4.721 12.294 4.469 12.281 4.219 C 12.268 3.969 12.223 3.748 12.188 3.531 C 12.074 2.712 11.767 2.045 11.219 1.563 C 10.671 1.08 9.866 0.761 8.844 0.625 C 8.525 0.58 8.169 0.551 7.781 0.531 C 7.393 0.511 7.011 0.5 6.594 0.5 L 6.219 0.5 Z " stroke-width="1"/>
</svg>