<svg xmlns="http://www.w3.org/2000/svg" xmlns:xlink="http://www.w3.org/1999/xlink" version="1.1" width="11.664889335632324" height="15.625036239624023" viewBox="-0.4059999957680702 0.25 11.664889335632324 15.625036239624023">
  <!-- Exported by Scratch - http://scratch.mit.edu/ -->
  <path id="path5273" fill="#ff2a2a" stroke="none" d="M 0.094 0.75 L 0.094 15.063 L 2.063 15.063 L 2.063 14.125 C 2.221 14.406 2.441 14.646 2.719 14.844 C 2.997 15.041 3.423 15.189 3.969 15.281 C 4.161 15.317 4.385 15.331 4.656 15.344 C 4.927 15.356 5.222 15.376 5.531 15.375 C 5.889 15.374 6.227 15.358 6.563 15.344 C 6.898 15.33 7.174 15.3 7.406 15.281 C 8.375 15.19 9.128 14.847 9.656 14.25 C 10.184 13.653 10.502 12.857 10.625 11.875 C 10.67 11.544 10.73 11.184 10.75 10.75 C 10.77 10.316 10.75 9.863 10.75 9.406 C 10.751 9.025 10.763 8.665 10.75 8.313 C 10.737 7.96 10.723 7.626 10.688 7.344 C 10.597 6.406 10.31 5.66 9.844 5.094 C 9.378 4.527 8.616 4.173 7.563 4 C 7.361 3.973 7.1 3.922 6.813 3.906 C 6.525 3.89 6.234 3.907 5.906 3.906 C 5.512 3.907 5.142 3.912 4.781 3.938 C 4.421 3.963 4.116 3.986 3.875 4.031 C 3.448 4.109 3.098 4.236 2.813 4.406 C 2.527 4.576 2.265 4.822 2.063 5.125 L 2.063 0.75 L 0.094 0.75 Z M 5.594 5.688 C 5.929 5.69 6.265 5.713 6.594 5.75 C 6.923 5.787 7.192 5.819 7.375 5.875 C 7.834 6.022 8.146 6.269 8.344 6.594 C 8.542 6.919 8.674 7.319 8.719 7.781 C 8.745 7.993 8.77 8.254 8.781 8.563 C 8.792 8.871 8.782 9.184 8.781 9.531 C 8.781 9.935 8.768 10.32 8.75 10.688 C 8.732 11.055 8.723 11.352 8.688 11.594 C 8.621 12.058 8.476 12.455 8.25 12.781 C 8.024 13.108 7.672 13.338 7.219 13.469 C 7.049 13.513 6.816 13.543 6.531 13.563 C 6.247 13.582 5.961 13.594 5.656 13.594 C 5.381 13.596 5.088 13.579 4.781 13.563 C 4.474 13.546 4.181 13.521 3.906 13.469 C 3.531 13.413 3.2 13.293 2.906 13.094 C 2.612 12.894 2.391 12.558 2.25 12.125 C 2.179 11.863 2.119 11.487 2.094 10.969 C 2.068 10.451 2.061 10.021 2.063 9.688 C 2.059 9.283 2.075 8.879 2.094 8.438 C 2.112 7.997 2.164 7.588 2.25 7.219 C 2.359 6.777 2.563 6.455 2.844 6.25 C 3.124 6.045 3.473 5.885 3.906 5.813 C 4.166 5.759 4.441 5.741 4.719 5.719 C 4.996 5.697 5.28 5.687 5.594 5.688 Z " stroke-width="1"/>
</svg>