<svg xmlns="http://www.w3.org/2000/svg" xmlns:xlink="http://www.w3.org/1999/xlink" version="1.1" width="14.843997955322266" height="17.625" viewBox="36.525001525878906 821.968994140625 14.843997955322266 17.625">
  <!-- Exported by Scratch - http://scratch.mit.edu/ -->
  <path id="path3207" fill="#ff2a2a" stroke="none" d="M 43.775 822.469 C 43.412 822.47 43.078 822.486 42.744 822.5 C 42.41 822.514 42.102 822.544 41.838 822.563 C 40.249 822.663 39.086 823.053 38.369 823.781 C 37.651 824.51 37.24 825.669 37.119 827.219 C 37.083 827.638 37.074 828.096 37.056 828.594 C 37.038 829.091 37.025 829.576 37.025 830.094 C 37.032 830.648 37.031 831.22 37.056 831.75 C 37.082 832.28 37.12 832.75 37.181 833.188 C 37.367 834.63 37.817 835.664 38.525 836.281 C 39.233 836.898 40.276 837.229 41.65 837.313 C 41.923 837.331 42.25 837.361 42.588 837.375 C 42.925 837.389 43.278 837.406 43.65 837.406 L 44.119 837.406 C 44.572 837.405 44.994 837.398 45.4 837.375 C 45.806 837.352 46.175 837.318 46.494 837.281 L 46.588 837.281 L 48.056 839.094 L 50.494 839.094 L 48.556 836.781 C 49.188 836.501 49.685 836.055 50.025 835.469 C 50.365 834.882 50.584 834.107 50.713 833.125 C 50.766 832.725 50.81 832.289 50.838 831.813 C 50.864 831.336 50.869 830.82 50.869 830.313 L 50.869 829.906 C 50.868 829.333 50.87 828.741 50.838 828.188 C 50.805 827.634 50.736 827.144 50.681 826.688 C 50.52 825.263 50.106 824.242 49.4 823.625 C 48.694 823.008 47.594 822.664 46.119 822.563 C 45.846 822.544 45.552 822.514 45.213 822.5 C 44.873 822.486 44.499 822.47 44.119 822.469 L 43.775 822.469 Z M 43.056 824.344 C 43.396 824.335 43.755 824.344 44.119 824.344 C 44.445 824.343 44.754 824.333 45.056 824.344 C 45.358 824.355 45.654 824.38 45.9 824.406 C 46.809 824.481 47.464 824.736 47.869 825.156 C 48.274 825.577 48.533 826.263 48.65 827.219 C 48.695 827.586 48.719 827.991 48.744 828.469 C 48.769 828.946 48.775 829.435 48.775 829.938 C 48.776 830.47 48.767 831.006 48.744 831.531 C 48.72 832.057 48.681 832.509 48.619 832.906 C 48.535 833.512 48.4 833.988 48.181 834.344 C 47.962 834.7 47.638 834.974 47.213 835.156 L 45.056 832.563 L 42.713 832.563 L 45.181 835.563 C 45.099 835.563 45.017 835.558 44.931 835.563 C 44.845 835.567 44.732 835.593 44.65 835.594 L 44.025 835.594 C 43.681 835.594 43.349 835.573 43.025 835.563 C 42.701 835.552 42.4 835.527 42.119 835.5 C 41.192 835.421 40.51 835.198 40.088 834.813 C 39.665 834.427 39.41 833.769 39.275 832.844 C 39.221 832.474 39.177 832.047 39.15 831.563 C 39.123 831.078 39.088 830.58 39.088 830.094 C 39.088 829.646 39.103 829.217 39.119 828.781 C 39.135 828.345 39.154 827.942 39.181 827.594 C 39.25 826.51 39.536 825.744 39.994 825.25 C 40.452 824.756 41.154 824.451 42.15 824.375 C 42.415 824.357 42.717 824.353 43.056 824.344 Z " stroke-width="1"/>
</svg>