<svg xmlns="http://www.w3.org/2000/svg" xmlns:xlink="http://www.w3.org/1999/xlink" version="1.1" width="10.968999862670898" height="11.906000137329102" viewBox="-0.4309999942779541 -0.31199999153614044 10.968999862670898 11.906000137329102">
  <!-- Exported by Scratch - http://scratch.mit.edu/ -->
  <path id="path5931" fill="#ff2a2a" stroke="none" d="M 0.569 0.188 L 0.569 1.938 L 7.319 1.906 C 7.288 1.937 7.044 2.144 6.631 2.563 C 6.219 2.981 5.812 3.408 5.381 3.844 C 4.951 4.28 4.684 4.54 4.6 4.625 L 0.069 9.281 L 0.069 11.063 L 10.038 11.094 L 10.038 9.313 L 2.475 9.344 C 2.499 9.32 2.675 9.142 3.006 8.813 C 3.338 8.483 3.688 8.162 4.038 7.813 C 4.387 7.463 4.584 7.24 4.663 7.156 L 9.788 1.969 L 9.788 0.188 L 0.569 0.188 Z " stroke-width="1"/>
</svg>