<svg xmlns="http://www.w3.org/2000/svg" xmlns:xlink="http://www.w3.org/1999/xlink" version="1.1" width="14.905999183654785" height="15.906000137329102" viewBox="-0.3999999985098839 -0.030999988317489624 14.905999183654785 15.906000137329102">
  <!-- Exported by Scratch - http://scratch.mit.edu/ -->
  <path id="path6347" fill="#ff2a2a" stroke="none" d="M 6.881 0.469 C 6.509 0.47 6.155 0.486 5.819 0.5 C 5.483 0.514 5.208 0.544 4.944 0.563 C 3.347 0.663 2.163 1.053 1.444 1.781 C 0.725 2.51 0.314 3.669 0.194 5.219 C 0.158 5.638 0.149 6.096 0.131 6.594 C 0.113 7.091 0.1 7.576 0.1 8.094 C 0.1 8.648 0.102 9.22 0.131 9.75 C 0.16 10.28 0.194 10.75 0.256 11.188 C 0.442 12.629 0.892 13.67 1.6 14.281 C 2.308 14.893 3.351 15.23 4.725 15.313 C 4.998 15.331 5.317 15.33 5.663 15.344 C 6.007 15.358 6.375 15.374 6.756 15.375 L 7.225 15.375 C 7.671 15.375 8.123 15.362 8.538 15.344 C 8.952 15.326 9.311 15.317 9.631 15.281 C 10.987 15.143 11.995 14.747 12.631 14.125 C 13.267 13.503 13.651 12.514 13.819 11.125 C 13.873 10.715 13.911 10.241 13.944 9.75 C 13.976 9.26 14.005 8.768 14.006 8.25 L 14.006 7.906 C 14.005 7.333 13.976 6.741 13.944 6.188 C 13.911 5.634 13.873 5.144 13.819 4.688 C 13.657 3.263 13.243 2.242 12.538 1.625 C 11.832 1.008 10.731 0.664 9.256 0.563 C 8.982 0.544 8.667 0.514 8.319 0.5 C 7.97 0.486 7.598 0.47 7.225 0.469 L 6.881 0.469 Z M 6.006 2.375 C 6.269 2.366 6.529 2.375 6.819 2.375 L 7.225 2.375 C 7.552 2.375 7.855 2.364 8.163 2.375 C 8.47 2.386 8.76 2.411 9.006 2.438 C 9.914 2.52 10.575 2.772 10.975 3.188 C 11.375 3.603 11.609 4.272 11.725 5.219 C 11.77 5.585 11.825 6.028 11.85 6.5 C 11.875 6.972 11.881 7.436 11.881 7.938 L 11.881 8.344 C 11.881 8.808 11.877 9.253 11.85 9.688 C 11.823 10.122 11.779 10.528 11.725 10.875 C 11.621 11.646 11.384 12.21 11.038 12.594 C 10.691 12.978 10.133 13.234 9.381 13.375 C 9.169 13.411 8.922 13.449 8.631 13.469 C 8.341 13.489 8.036 13.491 7.725 13.5 C 7.572 13.501 7.433 13.526 7.288 13.531 C 7.142 13.536 6.994 13.53 6.85 13.531 C 6.552 13.532 6.281 13.511 6.006 13.5 C 5.731 13.489 5.469 13.495 5.225 13.469 C 4.306 13.389 3.618 13.141 3.194 12.75 C 2.769 12.359 2.509 11.707 2.381 10.781 C 2.327 10.415 2.283 9.994 2.256 9.531 C 2.229 9.068 2.225 8.577 2.225 8.094 C 2.225 7.647 2.209 7.212 2.225 6.781 C 2.241 6.35 2.291 5.973 2.319 5.625 C 2.395 4.55 2.646 3.774 3.1 3.281 C 3.554 2.789 4.293 2.482 5.288 2.406 C 5.505 2.388 5.744 2.384 6.006 2.375 Z " stroke-width="1"/>
</svg>