<svg xmlns="http://www.w3.org/2000/svg" xmlns:xlink="http://www.w3.org/1999/xlink" version="1.1" width="11.062617301940918" height="15.312999725341797" viewBox="-0.43699999898672104 0.25 11.062617301940918 15.312999725341797">
  <!-- Exported by Scratch - http://scratch.mit.edu/ -->
  <path id="path5429" fill="#ff2a2a" stroke="none" d="M 0.063 0.75 L 0.063 15.063 L 2.063 15.063 L 2.063 8.313 C 2.056 7.675 2.205 7.169 2.469 6.781 C 2.733 6.394 3.144 6.098 3.75 5.938 C 4.003 5.867 4.267 5.838 4.531 5.813 C 4.796 5.787 5.082 5.78 5.344 5.781 C 5.664 5.78 5.973 5.802 6.281 5.844 C 6.59 5.885 6.855 5.933 7.094 6.031 C 7.554 6.25 7.848 6.575 7.969 6.969 C 8.089 7.363 8.142 7.705 8.125 8.031 L 8.125 15.063 L 10.125 15.063 L 10.125 7.656 C 10.135 6.894 10.024 6.248 9.75 5.688 C 9.476 5.127 8.987 4.683 8.313 4.406 C 7.934 4.263 7.495 4.161 7 4.094 C 6.505 4.027 6.004 3.999 5.5 4 C 4.849 3.997 4.227 4.065 3.594 4.188 C 3.263 4.256 2.962 4.36 2.688 4.531 C 2.413 4.703 2.204 4.961 2.063 5.281 L 2.063 0.75 L 0.063 0.75 Z " stroke-width="1"/>
</svg>