<svg xmlns="http://www.w3.org/2000/svg" xmlns:xlink="http://www.w3.org/1999/xlink" version="1.1" width="14.687000274658203" height="15.906000137329102" viewBox="-0.3310000002384186 -0.030999988317489624 14.687000274658203 15.906000137329102">
  <!-- Exported by Scratch - http://scratch.mit.edu/ -->
  <path id="path6009" fill="#ff2a2a" stroke="none" d="M 6.888 0.469 C 6.526 0.47 6.204 0.486 5.888 0.5 C 5.571 0.514 5.266 0.544 5.013 0.563 C 3.416 0.663 2.263 1.053 1.544 1.781 C 0.825 2.51 0.414 3.669 0.294 5.219 C 0.258 5.638 0.218 6.096 0.2 6.594 C 0.182 7.091 0.169 7.576 0.169 8.094 C 0.176 8.64 0.206 9.186 0.231 9.719 C 0.257 10.252 0.295 10.749 0.356 11.188 C 0.542 12.629 0.992 13.67 1.7 14.281 C 2.408 14.893 3.451 15.23 4.825 15.313 C 5.096 15.331 5.406 15.33 5.731 15.344 C 6.057 15.358 6.37 15.374 6.731 15.375 L 7.231 15.375 C 7.675 15.375 8.089 15.362 8.481 15.344 C 8.873 15.326 9.235 15.317 9.544 15.281 C 10.908 15.143 11.904 14.747 12.544 14.125 C 13.183 13.503 13.586 12.514 13.763 11.125 C 13.79 10.897 13.809 10.613 13.825 10.313 C 13.841 10.012 13.856 9.759 13.856 9.531 L 11.7 9.531 C 11.7 9.731 11.711 9.965 11.7 10.219 C 11.689 10.472 11.664 10.694 11.638 10.875 C 11.525 11.637 11.296 12.212 10.95 12.594 C 10.603 12.976 10.067 13.234 9.325 13.375 C 9.115 13.411 8.855 13.418 8.575 13.438 C 8.295 13.457 8.009 13.491 7.7 13.5 L 7.075 13.5 C 6.752 13.5 6.462 13.48 6.169 13.469 C 5.875 13.458 5.572 13.433 5.294 13.406 C 4.375 13.327 3.715 13.099 3.294 12.719 C 2.873 12.339 2.585 11.706 2.45 10.781 C 2.398 10.415 2.375 9.994 2.356 9.531 C 2.338 9.068 2.332 8.577 2.325 8.094 C 2.325 7.647 2.314 7.21 2.325 6.781 C 2.336 6.352 2.361 5.995 2.388 5.656 C 2.466 4.572 2.744 3.774 3.2 3.281 C 3.656 2.789 4.378 2.505 5.356 2.438 C 5.767 2.402 6.199 2.375 6.7 2.375 L 7.231 2.375 C 7.547 2.375 7.853 2.395 8.138 2.406 C 8.422 2.417 8.675 2.442 8.919 2.469 C 9.712 2.537 10.327 2.767 10.763 3.156 C 11.198 3.546 11.448 4.114 11.513 4.875 C 11.531 5.028 11.561 5.182 11.575 5.344 C 11.589 5.506 11.574 5.673 11.575 5.844 L 13.794 5.844 C 13.794 5.65 13.803 5.458 13.794 5.25 C 13.785 5.042 13.78 4.846 13.763 4.688 C 13.6 3.263 13.161 2.242 12.45 1.625 C 11.739 1.008 10.645 0.664 9.169 0.563 C 8.907 0.544 8.616 0.514 8.294 0.5 C 7.972 0.486 7.61 0.47 7.231 0.469 L 6.888 0.469 Z " stroke-width="1"/>
</svg>