<svg xmlns="http://www.w3.org/2000/svg" xmlns:xlink="http://www.w3.org/1999/xlink" version="1.1" width="11.062999725341797" height="12.003999710083008" viewBox="-0.5 -0.31199999153614044 11.062999725341797 12.003999710083008">
  <!-- Exported by Scratch - http://scratch.mit.edu/ -->
  <path id="path5801" fill="#ff2a2a" stroke="none" d="M 0 0.188 L 0 7.594 C 0.014 8.732 0.316 9.576 0.875 10.156 C 1.434 10.737 2.162 11.08 3.094 11.156 C 3.354 11.174 3.666 11.178 4.031 11.188 C 4.397 11.197 4.731 11.188 5 11.188 C 5.295 11.183 5.611 11.183 5.938 11.156 C 6.264 11.13 6.615 11.049 7 10.938 C 7.297 10.84 7.532 10.719 7.719 10.531 C 7.906 10.344 8.053 10.156 8.125 9.969 L 8.125 11.063 L 10.063 11.063 L 10.063 0.188 L 8.063 0.188 L 8.063 6.969 C 8.071 7.546 7.971 8.018 7.75 8.406 C 7.529 8.795 7.143 9.1 6.594 9.281 C 6.325 9.37 6.05 9.434 5.781 9.469 C 5.513 9.503 5.255 9.502 4.969 9.5 C 4.725 9.501 4.442 9.514 4.156 9.5 C 3.87 9.485 3.623 9.45 3.406 9.406 C 2.86 9.281 2.481 9.014 2.281 8.625 C 2.081 8.236 1.989 7.767 2 7.219 L 2 0.188 L 0 0.188 Z " stroke-width="1"/>
</svg>