<svg xmlns="http://www.w3.org/2000/svg" xmlns:xlink="http://www.w3.org/1999/xlink" version="1.1" width="13.593997955322266" height="15.98199462890625" viewBox="36.525001525878906 821.9299926757812 13.593997955322266 15.98199462890625">
  <!-- Exported by Scratch - http://scratch.mit.edu/ -->
  <path id="path3619" fill="#ff2a2a" stroke="none" d="M 42.306 822.438 C 41.954 822.447 41.629 822.451 41.338 822.469 C 40.02 822.548 39.047 822.914 38.4 823.563 C 37.753 824.211 37.36 825.214 37.213 826.563 C 37.158 827.044 37.12 827.57 37.088 828.125 C 37.055 828.68 37.026 829.232 37.025 829.813 C 37.025 830.412 37.06 831.008 37.088 831.594 C 37.115 832.18 37.127 832.741 37.181 833.25 C 37.293 834.502 37.675 835.469 38.306 836.156 C 38.937 836.844 39.917 837.235 41.244 837.344 C 41.554 837.37 41.901 837.395 42.275 837.406 C 42.648 837.417 43.017 837.407 43.4 837.406 C 43.8 837.407 44.181 837.419 44.556 837.406 C 44.932 837.394 45.286 837.348 45.588 837.313 C 46.841 837.168 47.772 836.765 48.369 836.094 C 48.966 835.423 49.311 834.501 49.431 833.313 C 49.494 832.803 49.559 832.234 49.588 831.625 C 49.616 831.016 49.619 830.417 49.619 829.781 L 49.619 829.344 C 49.601 828.726 49.548 828.122 49.494 827.531 C 49.44 826.94 49.396 826.398 49.306 825.906 C 49.118 824.882 48.721 824.09 48.15 823.531 C 47.579 822.973 46.751 822.646 45.681 822.531 C 45.361 822.495 45.015 822.455 44.619 822.438 C 44.222 822.42 43.81 822.438 43.4 822.438 C 43.028 822.438 42.658 822.429 42.306 822.438 Z M 43.4 824.313 C 43.719 824.313 44.036 824.328 44.338 824.344 C 44.639 824.36 44.889 824.379 45.119 824.406 C 45.725 824.478 46.215 824.703 46.556 825.063 C 46.897 825.423 47.136 825.963 47.275 826.719 C 47.347 827.098 47.393 827.558 47.431 828.094 C 47.469 828.63 47.485 829.205 47.494 829.781 C 47.493 830.322 47.488 830.833 47.463 831.344 C 47.437 831.855 47.414 832.287 47.369 832.656 C 47.285 833.466 47.093 834.126 46.775 834.594 C 46.457 835.062 45.865 835.343 45.025 835.469 C 44.816 835.496 44.58 835.515 44.338 835.531 C 44.095 835.547 43.841 835.562 43.588 835.563 C 43.462 835.563 43.364 835.564 43.244 835.563 C 43.123 835.561 42.994 835.54 42.869 835.531 C 42.603 835.523 42.335 835.513 42.088 835.5 C 41.84 835.487 41.638 835.495 41.463 835.469 C 40.809 835.38 40.29 835.116 39.931 834.688 C 39.572 834.259 39.348 833.529 39.244 832.531 C 39.207 832.146 39.173 831.727 39.15 831.25 C 39.127 830.773 39.12 830.297 39.119 829.813 C 39.127 829.312 39.152 828.822 39.181 828.344 C 39.21 827.866 39.253 827.424 39.306 827.031 C 39.387 826.231 39.601 825.625 39.963 825.188 C 40.324 824.75 40.943 824.464 41.806 824.375 C 42.025 824.348 42.281 824.355 42.556 824.344 C 42.831 824.333 43.1 824.312 43.4 824.313 Z " stroke-width="1"/>
</svg>