<svg xmlns="http://www.w3.org/2000/svg" xmlns:xlink="http://www.w3.org/1999/xlink" version="1.1" width="13.46904182434082" height="18.593000411987305" viewBox="-0.40604209899902344 -0.18700000643730164 13.46904182434082 18.593000411987305">
  <!-- Exported by Scratch - http://scratch.mit.edu/ -->
  <path id="path3184" fill="#ff2a2a" stroke="none" d="M 5.375 0.313 L 5.375 1.75 C 4.796 1.771 4.217 1.8 3.656 1.875 C 2.876 1.954 2.163 2.184 1.531 2.563 C 0.899 2.941 0.499 3.536 0.313 4.344 C 0.276 4.545 0.242 4.787 0.219 5.031 C 0.196 5.275 0.188 5.504 0.188 5.75 C 0.187 5.949 0.206 6.159 0.219 6.344 C 0.232 6.529 0.246 6.681 0.281 6.844 C 0.425 7.544 0.784 8.106 1.344 8.5 C 1.904 8.895 2.596 9.144 3.469 9.25 C 3.732 9.285 4.044 9.313 4.375 9.344 C 4.706 9.375 5.066 9.402 5.438 9.438 L 5.438 14.5 C 5.098 14.479 4.785 14.445 4.5 14.406 C 3.816 14.328 3.288 14.215 2.938 14.031 C 2.587 13.847 2.345 13.603 2.219 13.281 C 2.14 13.072 2.085 12.833 2.063 12.594 C 2.04 12.355 2.029 12.112 2.031 11.875 L 2.031 11.625 L 0.094 11.625 C 0.093 11.948 0.11 12.249 0.125 12.531 C 0.14 12.814 0.175 13.093 0.219 13.344 C 0.367 14.215 0.754 14.858 1.406 15.281 C 2.059 15.705 2.929 15.956 4.031 16.063 C 4.248 16.089 4.464 16.112 4.688 16.125 C 4.911 16.138 5.15 16.148 5.375 16.156 L 5.375 17.875 L 7.094 17.906 C 7.079 17.327 7.091 16.748 7.094 16.188 C 7.455 16.17 7.78 16.154 8.125 16.125 C 8.47 16.096 8.809 16.045 9.125 16 C 10.001 15.883 10.731 15.615 11.281 15.219 C 11.831 14.823 12.192 14.3 12.375 13.625 C 12.438 13.407 12.471 13.174 12.5 12.906 C 12.529 12.639 12.563 12.353 12.563 12.063 C 12.562 11.836 12.549 11.617 12.531 11.406 C 12.513 11.196 12.473 10.994 12.438 10.813 C 12.26 9.952 11.864 9.319 11.219 8.906 C 10.574 8.493 9.777 8.239 8.844 8.125 C 8.572 8.089 8.274 8.06 7.969 8.031 C 7.663 8.002 7.348 7.964 7.031 7.938 L 7.031 3.406 C 7.102 3.407 7.183 3.401 7.25 3.406 C 7.317 3.411 7.397 3.405 7.469 3.406 C 7.667 3.424 7.855 3.447 8.031 3.469 C 8.207 3.491 8.355 3.527 8.5 3.563 C 9.175 3.728 9.621 4.03 9.844 4.438 C 10.067 4.846 10.174 5.354 10.156 5.969 L 12.063 5.969 C 12.066 5.486 12.02 5.049 11.969 4.656 C 11.857 3.864 11.552 3.216 11.031 2.75 C 10.51 2.284 9.744 1.979 8.75 1.844 C 8.514 1.808 8.254 1.801 7.969 1.781 C 7.683 1.761 7.402 1.727 7.094 1.719 L 7.094 0.313 L 5.375 0.313 Z M 5.438 3.406 L 5.438 7.781 C 5.158 7.754 4.895 7.746 4.656 7.719 C 4.417 7.692 4.19 7.652 4 7.625 C 3.462 7.562 3.032 7.459 2.719 7.281 C 2.405 7.103 2.2 6.803 2.094 6.406 C 2.043 6.223 2.028 5.992 2.031 5.719 C 2.032 5.564 2.015 5.425 2.031 5.281 C 2.047 5.138 2.098 5.016 2.125 4.906 C 2.243 4.493 2.426 4.191 2.719 4 C 3.012 3.809 3.384 3.674 3.844 3.594 C 4.097 3.549 4.361 3.498 4.625 3.469 C 4.889 3.44 5.175 3.424 5.438 3.406 Z M 7.031 9.594 C 7.61 9.645 8.141 9.712 8.594 9.781 C 9.2 9.862 9.654 10.014 9.969 10.25 C 10.283 10.486 10.478 10.792 10.563 11.188 C 10.59 11.297 10.609 11.424 10.625 11.563 C 10.641 11.701 10.656 11.846 10.656 12 C 10.656 12.191 10.65 12.385 10.625 12.563 C 10.6 12.74 10.577 12.894 10.531 13.031 C 10.413 13.414 10.19 13.697 9.906 13.906 C 9.622 14.116 9.206 14.289 8.656 14.375 C 8.412 14.419 8.148 14.447 7.875 14.469 C 7.602 14.491 7.32 14.492 7.031 14.5 L 7.031 9.594 Z " stroke-width="1"/>
</svg>