<svg xmlns="http://www.w3.org/2000/svg" xmlns:xlink="http://www.w3.org/1999/xlink" version="1.1" width="14.094101905822754" height="15.756895065307617" viewBox="-0.4691023603081703 0.25 14.094101905822754 15.756895065307617">
  <!-- Exported by Scratch - http://scratch.mit.edu/ -->
  <path id="path6477" fill="#ff2a2a" stroke="none" d="M 0.031 0.75 L 0.031 10.531 C 0.024 11.939 0.376 13.055 1.094 13.875 C 1.811 14.695 2.946 15.214 4.469 15.406 C 4.793 15.45 5.142 15.485 5.5 15.5 C 5.858 15.515 6.206 15.501 6.594 15.5 C 7.389 15.5 8.143 15.452 8.813 15.344 C 10.189 15.136 11.253 14.652 12 13.875 C 12.747 13.098 13.116 11.972 13.125 10.531 L 13.125 0.75 L 10.938 0.75 L 10.938 10.219 C 10.943 11.11 10.748 11.808 10.344 12.344 C 9.939 12.88 9.314 13.235 8.438 13.406 C 7.915 13.499 7.296 13.559 6.594 13.563 C 5.925 13.563 5.319 13.541 4.813 13.469 C 3.862 13.319 3.207 12.958 2.813 12.438 C 2.418 11.917 2.206 11.214 2.219 10.281 L 2.219 0.75 L 0.031 0.75 Z " stroke-width="1"/>
</svg>