<svg xmlns="http://www.w3.org/2000/svg" xmlns:xlink="http://www.w3.org/1999/xlink" version="1.1" width="11.875044822692871" height="12.474777221679688" viewBox="-0.375 0.4042222499847412 11.875044822692871 12.474777221679688">
  <!-- Exported by Scratch - http://scratch.mit.edu/ -->
  <path id="path5611" fill="#ff2a2a" stroke="none" d="M 4.813 0.906 C 4.521 0.91 4.222 0.92 3.969 0.938 C 2.892 0.975 2.051 1.243 1.406 1.75 C 0.761 2.257 0.36 3.198 0.219 4.594 C 0.191 4.911 0.172 5.258 0.156 5.625 C 0.14 5.992 0.125 6.361 0.125 6.75 C 0.125 7.167 0.131 7.577 0.156 7.969 C 0.181 8.361 0.236 8.727 0.281 9.063 C 0.428 10.187 0.772 11.012 1.344 11.5 C 1.916 11.988 2.739 12.241 3.813 12.313 C 4.068 12.331 4.362 12.366 4.688 12.375 C 5.013 12.384 5.364 12.375 5.719 12.375 C 6.063 12.375 6.377 12.359 6.688 12.344 C 6.998 12.328 7.286 12.309 7.531 12.281 C 8.604 12.172 9.395 11.872 9.906 11.375 C 10.417 10.879 10.738 10.081 10.875 9 C 10.927 8.645 10.952 8.288 10.969 7.875 C 10.985 7.462 11.001 7.02 11 6.594 C 11 6.046 10.971 5.495 10.906 4.906 C 10.841 4.318 10.728 3.749 10.594 3.219 C 10.38 2.424 10.022 1.867 9.469 1.531 C 8.916 1.195 8.174 0.995 7.25 0.938 C 7.041 0.92 6.792 0.91 6.531 0.906 C 6.271 0.902 6.009 0.906 5.719 0.906 C 5.403 0.906 5.104 0.902 4.813 0.906 Z M 5.625 2.594 C 6.114 2.594 6.596 2.62 7.031 2.656 C 7.675 2.715 8.149 2.895 8.438 3.188 C 8.726 3.48 8.914 3.968 9 4.656 C 9.036 4.921 9.044 5.221 9.063 5.563 C 9.08 5.904 9.094 6.252 9.094 6.625 C 9.094 7.025 9.082 7.413 9.063 7.781 C 9.043 8.149 9.013 8.489 8.969 8.781 C 8.897 9.331 8.721 9.756 8.469 10.031 C 8.217 10.306 7.821 10.494 7.281 10.594 C 7.027 10.638 6.77 10.642 6.5 10.656 C 6.23 10.671 5.982 10.689 5.719 10.688 L 5.406 10.688 C 4.974 10.688 4.579 10.661 4.219 10.625 C 3.539 10.566 3.051 10.405 2.75 10.125 C 2.449 9.845 2.273 9.372 2.188 8.719 C 2.143 8.446 2.114 8.148 2.094 7.813 C 2.074 7.477 2.062 7.113 2.063 6.75 C 2.063 6.414 2.048 6.092 2.063 5.781 C 2.077 5.47 2.106 5.192 2.125 4.938 C 2.176 4.214 2.338 3.674 2.625 3.313 C 2.912 2.951 3.391 2.754 4.063 2.688 C 4.584 2.636 5.103 2.591 5.625 2.594 Z " stroke-width="1"/>
</svg>