<svg xmlns="http://www.w3.org/2000/svg" xmlns:xlink="http://www.w3.org/1999/xlink" version="1.1" width="14.218999862670898" height="15.316954612731934" viewBox="-0.4309999942779541 0.24798458814620972 14.218999862670898 15.316954612731934">
  <!-- Exported by Scratch - http://scratch.mit.edu/ -->
  <path id="path6035" fill="#ff2a2a" stroke="none" d="M 0.069 0.75 L 0.069 15.063 L 7.944 15.063 C 9.257 15.088 10.328 14.872 11.194 14.375 C 12.06 13.879 12.66 12.949 12.975 11.625 C 13.075 11.168 13.136 10.657 13.194 10.063 C 13.251 9.468 13.286 8.834 13.288 8.188 L 13.288 7.938 C 13.287 7.281 13.279 6.643 13.225 6.031 C 13.171 5.419 13.083 4.896 12.975 4.438 C 12.636 3.016 12.017 2.033 11.131 1.5 C 10.245 0.967 9.064 0.723 7.6 0.75 L 0.069 0.75 Z M 2.131 2.656 L 7.444 2.656 C 8.252 2.602 8.961 2.746 9.6 3.063 C 10.239 3.379 10.698 4.191 10.975 5.531 C 11.038 5.878 11.097 6.269 11.131 6.688 C 11.165 7.106 11.162 7.532 11.163 7.969 C 11.162 8.394 11.158 8.809 11.131 9.219 C 11.104 9.629 11.06 10.012 11.006 10.375 C 10.819 11.499 10.46 12.243 9.913 12.625 C 9.365 13.007 8.619 13.184 7.694 13.156 L 2.131 13.156 L 2.131 2.656 Z " stroke-width="1"/>
</svg>