<svg xmlns="http://www.w3.org/2000/svg" xmlns:xlink="http://www.w3.org/1999/xlink" version="1.1" width="11.631006240844727" height="15.343000411987305" viewBox="-0.3439999967813492 0.4380000829696655 11.631006240844727 15.343000411987305">
  <!-- Exported by Scratch - http://scratch.mit.edu/ -->
  <path id="path5637" fill="#ff2a2a" stroke="none" d="M 5.719 0.938 C 5.381 0.938 5.051 0.951 4.75 0.969 C 4.448 0.987 4.211 0.995 4 1.031 C 3.465 1.124 3.056 1.29 2.781 1.5 C 2.507 1.71 2.269 1.959 2.094 2.25 L 2.125 1.219 L 0.156 1.219 L 0.156 15.281 L 2.125 15.281 L 2.125 10.938 C 2.327 11.248 2.56 11.459 2.844 11.625 C 3.127 11.791 3.488 11.924 3.906 12 C 4.138 12.045 4.43 12.069 4.781 12.094 C 5.133 12.119 5.49 12.156 5.875 12.156 C 6.212 12.156 6.542 12.143 6.844 12.125 C 7.145 12.107 7.382 12.067 7.594 12.031 C 8.638 11.875 9.411 11.535 9.875 10.969 C 10.339 10.403 10.628 9.649 10.719 8.719 C 10.754 8.438 10.768 8.112 10.781 7.781 C 10.794 7.451 10.782 7.103 10.781 6.75 C 10.782 6.331 10.77 5.937 10.75 5.531 C 10.73 5.126 10.701 4.767 10.656 4.438 C 10.533 3.455 10.215 2.634 9.688 2.031 C 9.159 1.429 8.406 1.092 7.438 1 C 7.225 0.981 6.961 0.983 6.656 0.969 C 6.351 0.955 6.048 0.938 5.719 0.938 Z M 5.469 2.688 L 5.688 2.688 C 5.994 2.688 6.299 2.725 6.594 2.75 C 6.889 2.775 7.11 2.798 7.281 2.844 C 7.727 2.967 8.052 3.201 8.281 3.531 C 8.511 3.861 8.682 4.254 8.75 4.719 C 8.785 4.949 8.8 5.207 8.813 5.531 C 8.825 5.856 8.844 6.206 8.844 6.563 C 8.844 6.89 8.823 7.204 8.813 7.5 C 8.802 7.796 8.777 8.062 8.75 8.281 C 8.697 8.744 8.568 9.138 8.375 9.469 C 8.182 9.799 7.887 10.039 7.438 10.188 C 7.247 10.242 6.98 10.28 6.656 10.313 C 6.333 10.345 6.013 10.374 5.688 10.375 L 5.469 10.375 C 5.141 10.376 4.834 10.354 4.5 10.313 C 4.166 10.271 3.832 10.192 3.531 10.094 C 3.352 10.031 3.199 9.96 3.063 9.875 C 2.926 9.79 2.817 9.679 2.719 9.563 C 2.637 9.463 2.561 9.372 2.5 9.25 C 2.439 9.128 2.38 8.98 2.344 8.844 C 2.248 8.5 2.184 8.131 2.156 7.719 C 2.128 7.307 2.13 6.938 2.125 6.594 C 2.124 6.278 2.112 5.969 2.125 5.656 C 2.138 5.343 2.184 5.025 2.219 4.719 C 2.268 4.181 2.387 3.77 2.594 3.469 C 2.8 3.168 3.153 2.94 3.688 2.844 C 3.978 2.79 4.29 2.777 4.594 2.75 C 4.897 2.723 5.178 2.688 5.469 2.688 Z " stroke-width="1"/>
</svg>