<svg xmlns="http://www.w3.org/2000/svg" xmlns:xlink="http://www.w3.org/1999/xlink" version="1.1" width="14.00311279296875" height="16" viewBox="36.59088897705078 821.93798828125 14.00311279296875 16">
  <!-- Exported by Scratch - http://scratch.mit.edu/ -->
  <path id="path3567" fill="#ff2a2a" stroke="none" d="M 43.719 822.438 C 43.273 822.438 42.832 822.453 42.406 822.469 C 41.981 822.485 41.597 822.504 41.25 822.531 C 40.332 822.588 39.548 822.803 38.875 823.188 C 38.202 823.572 37.739 824.223 37.531 825.125 C 37.496 825.291 37.483 825.472 37.469 825.688 C 37.454 825.903 37.445 826.124 37.438 826.344 C 37.437 826.536 37.429 826.716 37.438 826.906 C 37.446 827.096 37.482 827.29 37.5 827.438 C 37.551 827.895 37.726 828.295 38.031 828.688 C 38.336 829.08 38.824 829.392 39.531 829.625 C 38.836 829.814 38.334 830.111 37.969 830.5 C 37.604 830.889 37.361 831.327 37.25 831.813 C 37.205 832.021 37.15 832.257 37.125 832.5 C 37.1 832.743 37.094 832.996 37.094 833.25 C 37.094 833.368 37.087 833.473 37.094 833.594 C 37.101 833.714 37.116 833.828 37.125 833.938 C 37.152 834.245 37.211 834.543 37.281 834.813 C 37.351 835.082 37.423 835.322 37.531 835.531 C 37.839 836.101 38.319 836.53 38.938 836.813 C 39.556 837.094 40.268 837.247 41.063 837.313 C 41.42 837.349 41.818 837.388 42.281 837.406 C 42.744 837.424 43.226 837.438 43.719 837.438 C 44.239 837.437 44.732 837.431 45.219 837.406 C 45.705 837.381 46.133 837.327 46.5 837.281 C 47.443 837.171 48.24 836.897 48.844 836.469 C 49.447 836.041 49.822 835.367 50 834.438 C 50.035 834.221 50.05 834.029 50.063 833.813 C 50.075 833.596 50.094 833.372 50.094 833.156 C 50.085 832.884 50.062 832.61 50.031 832.344 C 50 832.078 49.968 831.821 49.906 831.594 C 49.779 831.122 49.54 830.718 49.188 830.375 C 48.835 830.032 48.324 829.768 47.656 829.594 C 48.314 829.397 48.781 829.116 49.094 828.75 C 49.407 828.384 49.615 828.002 49.688 827.563 C 49.715 827.417 49.734 827.235 49.75 827.063 C 49.766 826.89 49.781 826.713 49.781 826.531 C 49.784 826.39 49.765 826.279 49.75 826.156 C 49.735 825.775 49.694 825.394 49.625 825.031 C 49.444 824.207 49.041 823.622 48.406 823.25 C 47.771 822.878 47.021 822.639 46.156 822.563 C 45.81 822.526 45.418 822.492 45 822.469 C 44.581 822.446 44.155 822.438 43.719 822.438 Z M 42.625 824.219 C 42.966 824.208 43.322 824.218 43.688 824.219 C 44.062 824.219 44.407 824.201 44.75 824.219 C 45.093 824.237 45.408 824.277 45.656 824.313 C 46.175 824.373 46.572 824.477 46.875 824.625 C 47.178 824.773 47.408 824.983 47.531 825.25 C 47.602 825.404 47.655 825.553 47.688 825.719 C 47.72 825.884 47.711 826.056 47.719 826.219 L 47.719 826.5 C 47.718 826.628 47.726 826.751 47.719 826.875 C 47.712 826.999 47.697 827.095 47.688 827.188 C 47.596 827.708 47.366 828.089 46.969 828.313 C 46.571 828.536 46.077 828.666 45.5 828.719 C 45.294 828.744 45.024 828.774 44.688 828.781 C 44.351 828.789 43.993 828.774 43.625 828.781 C 43.313 828.782 43.035 828.783 42.75 828.781 C 42.465 828.779 42.217 828.79 42.031 828.781 C 41.414 828.765 40.864 828.643 40.375 828.438 C 39.886 828.232 39.586 827.816 39.5 827.188 C 39.491 827.114 39.476 827.014 39.469 826.906 C 39.462 826.799 39.469 826.713 39.469 826.594 L 39.469 826.406 C 39.47 826.286 39.488 826.183 39.5 826.063 C 39.512 825.943 39.521 825.834 39.531 825.75 C 39.6 825.367 39.793 825.043 40.125 824.781 C 40.457 824.52 41.006 824.359 41.75 824.281 C 41.999 824.255 42.284 824.23 42.625 824.219 Z M 42.688 830.531 C 42.975 830.524 43.306 830.532 43.625 830.531 C 43.991 830.531 44.319 830.523 44.656 830.531 C 44.993 830.54 45.3 830.544 45.531 830.563 C 46.036 830.578 46.506 830.689 46.969 830.875 C 47.431 831.061 47.747 831.405 47.938 831.906 C 47.983 832.063 48.037 832.261 48.063 832.469 C 48.088 832.677 48.093 832.874 48.094 833.094 C 48.094 833.231 48.103 833.358 48.094 833.5 C 48.085 833.642 48.049 833.787 48.031 833.906 C 47.931 834.451 47.694 834.828 47.313 835.063 C 46.931 835.297 46.479 835.454 45.938 835.531 C 45.686 835.568 45.358 835.602 44.969 835.625 C 44.58 835.648 44.173 835.656 43.75 835.656 C 43.292 835.657 42.855 835.669 42.438 835.656 C 42.02 835.644 41.684 835.629 41.406 835.594 C 40.999 835.552 40.627 835.467 40.313 835.344 C 39.998 835.221 39.731 835.021 39.531 834.781 C 39.43 834.646 39.353 834.491 39.281 834.313 C 39.21 834.134 39.176 833.935 39.156 833.719 C 39.147 833.618 39.132 833.525 39.125 833.406 C 39.118 833.288 39.125 833.15 39.125 833.031 C 39.125 832.868 39.114 832.71 39.125 832.563 C 39.136 832.415 39.161 832.306 39.188 832.188 C 39.309 831.621 39.588 831.212 40.063 830.969 C 40.537 830.726 41.191 830.589 41.969 830.563 C 42.179 830.553 42.4 830.538 42.688 830.531 Z " stroke-width="1"/>
</svg>