<svg xmlns="http://www.w3.org/2000/svg" xmlns:xlink="http://www.w3.org/1999/xlink" version="1.1" width="11.906000137329102" height="14.718184471130371" viewBox="-0.42499998956918716 -0.31199999153614044 11.906000137329102 14.718184471130371">
  <!-- Exported by Scratch - http://scratch.mit.edu/ -->
  <path id="path5905" fill="#ff2a2a" stroke="none" d="M 0.075 0.188 L 4.731 10.188 L 4.325 11.031 C 4.11 11.471 3.822 11.781 3.481 11.938 C 3.141 12.094 2.795 12.166 2.419 12.156 C 2.342 12.157 2.152 12.139 1.825 12.125 C 1.498 12.11 1.11 12.075 0.7 12.031 L 0.7 13.781 C 1.091 13.817 1.424 13.857 1.7 13.875 C 1.976 13.893 2.23 13.906 2.45 13.906 C 3.255 13.912 3.942 13.771 4.481 13.5 C 5.02 13.229 5.457 12.803 5.794 12.188 C 5.88 12.038 5.964 11.853 6.075 11.656 C 6.186 11.459 6.279 11.27 6.356 11.094 L 10.981 0.219 L 8.731 0.219 L 5.669 8.125 L 2.325 0.188 L 0.075 0.188 Z " stroke-width="1"/>
</svg>