<svg xmlns="http://www.w3.org/2000/svg" xmlns:xlink="http://www.w3.org/1999/xlink" version="1.1" width="8.813000202178955" height="14.69155502319336" viewBox="-0.5 0 8.813000202178955 14.69155502319336">
  <!-- Exported by Scratch - http://scratch.mit.edu/ -->
  <path id="path5775" fill="#ff2a2a" stroke="none" d="M 2.375 0.5 L 2.375 3.188 L 0 3.188 L 0 4.969 L 2.375 4.969 L 2.375 11.188 C 2.384 12.295 2.714 13.083 3.344 13.531 C 3.974 13.979 4.857 14.187 6 14.188 C 6.304 14.188 6.619 14.196 6.969 14.188 C 7.318 14.178 7.616 14.174 7.813 14.156 L 7.813 12.313 C 7.61 12.331 7.357 12.361 7.094 12.375 C 6.83 12.389 6.578 12.374 6.313 12.375 L 6.063 12.375 C 5.418 12.375 4.961 12.27 4.719 12.063 C 4.477 11.855 4.363 11.442 4.375 10.813 L 4.375 4.969 L 7.781 4.969 L 7.781 3.188 L 4.406 3.188 L 4.406 0.5 L 2.375 0.5 Z " stroke-width="1"/>
</svg>