<svg xmlns="http://www.w3.org/2000/svg" xmlns:xlink="http://www.w3.org/1999/xlink" version="1.1" width="11.62507152557373" height="12.3197660446167" viewBox="-0.37507178634405136 -0.50031559728086 11.62507152557373 12.3197660446167">
  <!-- Exported by Scratch - http://scratch.mit.edu/ -->
  <path id="path5247" fill="#ff2a2a" stroke="none" d="M 5.313 0 C 4.876 0 4.482 0.027 4.125 0.063 C 3.768 0.098 3.431 0.147 3.094 0.219 C 2.353 0.374 1.763 0.662 1.344 1.094 C 0.925 1.525 0.691 2.047 0.625 2.625 C 0.61 2.823 0.622 2.968 0.625 3.094 L 2.656 3.094 L 2.656 2.969 C 2.653 2.879 2.673 2.809 2.688 2.719 C 2.74 2.512 2.824 2.324 2.969 2.188 C 3.113 2.051 3.335 1.947 3.594 1.875 C 3.864 1.804 4.16 1.75 4.5 1.719 C 4.84 1.688 5.14 1.687 5.438 1.688 C 5.773 1.685 6.135 1.7 6.5 1.719 C 6.865 1.737 7.183 1.751 7.438 1.813 C 7.925 1.937 8.238 2.136 8.375 2.406 C 8.511 2.677 8.579 2.981 8.563 3.313 L 8.563 4.281 C 8.451 4.287 8.075 4.322 7.438 4.344 C 6.8 4.365 6.101 4.371 5.344 4.406 C 4.587 4.442 3.972 4.483 3.5 4.531 C 2.774 4.603 2.154 4.764 1.688 5 C 1.221 5.236 0.874 5.564 0.625 5.969 C 0.47 6.242 0.34 6.567 0.25 6.938 C 0.16 7.308 0.127 7.65 0.125 7.969 C 0.123 8.333 0.163 8.643 0.219 8.938 C 0.275 9.232 0.358 9.529 0.5 9.813 C 0.754 10.299 1.119 10.661 1.594 10.875 C 2.068 11.089 2.596 11.205 3.156 11.25 C 3.384 11.277 3.645 11.302 3.938 11.313 C 4.23 11.323 4.517 11.313 4.844 11.313 C 5.171 11.314 5.496 11.327 5.813 11.313 C 6.129 11.298 6.423 11.263 6.688 11.219 C 7.142 11.145 7.536 11.02 7.875 10.875 C 8.214 10.73 8.481 10.575 8.656 10.375 C 8.682 10.506 8.693 10.617 8.719 10.719 C 8.744 10.82 8.8 10.941 8.844 11.063 L 10.75 11.063 C 10.625 10.649 10.558 10.277 10.5 9.906 C 10.442 9.535 10.405 9.176 10.406 8.844 L 10.406 3.469 C 10.41 3.162 10.405 2.885 10.375 2.594 C 10.345 2.302 10.269 2.012 10.156 1.75 C 9.924 1.245 9.578 0.87 9.156 0.625 C 8.735 0.381 8.27 0.23 7.75 0.156 C 7.343 0.087 6.943 0.046 6.531 0.031 C 6.119 0.016 5.702 -0.003 5.313 0 Z M 8.563 5.969 L 8.563 7.688 C 8.576 8.217 8.464 8.605 8.219 8.875 C 7.973 9.145 7.506 9.358 6.844 9.5 C 6.596 9.554 6.342 9.598 6.031 9.625 C 5.721 9.652 5.382 9.656 5.063 9.656 C 4.809 9.655 4.577 9.64 4.344 9.625 C 4.11 9.611 3.91 9.612 3.719 9.594 C 3.289 9.542 2.94 9.441 2.688 9.313 C 2.435 9.184 2.253 9.013 2.156 8.781 C 2.111 8.671 2.088 8.541 2.063 8.406 C 2.037 8.272 2 8.137 2 8 C 2.003 7.745 2.037 7.514 2.094 7.313 C 2.203 6.924 2.445 6.639 2.781 6.469 C 3.118 6.298 3.495 6.194 3.938 6.156 C 4.596 6.086 5.406 6.027 6.344 6 C 7.281 5.973 8.012 5.976 8.563 5.969 Z " stroke-width="1"/>
</svg>