<svg xmlns="http://www.w3.org/2000/svg" xmlns:xlink="http://www.w3.org/1999/xlink" version="1.1" width="16.562999725341797" height="11.875" viewBox="-0.46899999864399433 -0.31199999153614044 16.562999725341797 11.875">
  <!-- Exported by Scratch - http://scratch.mit.edu/ -->
  <path id="path5853" fill="#ff2a2a" stroke="none" d="M 0.031 0.188 L 2.906 11.063 L 5.531 11.063 L 7.125 4.563 C 7.143 4.481 7.22 4.232 7.313 3.813 C 7.405 3.393 7.503 2.957 7.594 2.531 C 7.684 2.106 7.706 1.85 7.719 1.75 C 7.722 1.714 7.76 1.688 7.781 1.688 C 7.817 1.688 7.812 1.714 7.813 1.75 C 7.825 1.848 7.878 2.089 7.969 2.5 C 8.06 2.911 8.155 3.337 8.25 3.75 C 8.345 4.163 8.413 4.427 8.438 4.531 L 10.063 11.063 L 12.688 11.063 L 15.594 0.219 L 13.594 0.219 L 12.031 6.5 C 11.979 6.717 11.905 7.048 11.813 7.5 C 11.72 7.952 11.608 8.362 11.531 8.75 C 11.455 9.138 11.442 9.35 11.438 9.375 C 11.419 9.447 11.393 9.5 11.375 9.5 C 11.354 9.5 11.347 9.447 11.344 9.375 C 11.339 9.349 11.27 9.147 11.188 8.75 C 11.105 8.353 11.036 7.924 10.938 7.469 C 10.839 7.013 10.741 6.7 10.688 6.5 L 9.094 0.188 L 6.5 0.188 L 4.969 6.625 C 4.888 6.952 4.793 7.419 4.656 8 C 4.519 8.581 4.402 9.035 4.313 9.406 C 4.292 9.442 4.284 9.469 4.281 9.469 C 4.263 9.468 4.259 9.48 4.25 9.469 C 4.241 9.458 4.219 9.439 4.219 9.438 C 4.149 9.038 4.057 8.566 3.938 8 C 3.818 7.434 3.713 6.957 3.625 6.594 C 3.604 6.495 3.503 6.112 3.344 5.469 C 3.185 4.826 3.015 4.094 2.813 3.281 C 2.61 2.468 2.433 1.765 2.281 1.156 C 2.129 0.547 2.039 0.219 2.031 0.188 L 0.031 0.188 Z " stroke-width="1"/>
</svg>