<svg version="1.1" xmlns="http://www.w3.org/2000/svg" xmlns:xlink="http://www.w3.org/1999/xlink" width="395.3931" height="219" viewBox="0,0,395.3931,219"><g transform="translate(-122.30345,-70.5)"><g data-paper-data="{&quot;isPaintingLayer&quot;:true}" fill="#c5c5c5" fill-rule="nonzero" stroke="none" stroke-width="0" stroke-linecap="butt" stroke-linejoin="miter" stroke-miterlimit="10" stroke-dasharray="" stroke-dashoffset="0" style="mix-blend-mode: normal"><path d="M133.17956,281.18298c0,0 -10.87611,-7.04566 -10.87611,-29.11318c0,-46.48737 0,-122.72915 0,-147.78711c0,-15.78176 14.07496,-26.7452 14.07496,-26.7452c0,0 6.62139,-7.03748 26.12343,-7.03748c44.26024,0 221.87982,0 307.95883,0c28.70931,0 30.60183,8.95679 30.60183,8.95679c0,0 16.63405,12.23877 16.63405,29.94405c0,22.36185 0,80.52531 0,124.75535c0,31.12094 -17.91359,38.70975 -17.91359,38.70975c0,0 -10.49458,16.63405 -36.35977,16.63405c-46.45197,0 -201.40236,0 -285.56684,0c-33.32539,0 -44.6768,-8.31702 -44.6768,-8.31702z"/></g></g></svg>