<svg xmlns="http://www.w3.org/2000/svg" xmlns:xlink="http://www.w3.org/1999/xlink" version="1.1" width="179.43120349121094" height="281.3451591796875" viewBox="0.3035357561111449 1.0242697563171386 179.43120349121094 281.3451591796875">
  <!-- Exported by Scratch - http://scratch.mit.edu/ -->
  <g id="ID0.9006311437115073">
    <g id="XMLID_580_">
      <g id="XMLID_590_">
        <path id="XMLID_592_" fill="#FAA51D" stroke="#414042" stroke-width="2.6695" stroke-linecap="round" stroke-linejoin="round" d="M 81 182.6 C 81 182.6 84.2 184.8 86.8 197.1 C 90.7 211.2 98.5 211.5 106.1 212.4 C 117 212.3 136 215.5 132.5 202.1 C 131 191.2 119.1 190.8 108.5 191.3 C 104 191.3 100.5 177.4 99.2 171.1 C 98.8 169 99.7 167.1 99.1 165.5 C 99.1 165.5 98.1 162.6 91.2 168.7 C 84.3 174.9 78.8 176.7 81 182.6 Z "/>
        <path id="XMLID_591_" fill="none" stroke="#414042" stroke-width="2.6695" stroke-linecap="round" stroke-linejoin="round" d="M 108.5 191.2 L 102.1 191.2 "/>
      </g>
      <g id="XMLID_587_">
        <path id="XMLID_589_" fill="#FAA51D" stroke="#414042" stroke-width="2.6695" stroke-linecap="round" stroke-linejoin="round" d="M 101.4 223.7 C 101.4 223.7 97.2 237.3 99.1 259.2 C 99.9 268.6 117.6 257.9 116.3 276.3 C 115.9 281.5 92.8 281 87.8 279.1 C 83.1 277.3 81.9 275.6 82.7 270.6 C 85.5 252.5 76.4 231.6 76.4 231.6 "/>
        <path id="XMLID_588_" fill="#FAA51D" stroke="#414042" stroke-width="2.6695" stroke-linecap="round" stroke-linejoin="round" d="M 104.1 263.6 C 104.1 263.6 100.8 263.2 97.2 263.9 "/>
      </g>
      <path id="XMLID_585_" fill="#FAA51D" stroke="#414042" stroke-width="2.6695" stroke-linecap="round" stroke-linejoin="round" d="M 103.4 196.6 C 103.4 213.2 107.6 237.7 78.1 237.7 C 48.6 237.7 51.1 215.4 51.1 198.8 C 51.1 182.2 61.2 177.6 78.1 177.6 C 95 177.6 103.4 180 103.4 196.6 Z "/>
      <path id="XMLID_584_" fill="#FFFFFF" d="M 97 203.9 C 97 214.4 99.3 230 83.2 230 C 67.1 230 68.5 215.9 68.5 205.3 C 68.5 194.7 74 191.9 83.2 191.9 C 92.4 191.9 97 193.4 97 203.9 Z " stroke-width="1"/>
      <g id="XMLID_581_">
        <path id="XMLID_583_" fill="#FAA51D" stroke="#414042" stroke-width="2.6695" stroke-linecap="round" stroke-linejoin="round" d="M 53.2 223.7 C 53.2 223.7 59.8 237.3 56.5 259.1 C 55.1 268.5 41.1 257 42 275.7 C 42.3 281.9 61 281.4 66.5 280.5 C 71.8 279.6 73.7 276.7 73.3 271.6 C 72.5 261.3 76.2 238.5 76.2 238.5 "/>
        <path id="XMLID_582_" fill="#FAA51D" stroke="#414042" stroke-width="2.6695" stroke-linecap="round" stroke-linejoin="round" d="M 50.6 263.5 C 50.6 263.5 54.5 263 58.1 263.9 "/>
      </g>
    </g>
    <g id="XMLID_576_">
      <path id="XMLID_579_" fill="#FAA51D" d="M 59.1 182.9 L 54.2 199.9 L 31.3 201.6 L 35.9 192.7 L 59.1 182.9 " stroke-width="1"/>
      <path id="XMLID_578_" fill="#FAA51D" stroke="#414042" stroke-width="2.6695" stroke-linecap="round" stroke-linejoin="round" d="M 66.2 181.9 C 63.5 168.7 52.1 176.5 46.7 181.9 C 42.4 186.3 37.6 191.1 35.9 192.7 "/>
      <path id="XMLID_577_" fill="#FAA51D" stroke="#414042" stroke-width="2.6695" stroke-linecap="round" stroke-linejoin="round" d="M 53.8 199.2 C 56.6 201.7 63.8 205.8 67.5 211.7 C 71.8 218.5 68.4 227.9 60.8 230.2 C 53.9 232.2 47.7 224.7 36.1 210.8 C 32.8 206.8 31.8 201.2 33.9 196.5 C 33.9 196.4 34 196.4 34 196.3 C 36 191.8 39.3 187.9 43.1 184.7 L 51.7 177.6 "/>
    </g>
    <g id="ID0.6486767921596766">
      <path id="ID0.5556135452352464" fill="none" stroke="#FFF200" stroke-width="2.6695" stroke-linecap="round" stroke-linejoin="round" d="M 59.4 3.1 C 59.4 3.1 52.3 -0.1 49.2 6.8 C 49.2 6.8 44.5 4.1 42.6 9.5 "/>
      <path id="ID0.20005974872037768" fill="#F9A41E" d="M 66.7 57.8 C 55.3 58.2 45.4 63.4 45.4 63.4 L 12.2 40.3 L 16.6 87 C 16.6 87 3.2 96.9 1.7 124.6 C 0.1 155.4 29.8 180.4 68.8 184 C 120.4 188.7 160.5 166.4 156.7 132.4 C 154.7 114.7 141.2 113 141.2 113 C 141.2 113 142.4 101.4 134.6 87.2 C 126.8 73 114.5 66.9 114.5 66.9 L 108.1 38.3 L 87.6 58.8 C 87.7 58.8 78.1 57.3 66.7 57.8 Z " stroke-width="1"/>
      <path id="ID0.3569061979651451" fill="#FFFFFF" d="M 98 124.6 C 80 128 34.9 108.8 27 138.3 C 18.3 170.7 44.7 181.7 69 184 C 142.5 190.7 160.6 151.3 156.9 132.4 C 154.2 118.2 149.3 114.5 141.4 113 C 122.9 109.5 116 121.3 98 124.6 Z " stroke-width="1"/>
      <path id="ID0.526694621425122" fill="none" stroke="#414042" stroke-width="2.6695" stroke-linecap="round" stroke-linejoin="round" d="M 150.1 125.3 C 150.1 125.3 161.4 123.7 167.1 121.9 C 173.8 119.7 178.4 115.9 178.4 115.9 "/>
      <path id="ID0.41138789476826787" fill="none" stroke="#414042" stroke-width="2.6695" stroke-linecap="round" stroke-linejoin="round" d="M 150.9 139.9 C 150.9 139.9 157.6 142.8 164.5 143.6 C 171.3 144.4 175.9 144.1 175.9 144.1 "/>
      <path id="ID0.48148632561787963" fill="none" stroke="#414042" stroke-width="2.6695" stroke-linecap="round" stroke-linejoin="round" d="M 41.2 60.5 L 50.5 67.4 "/>
      <path id="ID0.18435269687324762" fill="none" stroke="#414042" stroke-width="2.6695" stroke-linecap="round" stroke-linejoin="round" d="M 66.7 57.8 C 55.3 58.2 45.4 63.4 45.4 63.4 L 12.2 40.3 L 16.6 87 C 16.6 87 3.2 96.9 1.7 124.6 C 0.1 155.4 29.8 180.4 68.8 184 C 120.4 188.7 160.5 166.4 156.7 132.4 C 154.7 114.7 141.2 113 141.2 113 C 141.2 113 142.4 101.4 134.6 87.2 C 126.8 73 114.5 66.9 114.5 66.9 L 108.1 38.3 L 87.6 58.8 C 87.7 58.8 78.1 57.3 66.7 57.8 Z "/>
      <path id="ID0.926620474550873" fill="none" stroke="#414042" stroke-width="2.6695" stroke-linecap="round" stroke-linejoin="round" d="M 24.2 147.3 C 24.2 147.3 34.4 147.2 38.9 146.5 C 43.4 145.8 52.2 143.7 52.2 143.7 "/>
      <path id="ID0.1524629257619381" fill="none" stroke="#414042" stroke-width="2.6695" stroke-linecap="round" stroke-linejoin="round" d="M 51.8 134 C 51.8 134 45.5 130.2 36 127.1 C 25.4 123.6 19.7 123 19.7 123 "/>
      <path id="ID0.35561860259622335" fill="#FFFFFF" stroke="#414042" stroke-width="2.6695" stroke-linecap="round" stroke-linejoin="round" d="M 129.3 87.4 C 136.3 98.6 136.2 111.2 129.3 115.5 C 122.3 119.8 111 114.3 104.1 103.1 C 97.1 91.9 97.2 79.3 104.1 75 C 111 70.6 122.3 76.2 129.3 87.4 Z "/>
      <path id="ID0.6399350631982088" fill="#414042" d="M 120.1 95.6 C 120.8 98.5 119.3 101.4 116.6 102.1 C 113.9 102.8 111.1 101 110.4 98.1 C 109.7 95.2 111.2 92.3 113.9 91.6 C 116.6 90.9 119.4 92.7 120.1 95.6 " stroke-width="1"/>
      <path id="ID0.9882345013320446" fill="#FFFFFF" stroke="#414042" stroke-width="2.6695" stroke-linecap="round" stroke-linejoin="round" d="M 70 94.1 C 77 105.3 75.9 118.5 67.6 123.7 C 59.3 128.8 47 123.9 40 112.7 C 33 101.5 34.1 88.3 42.3 83.1 C 50.7 78 63 82.9 70 94.1 Z "/>
      <path id="ID0.6241802214644849" fill="#414042" d="M 60.5 104.1 C 60.4 107.2 58.1 109.6 55.2 109.6 C 52.4 109.5 50.1 107 50.2 103.9 C 50.3 100.8 52.6 98.4 55.5 98.4 C 58.3 98.4 60.5 101 60.5 104.1 " stroke-width="1"/>
      <path id="ID0.41168853221461177" fill="#414042" stroke="#414042" stroke-width="2.6695" stroke-linecap="round" stroke-linejoin="round" d="M 96.2 119 C 100.5 118.6 107.7 116.4 108.4 121.2 C 108.5 123.3 104.2 131.6 99.4 131.8 C 94.3 132 85.7 126.4 86 122.6 C 86.4 118.7 92.4 119.3 96.2 119 Z "/>
      <path id="ID0.8593598632141948" fill="#9966FF" d="M 35.5 56.5 L 49.2 6.7 L 87.7 58.8 C 87.7 58.8 65.6 54.5 45.4 63.4 L 35.5 56.5 Z " stroke-width="1"/>
      <path id="ID0.6827222430147231" fill="none" stroke="#414042" stroke-width="2.6695" stroke-linecap="round" stroke-linejoin="round" d="M 16.7 87.1 C 16.7 87.1 -11.3 181.2 91.2 184.4 "/>
      <path id="ID0.8173488611355424" fill="none" stroke="#414042" stroke-width="2.6695" stroke-linecap="round" stroke-linejoin="round" d="M 88.7 184.5 C 88.7 184.5 75.7 182.3 74.3 188.8 C 72.8 195.3 88.1 192.9 88.7 184.5 Z "/>
      <path id="ID0.07746181078255177" fill="none" stroke="#414042" stroke-width="2.6695" stroke-linecap="round" stroke-linejoin="round" d="M 88.7 184.5 C 88.7 184.5 101.7 182.3 103.1 188.8 C 104.5 195.3 89.2 192.9 88.7 184.5 Z "/>
      <path id="ID0.1106675760820508" fill="#FFF200" d="M 65.8 29.2 C 64.7 30.2 63.2 30.8 61.6 30.8 C 58.1 30.8 55.3 28 55.3 24.5 C 55.3 22.2 56.5 20.2 58.3 19.1 L 65.8 29.2 Z " stroke-width="1"/>
      <path id="ID0.5852768188342452" fill="#FFF200" d="M 48.1 35.8 C 48.1 39.3 45.3 42.1 41.8 42.1 C 41 42.1 40.3 42 39.6 41.7 L 42.9 29.6 C 45.9 30.1 48.1 32.7 48.1 35.8 Z " stroke-width="1"/>
      <path id="ID0.32971443701535463" fill="#FFF200" d="M 61.3 38.3 C 63.038 38.3 64.613 39.006 65.754 40.146 C 66.894 41.287 67.6 42.862 67.6 44.6 C 67.6 46.338 66.894 47.913 65.754 49.054 C 64.613 50.194 63.038 50.9 61.3 50.9 C 59.562 50.9 57.987 50.194 56.846 49.054 C 55.706 47.913 55 46.338 55 44.6 C 55 42.862 55.706 41.287 56.846 40.146 C 57.987 39.006 59.562 38.3 61.3 38.3 Z " stroke-width="1"/>
      <path id="ID0.19881868408992887" fill="#FFF200" d="M 50.5 60.5 C 50.5 60.8 50.5 61.1 50.4 61.5 C 48.7 62.1 47.1 62.7 45.4 63.4 L 38.3 58.4 C 39.1 55.9 41.5 54.2 44.2 54.2 C 47.7 54.2 50.5 57 50.5 60.5 Z " stroke-width="1"/>
      <path id="ID0.8381105088628829" fill="#FFF200" d="M 87.7 58.8 C 87.7 58.8 83.6 58 77.4 57.8 C 77.2 57.2 77 56.5 77 55.7 C 77 53 78.7 50.7 81 49.8 L 87.7 58.8 Z " stroke-width="1"/>
      <path id="ID0.13043198874220252" fill="none" stroke="#414042" stroke-width="2.6695" stroke-linecap="round" stroke-linejoin="round" d="M 35.5 56.5 L 49.2 6.7 L 87.7 58.8 C 87.7 58.8 65.6 54.5 45.4 63.4 L 35.5 56.5 Z "/>
      <g id="ID0.23479815432801843">
        <g id="ID0.5597924557514489">
          <g id="ID0.9239969267509878">
            <path id="ID0.9903484615497291" fill="#FFFFFF" stroke="#414042" stroke-width="2.6695" stroke-linecap="round" stroke-linejoin="round" d="M 121.2 155.3 L 107.3 153.2 L 107.3 147.6 L 121.2 145.5 L 121.2 155.3 "/>
            <path id="ID0.2976735052652657" fill="#FFFFFF" stroke="#414042" stroke-width="2.6695" stroke-linecap="round" stroke-linejoin="round" d="M 100.9 140.9 C 106.7 138.1 113 146.2 105.2 150.3 "/>
            <path id="ID0.3244764218106866" fill="#FFFFFF" stroke="#414042" stroke-width="2.6695" stroke-linecap="round" stroke-linejoin="round" d="M 100.9 159.8 C 106.7 162.6 113 154.5 105.2 150.4 "/>
            <path id="ID0.3565218783915043" fill="#9966FF" d="M 168.9 136.2 L 168.9 164.6 L 121.2 155.3 C 120.2 155.3 119.5 153.1 119.5 150.4 C 119.5 147.7 120.3 145.5 121.2 145.5 L 168.9 136.2 Z " stroke-width="1"/>
            <path id="ID0.11828841967508197" fill="#FFF200" d="M 138.7 142.1 C 138.7 142.1 132.8 151.1 141.9 159 L 148.5 160.5 C 148.5 160.5 137.8 150.7 145.5 140.8 L 138.7 142.1 Z " stroke-width="1"/>
            <path id="ID0.33087138971313834" fill="#FFF200" d="M 152.4 139.4 C 152.4 139.4 144.5 150.4 153.5 161.6 L 160.7 163 C 160.7 163 149.9 149 159.2 138.1 L 152.4 139.4 Z " stroke-width="1"/>
            <path id="ID0.5875637670978904" fill="#FFF200" d="M 127.1 144.3 C 127.1 144.3 123 151.9 130 157 L 135.4 158.1 C 135.4 158.1 128.3 151.6 132.1 143.4 L 127.1 144.3 Z " stroke-width="1"/>
            <path id="ID0.9215751537121832" fill="#6F52CC" stroke="#414042" stroke-width="2.6695" stroke-linecap="round" stroke-linejoin="round" d="M 168.9 136.2 C 170.279 136.2 171.529 137.791 172.435 140.362 C 173.34 142.932 173.9 146.482 173.9 150.4 C 173.9 154.318 173.34 157.868 172.435 160.438 C 171.529 163.009 170.279 164.6 168.9 164.6 C 167.521 164.6 166.271 163.009 165.365 160.438 C 164.46 157.868 163.9 154.318 163.9 150.4 C 163.9 146.482 164.46 142.932 165.365 140.362 C 166.271 137.791 167.521 136.2 168.9 136.2 Z "/>
          </g>
          <path id="ID0.9144735229201615" fill="none" stroke="#414042" stroke-width="2.6695" stroke-linecap="round" stroke-linejoin="round" d="M 168.9 164.6 L 121.2 155.3 C 120.2 155.3 119.5 153.1 119.5 150.4 C 119.5 147.7 120.3 145.5 121.2 145.5 L 168.9 136.2 "/>
        </g>
      </g>
    </g>
  </g>
</svg>