<svg xmlns="http://www.w3.org/2000/svg" xmlns:xlink="http://www.w3.org/1999/xlink" version="1.1" width="11.631006240844727" height="15.343037605285645" viewBox="-0.3180064857006073 0.4379621744155884 11.631006240844727 15.343037605285645">
  <!-- Exported by Scratch - http://scratch.mit.edu/ -->
  <path id="path5663" fill="#ff2a2a" stroke="none" d="M 5.188 0.938 C 4.867 0.938 4.57 0.96 4.281 0.969 C 3.992 0.978 3.757 0.982 3.563 1 C 2.586 1.092 1.808 1.429 1.281 2.031 C 0.755 2.634 0.443 3.455 0.313 4.438 C 0.268 4.767 0.239 5.126 0.219 5.531 C 0.199 5.937 0.187 6.331 0.188 6.75 C 0.187 7.103 0.175 7.451 0.188 7.781 C 0.2 8.112 0.246 8.438 0.281 8.719 C 0.381 9.648 0.659 10.375 1.125 10.938 C 1.591 11.5 2.331 11.867 3.375 12.031 C 3.577 12.059 3.838 12.078 4.125 12.094 C 4.412 12.11 4.703 12.125 5.031 12.125 C 5.425 12.125 5.827 12.114 6.188 12.094 C 6.548 12.074 6.821 12.045 7.063 12 C 7.488 11.916 7.843 11.788 8.125 11.625 C 8.407 11.462 8.665 11.247 8.875 10.938 L 8.875 15.281 L 10.813 15.281 L 10.813 1.219 L 8.875 1.219 L 8.875 2.25 C 8.701 1.96 8.49 1.707 8.219 1.5 C 7.948 1.293 7.543 1.132 7 1.031 C 6.787 0.996 6.507 0.982 6.188 0.969 C 5.868 0.956 5.536 0.937 5.188 0.938 Z M 5.313 2.688 L 5.5 2.688 C 5.79 2.688 6.102 2.723 6.406 2.75 C 6.71 2.777 6.991 2.79 7.281 2.844 C 7.808 2.94 8.197 3.168 8.406 3.469 C 8.616 3.77 8.731 4.181 8.781 4.719 C 8.816 5.025 8.836 5.343 8.844 5.656 C 8.851 5.969 8.845 6.278 8.844 6.594 C 8.838 6.938 8.838 7.307 8.813 7.719 C 8.787 8.131 8.743 8.5 8.656 8.844 C 8.57 9.15 8.407 9.418 8.219 9.625 C 8.031 9.832 7.798 9.986 7.469 10.094 C 7.167 10.192 6.837 10.271 6.5 10.313 C 6.162 10.354 5.819 10.376 5.5 10.375 L 5.313 10.375 C 4.987 10.374 4.667 10.345 4.344 10.313 C 4.02 10.28 3.753 10.242 3.563 10.188 C 3.113 10.039 2.792 9.799 2.594 9.469 C 2.396 9.138 2.273 8.744 2.219 8.281 C 2.192 8.07 2.167 7.817 2.156 7.531 C 2.145 7.246 2.156 6.935 2.156 6.625 C 2.156 6.259 2.138 5.933 2.156 5.594 C 2.174 5.255 2.214 4.959 2.25 4.719 C 2.317 4.254 2.458 3.861 2.688 3.531 C 2.917 3.201 3.273 2.967 3.719 2.844 C 3.89 2.798 4.111 2.775 4.406 2.75 C 4.701 2.725 5.006 2.688 5.313 2.688 Z " stroke-width="1"/>
</svg>