<svg xmlns="http://www.w3.org/2000/svg" xmlns:xlink="http://www.w3.org/1999/xlink" version="1.1" width="230.1312156982422" height="271.3451591796875" viewBox="0.3035357561111449 1.0242697563171386 230.1312156982422 271.3451591796875">
  <!-- Exported by Scratch - http://scratch.mit.edu/ -->
  <g id="ID0.8997339294292033">
    <g id="XMLID_593_">
      <path id="XMLID_595_" fill="#FAA51D" stroke="#414042" stroke-width="2.6695" stroke-linecap="round" stroke-linejoin="round" d="M 72.7 199.7 C 72.7 199.7 76.6 199.5 86.1 207.6 C 97.8 216.4 104.1 211.8 110.7 207.8 C 119.3 201 136.2 191.9 125.2 183.4 C 117.3 175.7 107.6 182.7 99.6 189.6 C 96 192.3 84.7 183.5 79.8 179.4 C 78.2 178 77.8 176 76.3 175.1 C 76.3 175.1 73.7 173.4 72.1 182.5 C 70.5 191.6 67.3 196.4 72.7 199.7 Z "/>
      <path id="XMLID_594_" fill="none" stroke="#414042" stroke-width="2.6695" stroke-linecap="round" stroke-linejoin="round" d="M 99.7 189.6 L 94.6 193.5 "/>
    </g>
    <g id="XMLID_573_">
      <path id="XMLID_575_" fill="#FAA51D" stroke="#414042" stroke-width="2.6695" stroke-linecap="round" stroke-linejoin="round" d="M 101.4 213.7 C 101.4 213.7 97.2 227.3 99.1 249.2 C 99.9 258.6 117.6 247.9 116.3 266.3 C 115.9 271.5 92.8 271 87.8 269.1 C 83.1 267.3 81.9 265.6 82.7 260.6 C 85.5 242.5 76.4 221.6 76.4 221.6 "/>
      <path id="XMLID_574_" fill="#FAA51D" stroke="#414042" stroke-width="2.6695" stroke-linecap="round" stroke-linejoin="round" d="M 104.1 253.6 C 104.1 253.6 100.8 253.2 97.2 253.9 "/>
    </g>
    <path id="XMLID_571_" fill="#FAA51D" stroke="#414042" stroke-width="2.6695" stroke-linecap="round" stroke-linejoin="round" d="M 103.4 196.6 C 103.4 213.2 107.6 237.7 78.1 237.7 C 48.6 237.7 61.1 215.4 61.1 198.8 C 61.1 182.2 61.2 177.6 78.1 177.6 C 95 177.6 103.4 180 103.4 196.6 Z "/>
    <path id="XMLID_570_" fill="#FFFFFF" d="M 97 203.9 C 97 214.4 99.3 230 83.2 230 C 67.1 230 68.5 215.9 68.5 205.3 C 68.5 194.7 74 191.9 83.2 191.9 C 92.4 191.9 97 193.4 97 203.9 Z " stroke-width="1"/>
    <g id="XMLID_567_">
      <path id="XMLID_566_" fill="#FAA51D" stroke="#414042" stroke-width="2.6695" stroke-linecap="round" stroke-linejoin="round" d="M 53.2 213.7 C 53.2 213.7 59.8 227.3 56.5 249.1 C 55.1 258.5 41.1 247 42 265.7 C 42.3 271.9 61 271.4 66.5 270.5 C 71.8 269.6 73.7 266.7 73.3 261.6 C 72.8 255.2 74 244.1 75 236.6 "/>
      <path id="XMLID_568_" fill="#FAA51D" stroke="#414042" stroke-width="2.6695" stroke-linecap="round" stroke-linejoin="round" d="M 50.6 253.5 C 50.6 253.5 54.5 253 58.1 253.9 "/>
    </g>
    <g id="XMLID_562_">
      <path id="XMLID_565_" fill="#FAA51D" d="M 62 181.2 L 66.4 198.3 L 47.4 211.3 L 46.9 201.4 L 62 181.2 " stroke-width="1"/>
      <path id="XMLID_564_" fill="#FAA51D" stroke="#414042" stroke-width="2.6695" stroke-linecap="round" stroke-linejoin="round" d="M 67.7 176.8 C 58.7 166.8 52.8 179.2 50.9 186.6 C 49.4 192.6 47.6 199.1 47 201.4 "/>
      <path id="XMLID_563_" fill="#FAA51D" stroke="#414042" stroke-width="2.6695" stroke-linecap="round" stroke-linejoin="round" d="M 65.6 197.9 C 69.2 198.7 77.6 198.5 83.8 201.8 C 90.9 205.5 92.8 215.4 87.3 221.2 C 82.3 226.4 73.2 223.1 56.2 216.9 C 51.3 215.1 47.6 210.8 47.1 205.7 C 47.1 205.6 47.1 205.6 47.1 205.5 C 46.6 200.6 47.4 195.6 49.1 190.9 L 52.9 180.4 "/>
    </g>
    <g id="ID0.5868662646971643">
      <path id="ID0.7541561461985111" fill="none" stroke="#FFF200" stroke-width="2.6695" stroke-linecap="round" stroke-linejoin="round" d="M 59.4 3.1 C 59.4 3.1 52.3 -0.1 49.2 6.8 C 49.2 6.8 44.5 4.1 42.6 9.5 "/>
      <path id="ID0.8227825285866857" fill="#F9A41E" d="M 66.7 57.8 C 55.3 58.2 45.4 63.4 45.4 63.4 L 12.2 40.3 L 16.6 87 C 16.6 87 3.2 96.9 1.7 124.6 C 0.1 155.4 29.8 180.4 68.8 184 C 120.4 188.7 160.5 166.4 156.7 132.4 C 154.7 114.7 141.2 113 141.2 113 C 141.2 113 142.4 101.4 134.6 87.2 C 126.8 73 114.5 66.9 114.5 66.9 L 108.1 38.3 L 87.6 58.8 C 87.7 58.8 78.1 57.3 66.7 57.8 Z " stroke-width="1"/>
      <path id="ID0.2945160027593374" fill="#FFFFFF" d="M 98 124.6 C 80 128 34.9 108.8 27 138.3 C 18.3 170.7 44.7 181.7 69 184 C 142.5 190.7 160.6 151.3 156.9 132.4 C 154.2 118.2 149.3 114.5 141.4 113 C 122.9 109.5 116 121.3 98 124.6 Z " stroke-width="1"/>
      <path id="ID0.09459886746481061" fill="none" stroke="#414042" stroke-width="2.6695" stroke-linecap="round" stroke-linejoin="round" d="M 150.1 125.3 C 150.1 125.3 161.4 123.7 167.1 121.9 C 173.8 119.7 178.4 115.9 178.4 115.9 "/>
      <path id="ID0.5856198654510081" fill="none" stroke="#414042" stroke-width="2.6695" stroke-linecap="round" stroke-linejoin="round" d="M 150.9 140 C 150.9 140 157.6 142.9 164.5 143.7 C 171.3 144.5 175.9 144.2 175.9 144.2 "/>
      <path id="ID0.690895214676857" fill="none" stroke="#414042" stroke-width="2.6695" stroke-linecap="round" stroke-linejoin="round" d="M 41.2 60.5 L 50.5 67.4 "/>
      <path id="ID0.10558738419786096" fill="none" stroke="#414042" stroke-width="2.6695" stroke-linecap="round" stroke-linejoin="round" d="M 66.7 57.8 C 55.3 58.2 45.4 63.4 45.4 63.4 L 12.2 40.3 L 16.6 87 C 16.6 87 3.2 96.9 1.7 124.6 C 0.1 155.4 29.8 180.4 68.8 184 C 120.4 188.7 160.5 166.4 156.7 132.4 C 154.7 114.7 141.2 113 141.2 113 C 141.2 113 142.4 101.4 134.6 87.2 C 126.8 73 114.5 66.9 114.5 66.9 L 108.1 38.3 L 87.6 58.8 C 87.7 58.8 78.1 57.3 66.7 57.8 Z "/>
      <path id="ID0.4910522969439626" fill="none" stroke="#414042" stroke-width="2.6695" stroke-linecap="round" stroke-linejoin="round" d="M 24.2 147.3 C 24.2 147.3 34.4 147.2 38.9 146.5 C 43.4 145.8 52.2 143.7 52.2 143.7 "/>
      <path id="ID0.549924239050597" fill="none" stroke="#414042" stroke-width="2.6695" stroke-linecap="round" stroke-linejoin="round" d="M 51.8 134.1 C 51.8 134.1 45.5 130.3 36 127.2 C 25.4 123.7 19.7 123.1 19.7 123.1 "/>
      <path id="ID0.26041108928620815" fill="#FFFFFF" stroke="#414042" stroke-width="2.6695" stroke-linecap="round" stroke-linejoin="round" d="M 129.3 87.4 C 136.3 98.6 136.2 111.2 129.3 115.5 C 122.3 119.8 111 114.3 104.1 103.1 C 97.1 91.9 97.2 79.3 104.1 75 C 111 70.6 122.3 76.2 129.3 87.4 Z "/>
      <path id="ID0.8202054635621607" fill="#414042" d="M 120.1 95.6 C 120.8 98.5 119.3 101.4 116.6 102.1 C 113.9 102.8 111.1 101 110.4 98.1 C 109.7 95.2 111.2 92.3 113.9 91.6 C 116.6 90.9 119.4 92.7 120.1 95.6 " stroke-width="1"/>
      <path id="ID0.06472632428631186" fill="#FFFFFF" stroke="#414042" stroke-width="2.6695" stroke-linecap="round" stroke-linejoin="round" d="M 70 94.1 C 77 105.3 75.9 118.5 67.6 123.7 C 59.3 128.8 47 123.9 40 112.7 C 33 101.5 34.1 88.3 42.3 83.1 C 50.7 78 63 82.9 70 94.1 Z "/>
      <path id="ID0.4295162418857217" fill="#414042" d="M 60.5 104.1 C 60.4 107.2 58.1 109.6 55.2 109.6 C 52.4 109.5 50.1 107 50.2 103.9 C 50.3 100.8 52.6 98.4 55.5 98.4 C 58.3 98.4 60.5 101 60.5 104.1 " stroke-width="1"/>
      <path id="ID0.3263668236322701" fill="#414042" stroke="#414042" stroke-width="2.6695" stroke-linecap="round" stroke-linejoin="round" d="M 96.2 119 C 100.5 118.6 107.7 116.4 108.4 121.2 C 108.5 123.3 104.2 131.6 99.4 131.8 C 94.3 132 85.7 126.4 86 122.6 C 86.4 118.7 92.4 119.4 96.2 119 Z "/>
      <path id="ID0.7795429304242134" fill="#FFFFFF" stroke="#414042" stroke-width="2.6695" stroke-linecap="round" stroke-linejoin="round" d="M 78.7 125.8 C 56.5 112.3 32.2 142.2 48.3 162.3 "/>
      <path id="ID0.7670821123756468" fill="#FFFFFF" stroke="#414042" stroke-width="2.6695" stroke-linecap="round" stroke-linejoin="round" d="M 114.7 121.5 C 114.7 121.5 124 107.5 140.2 116.8 "/>
      <path id="ID0.19098195200785995" fill="#9966FF" d="M 35.5 56.5 L 49.2 6.7 L 87.7 58.8 C 87.7 58.8 65.6 54.5 45.4 63.4 L 35.5 56.5 Z " stroke-width="1"/>
      <path id="ID0.6458063432946801" fill="none" stroke="#414042" stroke-width="2.6695" stroke-linecap="round" stroke-linejoin="round" d="M 16.7 87.1 C 16.7 87.1 -11.3 181.2 91.2 184.4 "/>
      <path id="ID0.9701246600598097" fill="none" stroke="#414042" stroke-width="2.6695" stroke-linecap="round" stroke-linejoin="round" d="M 88.7 184.5 C 88.7 184.5 75.7 182.3 74.3 188.8 C 72.8 195.3 88.1 192.9 88.7 184.5 Z "/>
      <path id="ID0.5786851337179542" fill="none" stroke="#414042" stroke-width="2.6695" stroke-linecap="round" stroke-linejoin="round" d="M 88.7 184.5 C 88.7 184.5 101.7 182.3 103.1 188.8 C 104.5 195.3 89.2 192.9 88.7 184.5 Z "/>
      <path id="ID0.46285319048911333" fill="#FFF200" d="M 65.8 29.2 C 64.7 30.2 63.2 30.8 61.6 30.8 C 58.1 30.8 55.3 28 55.3 24.5 C 55.3 22.2 56.5 20.2 58.3 19.1 L 65.8 29.2 Z " stroke-width="1"/>
      <path id="ID0.12116322992369533" fill="#FFF200" d="M 48.1 35.8 C 48.1 39.3 45.3 42.1 41.8 42.1 C 41 42.1 40.3 42 39.6 41.7 L 42.9 29.6 C 45.9 30.1 48.1 32.7 48.1 35.8 Z " stroke-width="1"/>
      <path id="ID0.19411879032850266" fill="#FFF200" d="M 61.3 38.3 C 63.038 38.3 64.613 39.006 65.754 40.146 C 66.894 41.287 67.6 42.862 67.6 44.6 C 67.6 46.338 66.894 47.913 65.754 49.054 C 64.613 50.194 63.038 50.9 61.3 50.9 C 59.562 50.9 57.987 50.194 56.846 49.054 C 55.706 47.913 55 46.338 55 44.6 C 55 42.862 55.706 41.287 56.846 40.146 C 57.987 39.006 59.562 38.3 61.3 38.3 Z " stroke-width="1"/>
      <path id="ID0.5707149193622172" fill="#FFF200" d="M 50.5 60.5 C 50.5 60.8 50.5 61.1 50.4 61.5 C 48.7 62.1 47.1 62.7 45.4 63.4 L 38.3 58.4 C 39.1 55.9 41.5 54.2 44.2 54.2 C 47.7 54.2 50.5 57 50.5 60.5 Z " stroke-width="1"/>
      <path id="ID0.37331184139475226" fill="#FFF200" d="M 87.7 58.8 C 87.7 58.8 83.6 58 77.4 57.8 C 77.2 57.2 77 56.5 77 55.7 C 77 53 78.7 50.7 81 49.8 L 87.7 58.8 Z " stroke-width="1"/>
      <path id="ID0.5638543446548283" fill="none" stroke="#414042" stroke-width="2.6695" stroke-linecap="round" stroke-linejoin="round" d="M 35.5 56.5 L 49.2 6.7 L 87.7 58.8 C 87.7 58.8 65.6 54.5 45.4 63.4 L 35.5 56.5 Z "/>
      <g id="ID0.984865234233439">
        <g id="ID0.8626003456301987">
          <g id="ID0.17316368175670505">
            <path id="ID0.016847609542310238" fill="#FFFFFF" stroke="#414042" stroke-width="2.6695" stroke-linecap="round" stroke-linejoin="round" d="M 121.2 155.3 L 107.3 153.2 L 107.3 147.6 L 121.2 145.5 L 121.2 155.3 "/>
            <path id="ID0.20595916220918298" fill="#FFFFFF" stroke="#414042" stroke-width="2.6695" stroke-linecap="round" stroke-linejoin="round" d="M 100.9 140.9 C 106.7 138.1 113 146.2 105.2 150.3 "/>
            <path id="ID0.8427769574336708" fill="#FFFFFF" stroke="#414042" stroke-width="2.6695" stroke-linecap="round" stroke-linejoin="round" d="M 100.9 159.8 C 106.7 162.6 113 154.5 105.2 150.4 "/>
            <path id="ID0.1376215503551066" fill="#9966FF" d="M 168.9 136.2 L 168.9 164.6 L 121.2 155.3 C 120.2 155.3 119.5 153.1 119.5 150.4 C 119.5 147.7 120.3 145.5 121.2 145.5 L 168.9 136.2 Z " stroke-width="1"/>
            <path id="ID0.3256828002631664" fill="#FFF200" d="M 138.7 142.1 C 138.7 142.1 132.8 151.1 141.9 159 L 148.5 160.5 C 148.5 160.5 137.8 150.7 145.5 140.8 L 138.7 142.1 Z " stroke-width="1"/>
            <path id="ID0.42977440683171153" fill="#FFF200" d="M 152.4 139.4 C 152.4 139.4 144.5 150.4 153.5 161.6 L 160.7 163 C 160.7 163 149.9 149 159.2 138.1 L 152.4 139.4 Z " stroke-width="1"/>
            <path id="ID0.5079416059888899" fill="#FFF200" d="M 127.1 144.4 C 127.1 144.4 123 152 130 157.1 L 135.4 158.2 C 135.4 158.2 128.3 151.7 132.1 143.5 L 127.1 144.4 Z " stroke-width="1"/>
            <path id="ID0.7281404729001224" fill="#6F52CC" stroke="#414042" stroke-width="2.6695" stroke-linecap="round" stroke-linejoin="round" d="M 168.9 136.2 C 170.279 136.2 171.529 137.791 172.435 140.362 C 173.34 142.932 173.9 146.482 173.9 150.4 C 173.9 154.318 173.34 157.868 172.435 160.438 C 171.529 163.009 170.279 164.6 168.9 164.6 C 167.521 164.6 166.271 163.009 165.365 160.438 C 164.46 157.868 163.9 154.318 163.9 150.4 C 163.9 146.482 164.46 142.932 165.365 140.362 C 166.271 137.791 167.521 136.2 168.9 136.2 Z "/>
          </g>
          <path id="ID0.6624942976050079" fill="none" stroke="#FFF200" stroke-width="2.6695" stroke-linecap="round" stroke-linejoin="round" d="M 207.2 127.3 L 216.5 132.8 "/>
          <path id="ID0.8728640899062157" fill="none" stroke="#FFF200" stroke-width="2.6695" stroke-linecap="round" stroke-linejoin="round" d="M 214.2 125.3 L 209.8 134.9 "/>
          <path id="ID0.21632729331031442" fill="none" stroke="#FFF200" stroke-width="2.6695" stroke-linecap="round" stroke-linejoin="round" d="M 210.8 126 L 214 134.8 "/>
          <path id="ID0.27256450382992625" fill="none" stroke="#FFF200" stroke-width="2.6695" stroke-linecap="round" stroke-linejoin="round" d="M 208.1 131.2 L 218.7 129.2 "/>
          <path id="ID0.8618739726953208" fill="none" stroke="#FFF200" stroke-width="2.6695" stroke-linecap="round" stroke-linejoin="round" d="M 217.7 161.6 L 225 168 "/>
          <path id="ID0.7603852692991495" fill="none" stroke="#FFF200" stroke-width="2.6695" stroke-linecap="round" stroke-linejoin="round" d="M 224.1 160.5 L 218.6 170.8 "/>
          <path id="ID0.9979860414750874" fill="none" stroke="#FFF200" stroke-width="2.6695" stroke-linecap="round" stroke-linejoin="round" d="M 221.4 160.5 L 222.2 171.2 "/>
          <path id="ID0.14850975992158055" fill="none" stroke="#FFF200" stroke-width="2.6695" stroke-linecap="round" stroke-linejoin="round" d="M 216.4 167.8 L 229.1 163 "/>
          <path id="ID0.45681258756667376" fill="none" stroke="#9966FF" stroke-width="2.6695" stroke-linecap="round" stroke-linejoin="round" d="M 191.2 110.2 L 191.2 113.1 "/>
          <path id="ID0.21264594048261642" fill="none" stroke="#9966FF" stroke-width="2.6695" stroke-linecap="round" stroke-linejoin="round" d="M 191.2 120.5 L 191.2 123.4 "/>
          <path id="ID0.9899040297605097" fill="none" stroke="#9966FF" stroke-width="2.6695" stroke-linecap="round" stroke-linejoin="round" d="M 186.6 112.1 L 188.6 114.2 "/>
          <path id="ID0.014301456045359373" fill="none" stroke="#9966FF" stroke-width="2.6695" stroke-linecap="round" stroke-linejoin="round" d="M 193.9 119.4 L 195.9 121.5 "/>
          <path id="ID0.19206137023866177" fill="none" stroke="#9966FF" stroke-width="2.6695" stroke-linecap="round" stroke-linejoin="round" d="M 184.6 116.8 L 187.5 116.8 "/>
          <path id="ID0.4384829103946686" fill="none" stroke="#9966FF" stroke-width="2.6695" stroke-linecap="round" stroke-linejoin="round" d="M 195 116.8 L 197.9 116.8 "/>
          <path id="ID0.5089401439763606" fill="none" stroke="#9966FF" stroke-width="2.6695" stroke-linecap="round" stroke-linejoin="round" d="M 186.6 121.5 L 188.6 119.4 "/>
          <path id="ID0.1305259121581912" fill="none" stroke="#9966FF" stroke-width="2.6695" stroke-linecap="round" stroke-linejoin="round" d="M 193.9 114.2 L 195.9 112.1 "/>
          <path id="ID0.3823342779651284" fill="none" stroke="#9966FF" stroke-width="2.6695" stroke-linecap="round" stroke-linejoin="round" d="M 156.4 175.2 L 156.4 178 "/>
          <path id="ID0.24019915238022804" fill="none" stroke="#9966FF" stroke-width="2.6695" stroke-linecap="round" stroke-linejoin="round" d="M 151.7 177.1 L 153.7 179.1 "/>
          <path id="ID0.370529402513057" fill="none" stroke="#9966FF" stroke-width="2.6695" stroke-linecap="round" stroke-linejoin="round" d="M 159 184.4 L 161 186.5 "/>
          <path id="ID0.5169758391566575" fill="none" stroke="#9966FF" stroke-width="2.6695" stroke-linecap="round" stroke-linejoin="round" d="M 149.7 181.8 L 152.6 181.8 "/>
          <path id="ID0.119919179007411" fill="none" stroke="#9966FF" stroke-width="2.6695" stroke-linecap="round" stroke-linejoin="round" d="M 160.1 181.8 L 163 181.8 "/>
          <path id="ID0.05533398222178221" fill="none" stroke="#9966FF" stroke-width="2.6695" stroke-linecap="round" stroke-linejoin="round" d="M 151.7 186.5 L 153.7 184.4 "/>
          <path id="ID0.9149218476377428" fill="none" stroke="#9966FF" stroke-width="2.6695" stroke-linecap="round" stroke-linejoin="round" d="M 159 179.1 L 161 177.1 "/>
          <path id="ID0.31156689347699285" fill="none" stroke="#9966FF" stroke-width="2.6695" stroke-linecap="round" stroke-linejoin="round" d="M 203.8 140 L 203.8 144.9 "/>
          <path id="ID0.005414515733718872" fill="none" stroke="#9966FF" stroke-width="2.6695" stroke-linecap="round" stroke-linejoin="round" d="M 203.8 157.5 L 203.8 162.3 "/>
          <path id="ID0.9426346714608371" fill="none" stroke="#9966FF" stroke-width="2.6695" stroke-linecap="round" stroke-linejoin="round" d="M 196 143.3 L 199.4 146.7 "/>
          <path id="ID0.3634574362076819" fill="none" stroke="#9966FF" stroke-width="2.6695" stroke-linecap="round" stroke-linejoin="round" d="M 208.3 155.6 L 211.7 159.1 "/>
          <path id="ID0.5116273206658661" fill="none" stroke="#9966FF" stroke-width="2.6695" stroke-linecap="round" stroke-linejoin="round" d="M 192.7 151.2 L 197.5 151.2 "/>
          <path id="ID0.2411536993458867" fill="none" stroke="#9966FF" stroke-width="2.6695" stroke-linecap="round" stroke-linejoin="round" d="M 210.2 151.2 L 215 151.2 "/>
          <path id="ID0.5169663014821708" fill="none" stroke="#9966FF" stroke-width="2.6695" stroke-linecap="round" stroke-linejoin="round" d="M 196 159.1 L 199.4 155.6 "/>
          <path id="ID0.5236948691308498" fill="none" stroke="#9966FF" stroke-width="2.6695" stroke-linecap="round" stroke-linejoin="round" d="M 208.3 146.7 L 211.7 143.3 "/>
          <path id="ID0.2548253326676786" fill="none" stroke="#FFF200" stroke-width="2.6695" stroke-linecap="round" stroke-linejoin="round" d="M 171.4 145.5 C 171.4 145.5 195.7 145.5 192.4 134 C 189.5 124.1 177.2 131.6 182.1 136.2 "/>
          <path id="ID0.1432987367734313" fill="none" stroke="#FFF200" stroke-width="2.6695" stroke-linecap="round" stroke-linejoin="round" d="M 167.9 159 C 167.9 159 199.3 160.5 203.7 174.7 C 209.9 194.6 179.9 205.2 173.9 186.5 C 168.1 168.2 190.8 169.2 191.2 178.8 "/>
          <path id="ID0.12798318918794394" fill="none" stroke="#414042" stroke-width="2.6695" stroke-linecap="round" stroke-linejoin="round" d="M 168.9 164.6 L 121.2 155.3 C 120.2 155.3 119.5 153.1 119.5 150.4 C 119.5 147.7 120.3 145.5 121.2 145.5 L 168.9 136.2 "/>
        </g>
        <path id="ID0.6409917334094644" fill="#FFFFFF" stroke="#414042" stroke-width="2.6695" stroke-linecap="round" stroke-linejoin="round" d="M 78.7 125.8 C 56.5 112.3 32.2 142.2 48.3 162.3 "/>
        <path id="ID0.25859468802809715" fill="#FFFFFF" stroke="#414042" stroke-width="2.6695" stroke-linecap="round" stroke-linejoin="round" d="M 114.7 121.5 C 114.7 121.5 124 107.5 140.2 116.8 "/>
      </g>
    </g>
  </g>
</svg>