<?xml version="1.0" encoding="utf-8"?>
<!-- Generator: Adobe Illustrator 22.1.0, SVG Export Plug-In . SVG Version: 6.00 Build 0)  -->
<svg version="1.1" id="Layer_1" xmlns="http://www.w3.org/2000/svg" xmlns:xlink="http://www.w3.org/1999/xlink" x="0px" y="0px"
	 viewBox="0 0 480 360" enable-background="new 0 0 480 360" xml:space="preserve">
<g>
	<rect x="-3.1" y="-4" fill="#4C97FF" width="486" height="368"/>
</g>
<g>
	<ellipse fill="#3D79CC" cx="239.9" cy="291.4" rx="56.8" ry="9.9"/>
	<g>
		<g id="XMLID_616_">
			<g id="XMLID_626_">
				
					<path id="XMLID_628_" fill="#FAA51D" stroke="#414042" stroke-width="2.6695" stroke-linecap="round" stroke-linejoin="round" d="
					M243,197.6c0,0,3.2,2.2,5.8,14.5c3.9,14.1,11.7,14.4,19.3,15.3c10.9-0.1,29.9,3.1,26.4-10.3c-1.5-10.9-13.4-11.3-24-10.8
					c-4.5,0-8-13.9-9.3-20.2c-0.4-2.1,0.5-4-0.1-5.6c0,0-1-2.9-7.9,3.2C246.3,189.9,240.8,191.7,243,197.6z"/>
				
					<line id="XMLID_627_" fill="none" stroke="#414042" stroke-width="2.6695" stroke-linecap="round" stroke-linejoin="round" x1="270.5" y1="206.2" x2="264.1" y2="206.1"/>
			</g>
			<g id="XMLID_623_">
				
					<path id="XMLID_625_" fill="#FAA51D" stroke="#414042" stroke-width="2.6695" stroke-linecap="round" stroke-linejoin="round" d="
					M263.4,238.7c0,0-4.2,13.6-2.3,35.5c0.8,9.4,18.5-1.3,17.2,17.1c-0.4,5.2-23.5,4.7-28.5,2.8c-4.7-1.8-5.9-3.5-5.1-8.5
					c2.8-18.1-6.3-39-6.3-39"/>
				
					<path id="XMLID_624_" fill="#FAA51D" stroke="#414042" stroke-width="2.6695" stroke-linecap="round" stroke-linejoin="round" d="
					M266.1,278.6c0,0-3.3-0.4-6.9,0.3"/>
			</g>
			
				<path id="XMLID_621_" fill="#FAA51D" stroke="#414042" stroke-width="2.6695" stroke-linecap="round" stroke-linejoin="round" d="
				M265.4,211.6c0,16.6,4.2,41.1-25.3,41.1s-27-22.3-27-38.9s10.1-21.2,27-21.2S265.4,195,265.4,211.6z"/>
			<path id="XMLID_620_" fill="#FFFFFF" d="M259,218.9c0,10.5,2.3,26.1-13.8,26.1s-14.7-14.1-14.7-24.7s5.5-13.4,14.7-13.4
				S259,208.4,259,218.9z"/>
			<g id="XMLID_617_">
				
					<path id="XMLID_619_" fill="#FAA51D" stroke="#414042" stroke-width="2.6695" stroke-linecap="round" stroke-linejoin="round" d="
					M215.2,238.7c0,0,6.6,13.6,3.3,35.4c-1.4,9.4-15.4-2.1-14.5,16.6c0.3,6.2,19,5.7,24.5,4.8c5.3-0.9,7.2-3.8,6.8-8.9
					c-0.8-10.3,2.9-33.1,2.9-33.1"/>
				
					<path id="XMLID_618_" fill="#FAA51D" stroke="#414042" stroke-width="2.6695" stroke-linecap="round" stroke-linejoin="round" d="
					M212.6,278.5c0,0,3.9-0.5,7.5,0.4"/>
			</g>
		</g>
		<g id="XMLID_612_">
			<polygon id="XMLID_615_" fill="#FAA51D" points="221.1,197.9 216.2,214.9 193.3,216.6 197.9,207.7 			"/>
			
				<path id="XMLID_614_" fill="#FAA51D" stroke="#414042" stroke-width="2.6695" stroke-linecap="round" stroke-linejoin="round" d="
				M228.2,196.9c-2.7-13.2-14.1-5.4-19.5,0c-4.3,4.4-9.1,9.2-10.8,10.8"/>
			
				<path id="XMLID_613_" fill="#FAA51D" stroke="#414042" stroke-width="2.6695" stroke-linecap="round" stroke-linejoin="round" d="
				M215.8,214.2c2.8,2.5,10,6.6,13.7,12.5c4.3,6.8,0.9,16.2-6.7,18.5c-6.9,2-13.1-5.5-24.7-19.4c-3.3-4-4.3-9.6-2.2-14.3
				c0-0.1,0.1-0.1,0.1-0.2c2-4.5,5.3-8.4,9.1-11.6l8.6-7.1"/>
		</g>
		<g>
			
				<path fill="none" stroke="#FFF200" stroke-width="2.6695" stroke-linecap="round" stroke-linejoin="round" stroke-miterlimit="10" d="
				M221.4,18.1c0,0-7.1-3.2-10.2,3.7c0,0-4.7-2.7-6.6,2.7"/>
			<path fill="#F9A41E" d="M228.7,72.8c-11.4,0.4-21.3,5.6-21.3,5.6l-33.2-23.1l4.4,46.7c0,0-13.4,9.9-14.9,37.6
				c-1.6,30.8,28.1,55.8,67.1,59.4c51.6,4.7,91.7-17.6,87.9-51.6c-2-17.7-15.5-19.4-15.5-19.4s1.2-11.6-6.6-25.8
				c-7.8-14.2-20.1-20.3-20.1-20.3l-6.4-28.6l-20.5,20.5C249.7,73.8,240.1,72.3,228.7,72.8z"/>
			<path fill="#FFFFFF" d="M260,139.6c-18,3.4-63.1-15.8-71,13.7c-8.7,32.4,17.7,43.4,42,45.7c73.5,6.7,91.6-32.7,87.9-51.6
				c-2.7-14.2-7.6-17.9-15.5-19.4C284.9,124.5,278,136.2,260,139.6z"/>
			<path fill="none" stroke="#414042" stroke-width="2.6695" stroke-linecap="round" stroke-linejoin="round" d="M312.1,140.2
				c0,0,11.3-1.6,17-3.4c6.7-2.2,11.3-6,11.3-6"/>
			<path fill="none" stroke="#414042" stroke-width="2.6695" stroke-linecap="round" stroke-linejoin="round" d="M312.9,154.9
				c0,0,6.7,2.9,13.6,3.7c6.8,0.8,11.4,0.5,11.4,0.5"/>
			
				<line fill="none" stroke="#414042" stroke-width="2.6695" stroke-linecap="round" stroke-linejoin="round" x1="203.2" y1="75.5" x2="212.5" y2="82.3"/>
			<path fill="none" stroke="#414042" stroke-width="2.6695" stroke-linecap="round" stroke-linejoin="round" d="M228.7,72.8
				c-11.4,0.4-21.3,5.6-21.3,5.6l-33.2-23.1l4.4,46.7c0,0-13.4,9.9-14.9,37.6c-1.6,30.8,28.1,55.8,67.1,59.4
				c51.6,4.7,91.7-17.6,87.9-51.6c-2-17.7-15.5-19.4-15.5-19.4s1.2-11.6-6.6-25.8c-7.8-14.2-20.1-20.3-20.1-20.3l-6.4-28.6
				l-20.5,20.5C249.7,73.8,240.1,72.3,228.7,72.8z"/>
			<path fill="none" stroke="#414042" stroke-width="2.6695" stroke-linecap="round" stroke-linejoin="round" d="M186.2,162.2
				c0,0,10.2-0.1,14.7-0.8c4.5-0.7,13.3-2.8,13.3-2.8"/>
			<path fill="none" stroke="#414042" stroke-width="2.6695" stroke-linecap="round" stroke-linejoin="round" d="M213.8,149
				c0,0-6.3-3.8-15.8-6.9c-10.6-3.5-16.3-4.1-16.3-4.1"/>
			<path fill="#FFFFFF" stroke="#414042" stroke-width="2.6695" stroke-linecap="round" stroke-linejoin="round" d="M291.3,102.4
				c7,11.2,6.9,23.8,0,28.1c-7,4.3-18.3-1.2-25.2-12.4c-7-11.2-6.9-23.8,0-28.1C273,85.6,284.3,91.2,291.3,102.4z"/>
			<path fill="#414042" d="M282.1,110.6c0.7,2.9-0.8,5.8-3.5,6.5c-2.7,0.7-5.5-1.1-6.2-4c-0.7-2.9,0.8-5.8,3.5-6.5
				C278.6,105.9,281.4,107.7,282.1,110.6"/>
			<path fill="#FFFFFF" stroke="#414042" stroke-width="2.6695" stroke-linecap="round" stroke-linejoin="round" d="M232,109.1
				c7,11.2,5.9,24.4-2.4,29.6c-8.3,5.1-20.6,0.2-27.6-11c-7-11.2-5.9-24.4,2.3-29.6C212.7,92.9,225,97.9,232,109.1z"/>
			<path fill="#414042" d="M222.5,119c-0.1,3.1-2.4,5.5-5.3,5.5c-2.8-0.1-5.1-2.6-5-5.7c0.1-3.1,2.4-5.5,5.3-5.5
				C220.3,113.4,222.5,116,222.5,119"/>
			<path fill="#414042" stroke="#414042" stroke-width="2.6695" stroke-linecap="round" stroke-linejoin="round" d="M258.2,134
				c4.3-0.4,11.5-2.6,12.2,2.2c0.1,2.1-4.2,10.4-9,10.6c-5.1,0.2-13.7-5.4-13.4-9.2C248.4,133.7,254.4,134.3,258.2,134z"/>
			<path fill="#9966FF" d="M197.5,71.5l13.7-49.8l38.5,52.1c0,0-22.1-4.3-42.3,4.6L197.5,71.5z"/>
			
				<path fill="none" stroke="#414042" stroke-width="2.6695" stroke-linecap="round" stroke-linejoin="round" stroke-miterlimit="10" d="
				M178.7,102c0,0-28,94.1,74.5,97.3"/>
			
				<path fill="none" stroke="#414042" stroke-width="2.6695" stroke-linecap="round" stroke-linejoin="round" stroke-miterlimit="10" d="
				M250.7,199.5c0,0-13-2.2-14.4,4.3C234.8,210.3,250.1,207.9,250.7,199.5z"/>
			
				<path fill="none" stroke="#414042" stroke-width="2.6695" stroke-linecap="round" stroke-linejoin="round" stroke-miterlimit="10" d="
				M250.7,199.5c0,0,13-2.2,14.4,4.3C266.5,210.3,251.2,207.9,250.7,199.5z"/>
			<path fill="#FFF200" d="M227.8,44.2c-1.1,1-2.6,1.6-4.2,1.6c-3.5,0-6.3-2.8-6.3-6.3c0-2.3,1.2-4.3,3-5.4L227.8,44.2z"/>
			<path fill="#FFF200" d="M210.1,50.7c0,3.5-2.8,6.3-6.3,6.3c-0.8,0-1.5-0.1-2.2-0.4l3.3-12.1C207.9,45.1,210.1,47.7,210.1,50.7z"
				/>
			<circle fill="#FFF200" cx="223.3" cy="59.6" r="6.3"/>
			<path fill="#FFF200" d="M212.5,75.5c0,0.3,0,0.6-0.1,1c-1.7,0.6-3.3,1.2-5,1.9l-7.1-5c0.8-2.5,3.2-4.2,5.9-4.2
				C209.7,69.2,212.5,72,212.5,75.5z"/>
			<path fill="#FFF200" d="M249.7,73.8c0,0-4.1-0.8-10.3-1c-0.2-0.6-0.4-1.3-0.4-2.1c0-2.7,1.7-5,4-5.9L249.7,73.8z"/>
			
				<path fill="none" stroke="#414042" stroke-width="2.6695" stroke-linecap="round" stroke-linejoin="round" stroke-miterlimit="10" d="
				M197.5,71.5l13.7-49.8l38.5,52.1c0,0-22.1-4.3-42.3,4.6L197.5,71.5z"/>
			<g>
				<g>
					<g>
						<polygon fill="#FFFFFF" stroke="#414042" stroke-width="2.6695" stroke-linecap="round" stroke-linejoin="round" points="
							283.2,170.3 269.3,168.2 269.3,162.6 283.2,160.5 						"/>
						<path fill="#FFFFFF" stroke="#414042" stroke-width="2.6695" stroke-linecap="round" stroke-linejoin="round" d="M262.9,155.8
							c5.8-2.8,12.1,5.3,4.3,9.4"/>
						<path fill="#FFFFFF" stroke="#414042" stroke-width="2.6695" stroke-linecap="round" stroke-linejoin="round" d="M262.9,174.7
							c5.8,2.8,12.1-5.3,4.3-9.4"/>
						<path fill="#9966FF" d="M330.9,151.2v28.4l-47.7-9.3c-1,0-1.7-2.2-1.7-4.9c0-2.7,0.8-4.9,1.7-4.9L330.9,151.2z"/>
						<path fill="#FFF200" d="M300.7,157.1c0,0-5.9,9,3.2,16.9l6.6,1.5c0,0-10.7-9.8-3-19.7L300.7,157.1z"/>
						<path fill="#FFF200" d="M314.4,154.4c0,0-7.9,11,1.1,22.2l7.2,1.4c0,0-10.8-14-1.5-24.9L314.4,154.4z"/>
						<path fill="#FFF200" d="M289.1,159.3c0,0-4.1,7.6,2.9,12.7l5.4,1.1c0,0-7.1-6.5-3.3-14.7L289.1,159.3z"/>
						
							<ellipse fill="#6F52CC" stroke="#414042" stroke-width="2.6695" stroke-linecap="round" stroke-linejoin="round" stroke-miterlimit="10" cx="330.9" cy="165.4" rx="5" ry="14.2"/>
					</g>
					
						<line fill="none" stroke="#FFF200" stroke-width="2.6695" stroke-linecap="round" stroke-linejoin="round" stroke-miterlimit="10" x1="369.2" y1="142.3" x2="378.5" y2="147.8"/>
					
						<line fill="none" stroke="#FFF200" stroke-width="2.6695" stroke-linecap="round" stroke-linejoin="round" stroke-miterlimit="10" x1="376.2" y1="140.2" x2="371.8" y2="149.9"/>
					
						<line fill="none" stroke="#FFF200" stroke-width="2.6695" stroke-linecap="round" stroke-linejoin="round" stroke-miterlimit="10" x1="372.8" y1="141" x2="376" y2="149.7"/>
					
						<line fill="none" stroke="#FFF200" stroke-width="2.6695" stroke-linecap="round" stroke-linejoin="round" stroke-miterlimit="10" x1="370.1" y1="146.2" x2="380.7" y2="144.1"/>
					
						<line fill="none" stroke="#FFF200" stroke-width="2.6695" stroke-linecap="round" stroke-linejoin="round" stroke-miterlimit="10" x1="379.7" y1="176.6" x2="387" y2="183"/>
					
						<line fill="none" stroke="#FFF200" stroke-width="2.6695" stroke-linecap="round" stroke-linejoin="round" stroke-miterlimit="10" x1="386.1" y1="175.5" x2="380.6" y2="185.8"/>
					
						<line fill="none" stroke="#FFF200" stroke-width="2.6695" stroke-linecap="round" stroke-linejoin="round" stroke-miterlimit="10" x1="383.4" y1="175.5" x2="384.2" y2="186.2"/>
					
						<line fill="none" stroke="#FFF200" stroke-width="2.6695" stroke-linecap="round" stroke-linejoin="round" stroke-miterlimit="10" x1="378.4" y1="182.8" x2="391.1" y2="178"/>
					
						<line fill="none" stroke="#9966FF" stroke-width="2.6695" stroke-linecap="round" stroke-linejoin="round" stroke-miterlimit="10" x1="353.2" y1="125.2" x2="353.2" y2="128"/>
					
						<line fill="none" stroke="#9966FF" stroke-width="2.6695" stroke-linecap="round" stroke-linejoin="round" stroke-miterlimit="10" x1="353.2" y1="135.5" x2="353.2" y2="138.4"/>
					
						<line fill="none" stroke="#9966FF" stroke-width="2.6695" stroke-linecap="round" stroke-linejoin="round" stroke-miterlimit="10" x1="348.6" y1="127.1" x2="350.6" y2="129.1"/>
					
						<line fill="none" stroke="#9966FF" stroke-width="2.6695" stroke-linecap="round" stroke-linejoin="round" stroke-miterlimit="10" x1="355.9" y1="134.4" x2="357.9" y2="136.5"/>
					
						<line fill="none" stroke="#9966FF" stroke-width="2.6695" stroke-linecap="round" stroke-linejoin="round" stroke-miterlimit="10" x1="346.6" y1="131.8" x2="349.5" y2="131.8"/>
					
						<line fill="none" stroke="#9966FF" stroke-width="2.6695" stroke-linecap="round" stroke-linejoin="round" stroke-miterlimit="10" x1="357" y1="131.8" x2="359.9" y2="131.8"/>
					
						<line fill="none" stroke="#9966FF" stroke-width="2.6695" stroke-linecap="round" stroke-linejoin="round" stroke-miterlimit="10" x1="348.6" y1="136.5" x2="350.6" y2="134.4"/>
					
						<line fill="none" stroke="#9966FF" stroke-width="2.6695" stroke-linecap="round" stroke-linejoin="round" stroke-miterlimit="10" x1="355.9" y1="129.1" x2="357.9" y2="127.1"/>
					
						<line fill="none" stroke="#9966FF" stroke-width="2.6695" stroke-linecap="round" stroke-linejoin="round" stroke-miterlimit="10" x1="318.4" y1="190.1" x2="318.4" y2="193"/>
					
						<line fill="none" stroke="#9966FF" stroke-width="2.6695" stroke-linecap="round" stroke-linejoin="round" stroke-miterlimit="10" x1="313.7" y1="192.1" x2="315.7" y2="194.1"/>
					
						<line fill="none" stroke="#9966FF" stroke-width="2.6695" stroke-linecap="round" stroke-linejoin="round" stroke-miterlimit="10" x1="321" y1="199.4" x2="323" y2="201.4"/>
					
						<line fill="none" stroke="#9966FF" stroke-width="2.6695" stroke-linecap="round" stroke-linejoin="round" stroke-miterlimit="10" x1="311.7" y1="196.8" x2="314.6" y2="196.8"/>
					
						<line fill="none" stroke="#9966FF" stroke-width="2.6695" stroke-linecap="round" stroke-linejoin="round" stroke-miterlimit="10" x1="322.1" y1="196.8" x2="325" y2="196.8"/>
					
						<line fill="none" stroke="#9966FF" stroke-width="2.6695" stroke-linecap="round" stroke-linejoin="round" stroke-miterlimit="10" x1="313.7" y1="201.4" x2="315.7" y2="199.4"/>
					
						<line fill="none" stroke="#9966FF" stroke-width="2.6695" stroke-linecap="round" stroke-linejoin="round" stroke-miterlimit="10" x1="321" y1="194.1" x2="323" y2="192.1"/>
					
						<line fill="none" stroke="#9966FF" stroke-width="2.6695" stroke-linecap="round" stroke-linejoin="round" stroke-miterlimit="10" x1="365.8" y1="155" x2="365.8" y2="159.8"/>
					
						<line fill="none" stroke="#9966FF" stroke-width="2.6695" stroke-linecap="round" stroke-linejoin="round" stroke-miterlimit="10" x1="365.8" y1="172.5" x2="365.8" y2="177.3"/>
					
						<line fill="none" stroke="#9966FF" stroke-width="2.6695" stroke-linecap="round" stroke-linejoin="round" stroke-miterlimit="10" x1="358" y1="158.3" x2="361.4" y2="161.7"/>
					
						<line fill="none" stroke="#9966FF" stroke-width="2.6695" stroke-linecap="round" stroke-linejoin="round" stroke-miterlimit="10" x1="370.3" y1="170.6" x2="373.7" y2="174"/>
					
						<line fill="none" stroke="#9966FF" stroke-width="2.6695" stroke-linecap="round" stroke-linejoin="round" stroke-miterlimit="10" x1="354.7" y1="166.2" x2="359.5" y2="166.2"/>
					
						<line fill="none" stroke="#9966FF" stroke-width="2.6695" stroke-linecap="round" stroke-linejoin="round" stroke-miterlimit="10" x1="372.2" y1="166.2" x2="377" y2="166.2"/>
					
						<line fill="none" stroke="#9966FF" stroke-width="2.6695" stroke-linecap="round" stroke-linejoin="round" stroke-miterlimit="10" x1="358" y1="174" x2="361.4" y2="170.6"/>
					
						<line fill="none" stroke="#9966FF" stroke-width="2.6695" stroke-linecap="round" stroke-linejoin="round" stroke-miterlimit="10" x1="370.3" y1="161.7" x2="373.7" y2="158.3"/>
					
						<path fill="none" stroke="#FFF200" stroke-width="2.6695" stroke-linecap="round" stroke-linejoin="round" stroke-miterlimit="10" d="
						M333.4,160.5c0,0,24.3,0,21-11.5c-2.9-9.9-15.2-2.4-10.3,2.2"/>
					
						<path fill="none" stroke="#FFF200" stroke-width="2.6695" stroke-linecap="round" stroke-linejoin="round" stroke-miterlimit="10" d="
						M329.9,174c0,0,31.4,1.5,35.8,15.7c6.2,19.9-23.8,30.5-29.8,11.8c-5.8-18.3,16.9-17.3,17.3-7.7"/>
					
						<path fill="none" stroke="#414042" stroke-width="2.6695" stroke-linecap="round" stroke-linejoin="round" stroke-miterlimit="10" d="
						M330.9,179.6l-47.7-9.3c-1,0-1.7-2.2-1.7-4.9c0-2.7,0.8-4.9,1.7-4.9l47.7-9.3"/>
				</g>
				<path fill="#FFFFFF" stroke="#414042" stroke-width="2.6695" stroke-linecap="round" stroke-linejoin="round" d="M240.7,140.8
					c-22.2-13.5-46.5,16.4-30.4,36.5"/>
				<path fill="#FFFFFF" stroke="#414042" stroke-width="2.6695" stroke-linecap="round" stroke-linejoin="round" d="M276.7,136.5
					c0,0,9.3-14,25.5-4.7"/>
			</g>
		</g>
	</g>
</g>
<g>
	<path fill="#FFFFFF" d="M36.2,337.8c-0.9,3.1-3.7,5.6-7.3,6.3c-0.7,0.1-1.3,0.2-2,0.2c-1.3,0-2.6-0.2-3.8-0.7
		c-2-0.8-3.8-2.2-5.4-4.1l4-3.1c0.9,1.2,2,2.1,3.2,2.5c1,0.4,2,0.5,3,0.3c1.7-0.3,3-1.4,3.4-2.7c0.4-1.5-0.6-2.8-1.5-3.7
		c-1.4-1.3-3.8-3.7-4-3.8l-4-3.7c-1.2-1.2-2-2.5-2.5-3.9c-0.4-1.3-0.5-2.8-0.1-4.1c0.4-1.4,1.2-2.6,2.4-3.6c1.1-0.9,2.4-1.6,3.9-1.8
		c1.6-0.3,3.2-0.2,4.8,0.3c1.7,0.7,3.1,1.7,4.4,3.3l-4,3.2c-1.7-2-3.4-2-4.3-1.8c-1.1,0.2-2.1,1-2.4,1.9c-0.2,0.6-0.1,1.6,1.2,2.9
		l5.4,5.2c0.8,0.8,1.7,1.7,2.4,2.4c1.4,1.3,2.4,2.7,2.8,4.2C36.6,334.8,36.7,336.4,36.2,337.8z"/>
	<path fill="#FFFFFF" d="M65.8,341.7c-0.8,0.5-1.7,1-2.6,1.4c-2,0.8-4.1,1.3-6.3,1.3s-4.3-0.4-6.3-1.3s-3.7-2-5.1-3.5
		c-1.5-1.5-2.7-3.2-3.5-5.1s-1.3-4.1-1.3-6.3c0-2.2,0.4-4.3,1.3-6.3c0.8-1.9,2-3.7,3.5-5.1c1.5-1.5,3.2-2.7,5.1-3.4
		c2-0.9,4.1-1.3,6.3-1.3s4.3,0.4,6.3,1.3c0.2,0.1,0.5,0.2,0.7,0.3v6c-2-1.6-4.4-2.5-7-2.5c-3,0-5.7,1.1-7.8,3.3
		c-2.1,2.1-3.3,4.9-3.3,7.8c0,3,1.2,5.7,3.3,7.8c2.1,2.1,4.9,3.3,7.8,3.3c3,0,5.7-1.2,7.8-3.3c0.4-0.4,0.7-0.8,1.1-1.2V341.7z"/>
	<path fill="#FFFFFF" d="M94.2,344.3h-5.7l-8.1-10.9h-3.7v10.9h-5V312h4.3h5.3c4.3,0,6.7,1.7,8.1,3.2c1.7,1.9,2.6,4.5,2.6,7.5
		c0,3-0.9,5.6-2.6,7.4c-0.8,0.9-2,1.9-3.7,2.5L94.2,344.3z M81.2,328.9c2.1,0,3.7-0.6,4.7-1.7c1.2-1.3,1.4-3.1,1.4-4.4
		c0-1.3-0.2-3.1-1.4-4.4c-1-1.1-2.6-1.7-4.7-1.7h-4.5v12.3H81.2z"/>
	<path fill="#FFFFFF" d="M116.3,337.4h-11.5l-2.7,6.9h-5.6l14.1-33.8l14,33.8h-5.5L116.3,337.4z M114.5,332.9l-3.9-9.8l-3.9,9.8
		H114.5z"/>
	<path fill="#FFFFFF" d="M145.4,316.6h-8.9v27.8h-5.1v-27.8h-8.9V312h22.9V316.6z"/>
	<path fill="#FFFFFF" d="M172.1,341.7c-0.8,0.5-1.7,1-2.6,1.4c-2,0.8-4.1,1.3-6.3,1.3s-4.3-0.4-6.3-1.3s-3.7-2-5.1-3.5
		c-1.5-1.5-2.7-3.2-3.5-5.1s-1.3-4.1-1.3-6.3c0-2.2,0.4-4.3,1.3-6.3c0.8-1.9,2-3.7,3.5-5.1c1.5-1.5,3.2-2.7,5.1-3.4
		c2-0.9,4.1-1.3,6.3-1.3s4.3,0.4,6.3,1.3c0.2,0.1,0.5,0.2,0.7,0.3v6c-2-1.6-4.4-2.5-7-2.5c-3,0-5.7,1.1-7.8,3.3
		c-2.1,2.1-3.3,4.9-3.3,7.8c0,3,1.2,5.7,3.3,7.8c2.1,2.1,4.9,3.3,7.8,3.3c3,0,5.7-1.2,7.8-3.3c0.4-0.4,0.7-0.8,1.1-1.2V341.7z"/>
	<path fill="#FFFFFF" d="M200,344.3h-5v-13.9H182v13.9h-5V312h5v13.8h12.9V312h5V344.3z"/>
	<path fill="#FFFFFF" d="M228.9,344.3c-3.3-0.2-6.7-1.5-10.2-3.9l2.9-4.1c4.8,3.4,9.3,3.9,12.4,1.7c2.2-1.7,3.2-4.5,2.4-6.9
		c-0.4-1.1-1.1-2-2.2-2.6c-1.3-0.8-3.2-1.2-5.4-1.2l-4.3,0L230,317h-9.3v-5h17.8l-5.8,10.5c1.5,0.3,2.9,0.9,4.1,1.6
		c2,1.3,3.5,3.1,4.3,5.3c0.7,2.1,0.7,4.6,0,6.8c-0.8,2.2-2.2,4.3-4.1,5.7c-2.1,1.6-4.6,2.4-7.4,2.4
		C229.4,344.3,229.1,344.3,228.9,344.3z"/>
	<path fill="#FFFFFF" d="M249.3,344.3c-1.7,0-3-1.3-3-3c0-1.7,1.3-3,3-3c1.7,0,3,1.4,3,3C252.3,343,250.9,344.3,249.3,344.3z"/>
	<path fill="#FFFFFF" d="M264.1,342.8c-1.6-0.9-2.9-2.3-4-3.9c-1.9-2.9-2.9-6.7-2.9-10.8s1-7.9,2.9-10.8c1.1-1.6,2.4-2.9,3.9-3.8
		c1.7-1,3.6-1.5,5.7-1.5c2,0,4,0.5,5.6,1.5c1.6,0.9,2.9,2.2,3.9,3.9c1.9,2.9,2.9,6.7,2.9,10.8s-1,7.8-2.9,10.7c-1,1.7-2.4,3-3.9,3.9
		c-1.7,1-3.6,1.5-5.6,1.5C267.7,344.3,265.8,343.8,264.1,342.8z M264.4,320.2c-1.3,2-2.1,4.9-2.1,8c0,3,0.8,6,2.1,8
		c1.3,2,3.2,3.1,5.4,3.1c2.2,0,3.9-1,5.2-3.1c1.3-2,2-4.9,2-8c0-3-0.7-6-2-8c-1.3-2.1-3.1-3.1-5.3-3.1
		C267.5,317.1,265.7,318.1,264.4,320.2z"/>
	<path fill="#FFFFFF" d="M301,344.3V312h5v32.3H301z"/>
	<path fill="#FFFFFF" d="M329.7,337.8c-0.9,3.1-3.7,5.6-7.3,6.3c-0.7,0.1-1.3,0.2-2,0.2c-1.3,0-2.6-0.2-3.8-0.7
		c-2-0.8-3.8-2.2-5.4-4.1l4-3.1c0.9,1.2,2,2.1,3.2,2.5c1,0.4,2,0.5,3,0.3c1.7-0.3,3-1.4,3.4-2.7c0.4-1.5-0.6-2.8-1.5-3.7
		c-1.4-1.3-3.8-3.7-4-3.8l-4-3.7c-1.2-1.2-2-2.5-2.5-3.9c-0.4-1.3-0.5-2.8-0.1-4.1c0.4-1.4,1.2-2.6,2.4-3.6c1.1-0.9,2.4-1.6,3.9-1.8
		c1.6-0.3,3.2-0.2,4.8,0.3c1.7,0.7,3.1,1.7,4.4,3.3l-4,3.2c-1.7-2-3.4-2-4.3-1.8c-1.1,0.2-2.1,1-2.4,1.9c-0.2,0.6-0.1,1.6,1.2,2.9
		l5.4,5.2c0.8,0.8,1.7,1.7,2.4,2.4c1.4,1.3,2.4,2.7,2.8,4.2C330.1,334.8,330.1,336.4,329.7,337.8z"/>
	<path fill="#FFFFFF" d="M371.6,344.3h-5v-13.9h-12.9v13.9h-5V312h5v13.8h12.9V312h5V344.3z"/>
	<path fill="#FFFFFF" d="M383.4,325.2h11.8v4.6h-11.8v10h14.3v4.6h-14.4h-5V312h5h14.4v4.5h-14.3V325.2z"/>
	<path fill="#FFFFFF" d="M426.3,344.3h-5.7l-8.1-10.9h-3.7v10.9h-5V312h4.3h5.3c4.3,0,6.7,1.7,8.1,3.2c1.7,1.9,2.6,4.5,2.6,7.5
		c0,3-0.9,5.6-2.6,7.4c-0.8,0.9-2,1.9-3.7,2.5L426.3,344.3z M413.3,328.9c2.1,0,3.7-0.6,4.7-1.7c1.2-1.3,1.4-3.1,1.4-4.4
		c0-1.3-0.2-3.1-1.4-4.4c-1-1.1-2.6-1.7-4.7-1.7h-4.5v12.3H413.3z"/>
	<path fill="#FFFFFF" d="M435.3,325.2h11.8v4.6h-11.8v10h14.3v4.6h-14.4h-5V312h5h14.4v4.5h-14.3V325.2z"/>
	<path fill="#FFFFFF" d="M455.9,336.5l-1-26.2h6.8l-1,26.1c-0.5-0.3-1.3-0.5-2.4-0.5S456.4,336.2,455.9,336.5z M461.1,341.5
		c0,1.6-1.3,2.9-2.9,2.9c-1.6,0-2.9-1.3-2.9-2.9c0-1.6,1.3-2.9,2.9-2.9C459.8,338.5,461.1,339.9,461.1,341.5z"/>
</g>
</svg>
