<svg xmlns="http://www.w3.org/2000/svg" xmlns:xlink="http://www.w3.org/1999/xlink" version="1.1" width="13.38238525390625" height="15.5689697265625" viewBox="36.58100128173828 821.9940185546875 13.38238525390625 15.5689697265625">
  <!-- Exported by Scratch - http://scratch.mit.edu/ -->
  <path id="path3399" fill="#ff2a2a" stroke="none" d="M 43.144 822.5 C 42.719 822.5 42.294 822.527 41.863 822.563 C 41.431 822.598 40.997 822.647 40.581 822.719 C 39.558 822.897 38.78 823.275 38.238 823.844 C 37.695 824.413 37.388 825.248 37.3 826.344 C 37.291 826.507 37.278 826.665 37.269 826.875 C 37.26 827.085 37.246 827.318 37.238 827.563 L 39.425 827.563 C 39.425 827.363 39.414 827.177 39.425 826.969 C 39.436 826.76 39.461 826.543 39.488 826.344 C 39.542 825.914 39.691 825.561 39.925 825.281 C 40.159 825.002 40.528 824.776 41.05 824.625 C 41.386 824.537 41.749 824.472 42.113 824.438 C 42.475 824.403 42.821 824.405 43.175 824.406 L 43.613 824.406 C 43.961 824.406 44.293 824.395 44.613 824.406 C 44.932 824.417 45.212 824.442 45.425 824.469 C 45.992 824.528 46.422 824.679 46.738 824.906 C 47.052 825.134 47.237 825.46 47.3 825.906 C 47.319 826.032 47.348 826.178 47.363 826.313 C 47.377 826.448 47.362 826.575 47.363 826.719 C 47.362 826.891 47.349 827.053 47.331 827.219 C 47.313 827.384 47.305 827.542 47.269 827.688 C 47.144 828.192 46.858 828.578 46.394 828.844 C 45.929 829.11 45.371 829.311 44.769 829.438 C 44.172 829.573 43.478 829.728 42.644 829.906 C 41.809 830.084 41.198 830.235 40.8 830.344 C 39.503 830.703 38.575 831.27 38.05 832.031 C 37.525 832.793 37.239 833.76 37.175 834.938 C 37.156 835.235 37.132 835.59 37.113 836 C 37.093 836.41 37.083 836.765 37.081 837.063 L 49.363 837.063 L 49.363 835.094 L 39.238 835.125 C 39.237 834.928 39.227 834.781 39.238 834.656 C 39.248 834.532 39.273 834.366 39.3 834.188 C 39.407 833.602 39.673 833.164 40.081 832.844 C 40.49 832.524 41.001 832.279 41.613 832.125 C 41.764 832.089 42.127 832.018 42.675 831.906 C 43.223 831.795 43.771 831.676 44.331 831.563 C 44.891 831.449 45.268 831.386 45.456 831.344 C 46.547 831.118 47.426 830.764 48.081 830.281 C 48.736 829.799 49.14 829.119 49.331 828.281 C 49.384 828.057 49.408 827.852 49.425 827.625 C 49.441 827.398 49.458 827.171 49.456 826.938 L 49.456 826.406 C 49.459 826.334 49.471 826.26 49.456 826.188 C 49.417 825.702 49.335 825.263 49.206 824.813 C 48.967 824.07 48.542 823.516 47.956 823.188 C 47.37 822.859 46.686 822.67 45.925 822.594 C 45.657 822.559 45.359 822.513 44.988 822.5 C 44.616 822.487 44.225 822.499 43.831 822.5 L 43.144 822.5 Z " stroke-width="1"/>
</svg>