<svg xmlns="http://www.w3.org/2000/svg" xmlns:xlink="http://www.w3.org/1999/xlink" version="1.1" width="13.344364166259766" height="15.315621376037598" viewBox="-0.5 0.24737799167633057 13.344364166259766 15.315621376037598">
  <!-- Exported by Scratch - http://scratch.mit.edu/ -->
  <path id="path6373" fill="#ff2a2a" stroke="none" d="M 0 0.75 L 0 15.063 L 2.063 15.063 L 2.063 9.563 L 7.844 9.563 C 8.937 9.588 9.86 9.393 10.594 9.031 C 11.327 8.67 11.837 7.961 12.156 6.906 C 12.242 6.608 12.294 6.309 12.313 6 C 12.331 5.691 12.347 5.353 12.344 4.938 C 12.343 4.545 12.307 4.125 12.25 3.719 C 12.193 3.313 12.131 2.998 12.031 2.75 C 11.664 1.919 11.104 1.382 10.375 1.125 C 9.646 0.868 8.884 0.726 8.094 0.75 L 0 0.75 Z M 2.063 2.625 L 7.781 2.625 C 8.347 2.613 8.855 2.681 9.25 2.813 C 9.644 2.945 9.898 3.236 10.031 3.656 C 10.101 3.88 10.16 4.091 10.188 4.313 C 10.215 4.534 10.212 4.767 10.219 5 C 10.219 5.213 10.207 5.448 10.188 5.688 C 10.168 5.928 10.138 6.118 10.094 6.313 C 9.925 6.904 9.644 7.305 9.219 7.469 C 8.793 7.633 8.257 7.708 7.656 7.688 L 2.063 7.688 L 2.063 2.625 Z " stroke-width="1"/>
</svg>