<svg xmlns="http://www.w3.org/2000/svg" xmlns:xlink="http://www.w3.org/1999/xlink" version="1.1" width="4.627666711807251" height="15.656000137329102" viewBox="-0.4716666657477617 0.09400004148483276 4.627666711807251 15.656000137329102">
  <!-- Exported by Scratch - http://scratch.mit.edu/ -->
  <path id="path3335" fill="#ff2a2a" stroke="none" d="M 3.656 0.594 C 1.87 0.594 0.824 1.037 0.5 1.938 C 0.176 2.838 0.031 3.976 0.031 5.344 L 0.031 8.406 L 0.031 9.063 L 0.031 9.75 C 0.031 9.972 0.025 10.204 0.031 10.438 C 0.038 10.671 0.051 10.883 0.063 11.094 C 0.088 12.187 0.233 13.156 0.531 14 C 0.83 14.844 1.697 15.25 3.094 15.25 L 3.188 15.25 L 3.344 15.25 C 3.369 15.237 3.376 15.25 3.375 15.25 C 3.374 15.25 3.458 15.237 3.656 15.25 L 3.656 13.75 L 3.219 13.75 C 2.583 13.75 2.212 13.557 2.094 13.188 C 1.976 12.818 1.885 12.397 1.875 11.938 L 1.875 11.688 L 1.875 11.563 L 1.844 6.594 L 1.844 4.813 L 1.844 4.625 L 1.844 4.406 L 1.844 4.313 C 1.844 4.282 1.845 4.253 1.844 4.219 C 1.855 3.569 1.927 3.061 2.063 2.688 C 2.198 2.314 2.726 2.125 3.656 2.125 L 3.656 0.594 Z " stroke-width="1"/>
</svg>