<svg xmlns="http://www.w3.org/2000/svg" xmlns:xlink="http://www.w3.org/1999/xlink" version="1.1" width="19.1560001373291" height="15.312999725341797" viewBox="-0.43699999898672104 0.25 19.1560001373291 15.312999725341797">
  <!-- Exported by Scratch - http://scratch.mit.edu/ -->
  <path id="path6529" fill="#ff2a2a" stroke="none" d="M 0.063 0.75 L 3.563 15.063 L 6.406 15.063 L 8.375 6.5 L 9.063 2.938 C 9.071 2.894 9.083 2.858 9.094 2.844 C 9.105 2.829 9.139 2.843 9.156 2.844 C 9.189 2.844 9.204 2.866 9.219 2.938 L 9.938 6.438 L 11.906 15.063 L 14.781 15.063 L 18.219 0.75 L 16.031 0.75 L 14.344 8.438 L 13.406 13.125 C 13.396 13.18 13.389 13.218 13.375 13.25 C 13.361 13.282 13.353 13.281 13.344 13.281 C 13.305 13.284 13.271 13.248 13.25 13.125 L 12.281 8.406 L 10.563 0.75 L 7.719 0.75 L 5.969 8.625 L 5.063 13.156 C 5.044 13.243 5.049 13.284 5.031 13.281 C 5.014 13.28 4.98 13.273 4.969 13.25 C 4.958 13.227 4.946 13.193 4.938 13.156 L 4.031 8.625 L 2.281 0.75 L 0.063 0.75 Z " stroke-width="1"/>
</svg>