<svg xmlns="http://www.w3.org/2000/svg" xmlns:xlink="http://www.w3.org/1999/xlink" version="1.1" width="6" height="18.253597259521484" viewBox="-0.4059999957680702 0.25 6 18.253597259521484">
  <!-- Exported by Scratch - http://scratch.mit.edu/ -->
  <path id="path5481" fill="#ff2a2a" stroke="none" d="M 2.531 0.75 L 2.531 2.906 L 5.094 2.906 L 5.094 0.75 L 2.531 0.75 Z M 2.781 4.344 L 2.781 14.719 C 2.773 15.269 2.628 15.64 2.344 15.813 C 2.059 15.985 1.686 16.07 1.219 16.063 C 0.972 16.061 0.76 16.047 0.563 16.031 C 0.365 16.015 0.196 16.002 0.094 16 L 0.094 18 L 0.906 18 C 1.904 18.032 2.812 17.851 3.594 17.438 C 4.375 17.024 4.769 16.183 4.813 14.938 L 4.813 4.344 L 2.781 4.344 Z " stroke-width="1"/>
</svg>