<svg xmlns="http://www.w3.org/2000/svg" xmlns:xlink="http://www.w3.org/1999/xlink" version="1.1" width="8.950289249420166" height="6.403473377227783" viewBox="-0.2257448434829712 1.1232633590698242 8.950289249420166 6.403473377227783">
  <!-- Exported by Scratch - http://scratch.mit.edu/ -->
  <g id="ID0.7153850952163339">
    <path id="ID0.885696864221245" fill="#FF0000" stroke="none" stroke-linecap="round" d="M 2.8325 5.6902 C 3.1588 5.4068 3.3159 4.9042 3.5849 4.5943 C 3.925 4.0541 4.4556 2.9699 4.6586 3.144 C 4.8561 3.3182 4.6925 4.4467 4.3926 5.0825 C 4.0923 5.7197 3.6041 6.2955 2.9996 6.66 C 2.395 7.0245 1.7878 7.109 1.2947 6.9503 C 0.8025 6.7921 0.2289 6.0182 0.2771 5.7857 C 0.3255 5.5627 1.1603 6.0368 1.6283 6.0415 C 2.0206 6.0052 2.4741 5.9951 2.8325 5.6902 Z " stroke-width="0.8119502890587911"/>
    <path id="ID0.885696864221245" fill="#FF0000" stroke="none" stroke-linecap="round" d="M 5.6663 2.9598 C 5.34 3.2432 5.1829 3.7458 4.9139 4.0557 C 4.5739 4.5959 4.0433 5.6801 3.8403 5.506 C 3.6427 5.3318 3.8063 4.2033 4.1062 3.5675 C 4.4065 2.9303 4.8947 2.3545 5.4992 1.99 C 6.1038 1.6255 6.711 1.541 7.2041 1.6997 C 7.6964 1.8579 8.2699 2.6318 8.2217 2.8643 C 8.1733 3.0873 7.3385 2.6132 6.8705 2.6085 C 6.4783 2.6448 6.0247 2.6549 5.6663 2.9598 Z " stroke-width="0.8119502890587911"/>
  </g>
</svg>