<svg xmlns="http://www.w3.org/2000/svg" xmlns:xlink="http://www.w3.org/1999/xlink" version="1.1" width="13.940461158752441" height="15.593999862670898" viewBox="-0.42499998956918716 -0.030999988317489624 13.940461158752441 15.593999862670898">
  <!-- Exported by Scratch - http://scratch.mit.edu/ -->
  <path id="path6685" fill="#ff2a2a" stroke="none" d="M 6.731 0.469 C 6.192 0.469 5.681 0.484 5.2 0.5 C 4.719 0.516 4.336 0.535 4.013 0.563 C 2.823 0.642 1.881 0.916 1.231 1.375 C 0.582 1.834 0.229 2.658 0.138 3.844 C 0.121 4.075 0.112 4.434 0.106 4.906 C 0.101 5.378 0.083 5.75 0.075 6.063 L 2.231 6.063 L 2.231 5.031 C 2.231 4.83 2.229 4.641 2.231 4.469 C 2.233 4.297 2.223 4.165 2.231 4.063 C 2.286 3.551 2.475 3.177 2.794 2.938 C 3.112 2.698 3.618 2.526 4.294 2.438 C 4.53 2.402 4.862 2.362 5.294 2.344 C 5.725 2.326 6.203 2.344 6.7 2.344 C 7.196 2.343 7.641 2.355 8.075 2.375 C 8.508 2.395 8.862 2.424 9.106 2.469 C 9.529 2.535 9.867 2.621 10.138 2.75 C 10.407 2.879 10.614 3.08 10.731 3.344 C 10.767 3.45 10.774 3.603 10.794 3.781 C 10.814 3.96 10.848 4.121 10.856 4.281 L 10.856 4.656 C 10.857 4.765 10.829 4.866 10.825 4.969 C 10.821 5.071 10.811 5.168 10.794 5.25 C 10.737 5.564 10.65 5.826 10.481 6.031 C 10.312 6.237 10.079 6.385 9.825 6.5 C 9.44 6.674 9.001 6.864 8.513 7.031 C 8.024 7.198 7.603 7.34 7.2 7.469 C 6.429 7.713 5.885 8.042 5.575 8.469 C 5.265 8.895 5.095 9.501 5.106 10.313 L 5.106 11.563 L 7.2 11.563 L 7.2 10.406 C 7.191 10.165 7.257 9.93 7.356 9.75 C 7.455 9.57 7.635 9.423 7.95 9.281 C 8.408 9.094 8.911 8.933 9.419 8.781 C 9.926 8.63 10.446 8.429 11.013 8.188 C 11.412 8.015 11.814 7.732 12.2 7.344 C 12.586 6.955 12.838 6.461 12.95 5.875 C 12.976 5.672 13.007 5.463 13.013 5.219 C 13.018 4.975 13.014 4.721 13.013 4.5 C 13.005 4.259 12.998 4.02 12.981 3.75 C 12.965 3.48 12.931 3.214 12.888 3 C 12.703 2.18 12.307 1.604 11.7 1.25 C 11.092 0.896 10.35 0.685 9.481 0.594 C 9.166 0.558 8.747 0.518 8.263 0.5 C 7.778 0.482 7.272 0.469 6.731 0.469 Z M 4.763 12.656 L 4.763 15.063 L 7.606 15.063 L 7.606 12.656 L 4.763 12.656 Z " stroke-width="1"/>
</svg>