<svg xmlns="http://www.w3.org/2000/svg" xmlns:xlink="http://www.w3.org/1999/xlink" version="1.1" width="11.812999725341797" height="12.354338645935059" viewBox="-0.46899999864399433 0.43355560302734375 11.812999725341797 12.354338645935059">
  <!-- Exported by Scratch - http://scratch.mit.edu/ -->
  <path id="path5351" fill="#ff2a2a" stroke="none" d="M 5.625 0.938 C 5.311 0.945 4.997 0.961 4.688 0.969 C 4.378 0.977 4.064 0.975 3.75 1 C 2.749 1.055 1.918 1.345 1.281 1.844 C 0.645 2.342 0.262 3.265 0.125 4.625 C 0.098 4.934 0.079 5.262 0.063 5.625 C 0.046 5.988 0.032 6.369 0.031 6.75 C 0.032 7.158 0.037 7.549 0.063 7.938 C 0.088 8.326 0.142 8.673 0.188 9 C 0.323 9.988 0.596 10.73 1.063 11.219 C 1.529 11.707 2.225 12.032 3.125 12.156 C 3.549 12.217 3.971 12.232 4.406 12.25 C 4.842 12.268 5.286 12.283 5.719 12.281 C 6.043 12.282 6.365 12.296 6.688 12.281 C 7.01 12.267 7.341 12.231 7.656 12.188 C 8.609 12.067 9.323 11.773 9.813 11.313 C 10.302 10.852 10.607 10.132 10.75 9.156 C 10.777 9.011 10.802 8.866 10.813 8.719 C 10.823 8.571 10.844 8.417 10.844 8.281 L 8.875 8.281 C 8.867 8.406 8.856 8.541 8.844 8.656 C 8.831 8.772 8.807 8.876 8.781 9 C 8.699 9.435 8.548 9.772 8.313 10 C 8.077 10.228 7.728 10.407 7.25 10.5 C 7 10.543 6.735 10.553 6.438 10.563 C 6.14 10.572 5.853 10.596 5.594 10.594 L 5.188 10.594 C 4.774 10.594 4.373 10.567 4.031 10.531 C 3.38 10.48 2.912 10.329 2.625 10.063 C 2.338 9.796 2.156 9.346 2.063 8.719 C 2.019 8.438 1.983 8.154 1.969 7.875 C 1.954 7.596 1.968 7.316 1.969 7.063 L 10.75 7.063 C 10.751 6.845 10.776 6.642 10.781 6.406 C 10.786 6.171 10.78 5.923 10.781 5.688 C 10.782 5.343 10.761 5.005 10.75 4.688 C 10.739 4.37 10.745 4.099 10.719 3.844 C 10.646 3.094 10.316 2.446 9.781 1.938 C 9.247 1.429 8.386 1.129 7.188 1 C 6.959 0.982 6.71 0.947 6.438 0.938 C 6.164 0.928 5.907 0.938 5.625 0.938 Z M 4.75 2.656 C 5.055 2.645 5.349 2.656 5.625 2.656 C 5.883 2.656 6.146 2.648 6.406 2.656 C 6.666 2.665 6.899 2.669 7.094 2.688 C 7.706 2.754 8.136 2.93 8.406 3.219 C 8.676 3.508 8.839 3.855 8.875 4.219 C 8.896 4.414 8.903 4.604 8.906 4.781 C 8.905 4.899 8.911 5.001 8.906 5.125 C 8.901 5.249 8.876 5.374 8.875 5.5 L 1.969 5.5 C 1.977 5.383 1.996 5.288 2 5.188 C 2.004 5.087 1.992 4.996 2 4.906 C 2.044 4.21 2.215 3.689 2.5 3.344 C 2.785 2.999 3.259 2.785 3.906 2.719 C 4.173 2.692 4.445 2.667 4.75 2.656 Z " stroke-width="1"/>
</svg>