<svg xmlns="http://www.w3.org/2000/svg" xmlns:xlink="http://www.w3.org/1999/xlink" version="1.1" width="5.002403259277344" height="5.851394176483154" viewBox="0.5475966930389404 0.6499999761581421 5.002403259277344 5.851394176483154">
  <!-- Exported by Scratch - http://scratch.mit.edu/ -->
  <path id="ID0.23590974742546678" fill="none" stroke="#FF0000" stroke-width="1" stroke-linecap="round" d="M 1.05 1.15 C 1.05 1.15 1.023 1.937 1.15 2.3 C 1.264 2.627 1.492 2.918 1.75 3.15 C 2.005 3.379 2.308 3.623 2.65 3.65 C 3.002 3.678 3.379 3.526 3.65 3.3 C 3.913 3.081 4.201 2.739 4.15 2.4 C 4.097 2.051 3.753 1.65 3.4 1.65 C 3.047 1.65 2.804 2.082 2.65 2.4 C 2.504 2.701 2.533 3.066 2.55 3.4 C 2.567 3.739 2.633 4.081 2.75 4.4 C 2.869 4.722 3.025 5.041 3.25 5.3 C 3.468 5.552 3.74 5.779 4.05 5.9 C 4.362 6.021 5.05 6 5.05 6 "/>
</svg>