<svg xmlns="http://www.w3.org/2000/svg" xmlns:xlink="http://www.w3.org/1999/xlink" version="1.1" width="12.625" height="15.31298828125" viewBox="36.525001525878906 822.25 12.625 15.31298828125">
  <!-- Exported by Scratch - http://scratch.mit.edu/ -->
  <path id="path6906" fill="#ff2a2a" stroke="none" d="M 40.338 822.75 L 39.994 825.656 L 37.806 825.656 L 37.806 827.313 L 39.775 827.313 L 39.181 832.031 L 37.025 832.031 L 37.025 833.688 L 39.025 833.688 L 38.556 837.063 L 40.213 837.063 L 40.681 833.688 L 43.869 833.688 L 43.431 837.063 L 45.088 837.063 L 45.525 833.688 L 47.838 833.688 L 47.838 832.031 L 45.744 832.031 L 46.338 827.313 L 48.65 827.313 L 48.65 825.656 L 46.525 825.656 L 46.838 822.75 L 45.181 822.75 L 44.838 825.656 L 41.65 825.656 L 41.994 822.75 L 40.338 822.75 Z M 41.463 827.313 L 44.65 827.313 L 44.088 832.031 L 40.869 832.031 L 41.463 827.313 Z " stroke-width="1"/>
</svg>