<svg xmlns="http://www.w3.org/2000/svg" xmlns:xlink="http://www.w3.org/1999/xlink" version="1.1" width="487" height="369" viewBox="-3.5999999046325684 -4.5 487 369">
  <!-- Exported by Scratch - http://scratch.mit.edu/ -->
  <path id="ID0.4055994041264057" fill="#4C97FF" d="M -3.100 -4 L 482.900 -4 L 482.900 364 L -3.100 364 L -3.100 -4 Z " stroke-width="1"/>
  <path id="ID0.014879767317324877" fill="#3D79CC" d="M 240.4 302 C 256.264 302 270.639 303.121 281.048 304.931 C 291.457 306.741 297.9 309.241 297.9 312 C 297.9 314.759 291.457 317.259 281.048 319.069 C 270.639 320.879 256.264 322 240.4 322 C 224.536 322 210.161 320.879 199.752 319.069 C 189.343 317.259 182.9 314.759 182.9 312 C 182.9 309.241 189.343 306.741 199.752 304.931 C 210.161 303.121 224.536 302 240.4 302 Z " stroke-width="1"/>
</svg>