<svg xmlns="http://www.w3.org/2000/svg" xmlns:xlink="http://www.w3.org/1999/xlink" version="1.1" width="16.125" height="15.312999725341797" viewBox="-0.4619999974966049 0.19999998807907104 16.125 15.312999725341797">
  <!-- Exported by Scratch - http://scratch.mit.edu/ -->
  <path id="path6295" fill="#ff2a2a" stroke="none" d="M 0.038 0.7 L 0.038 15.013 L 2.1 15.013 L 2.069 8.231 C 2.067 7.945 2.033 7.452 2.006 6.763 C 1.979 6.073 1.944 5.33 1.913 4.575 C 1.881 3.82 1.864 3.215 1.85 2.731 C 1.851 2.695 1.867 2.656 1.881 2.638 C 1.895 2.619 1.925 2.638 1.944 2.638 C 1.971 2.638 1.988 2.623 2.006 2.638 C 2.024 2.652 2.028 2.681 2.038 2.7 L 3.538 7.388 L 6.475 15.013 L 8.694 15.013 L 11.6 7.419 L 13.131 2.669 C 13.152 2.618 13.186 2.572 13.225 2.575 C 13.244 2.575 13.273 2.59 13.288 2.606 C 13.302 2.622 13.318 2.641 13.319 2.669 C 13.305 3.249 13.284 3.938 13.256 4.731 C 13.228 5.524 13.187 6.256 13.163 6.919 C 13.138 7.582 13.133 8.009 13.131 8.2 L 13.069 15.013 L 15.163 15.013 L 15.163 0.7 L 11.881 0.7 L 9.163 8.45 L 7.569 12.95 L 5.975 8.356 L 3.256 0.7 L 0.038 0.7 Z " stroke-width="1"/>
</svg>