<svg xmlns="http://www.w3.org/2000/svg" xmlns:xlink="http://www.w3.org/1999/xlink" version="1.1" width="13.563674926757812" height="15.96826171875" viewBox="36.58100128173828 821.9378051757812 13.563674926757812 15.96826171875">
  <!-- Exported by Scratch - http://scratch.mit.edu/ -->
  <path id="path3425" fill="#ff2a2a" stroke="none" d="M 43.675 822.438 C 43.265 822.437 42.87 822.458 42.488 822.469 C 42.105 822.48 41.758 822.473 41.456 822.5 C 40.303 822.587 39.414 822.87 38.738 823.344 C 38.061 823.818 37.606 824.558 37.425 825.563 C 37.397 825.765 37.384 826.04 37.363 826.344 C 37.341 826.647 37.332 826.813 37.331 826.844 L 39.425 826.844 C 39.425 826.717 39.438 826.536 39.456 826.344 C 39.474 826.151 39.514 826.011 39.55 825.875 C 39.677 825.464 39.873 825.13 40.175 824.906 C 40.477 824.682 40.863 824.546 41.331 824.469 C 41.666 824.407 42.054 824.367 42.488 824.344 C 42.921 824.32 43.362 824.28 43.769 824.281 C 44.134 824.281 44.479 824.292 44.831 824.313 C 45.183 824.332 45.493 824.362 45.769 824.406 C 46.205 824.467 46.552 824.601 46.8 824.781 C 47.047 824.962 47.219 825.257 47.331 825.688 C 47.359 825.806 47.378 825.955 47.394 826.094 C 47.41 826.232 47.425 826.355 47.425 826.5 C 47.425 826.7 47.421 826.907 47.394 827.094 C 47.367 827.281 47.323 827.448 47.269 827.594 C 47.148 827.888 46.977 828.115 46.769 828.281 C 46.561 828.447 46.337 828.556 46.081 828.625 C 45.855 828.685 45.631 828.737 45.394 828.75 C 45.156 828.763 44.91 828.753 44.675 828.75 L 40.113 828.75 L 40.113 830.531 L 44.644 830.531 C 45.27 830.514 45.851 830.596 46.394 830.781 C 46.936 830.966 47.303 831.374 47.488 831.969 C 47.523 832.115 47.563 832.284 47.581 832.469 C 47.599 832.654 47.612 832.84 47.613 833.031 C 47.613 833.232 47.601 833.433 47.581 833.625 C 47.561 833.817 47.532 833.978 47.488 834.125 C 47.36 834.542 47.154 834.854 46.863 835.063 C 46.571 835.271 46.18 835.402 45.738 835.469 C 45.48 835.513 45.179 835.543 44.8 835.563 C 44.421 835.582 44.067 835.594 43.738 835.594 L 43.488 835.594 C 42.964 835.578 42.503 835.576 42.113 835.563 C 41.722 835.549 41.419 835.511 41.175 835.469 C 40.349 835.309 39.793 835.012 39.55 834.594 C 39.307 834.176 39.182 833.742 39.175 833.25 C 39.166 833.128 39.151 833.015 39.144 832.906 C 39.137 832.797 39.144 832.672 39.144 832.531 L 37.081 832.531 C 37.089 832.858 37.1 833.129 37.113 833.375 C 37.125 833.621 37.149 833.857 37.175 834.094 C 37.298 835.107 37.673 835.881 38.3 836.375 C 38.927 836.869 39.821 837.159 40.988 837.281 C 41.335 837.318 41.757 837.352 42.206 837.375 C 42.655 837.398 43.099 837.406 43.581 837.406 C 44.037 837.407 44.494 837.395 44.925 837.375 C 45.356 837.355 45.743 837.326 46.081 837.281 C 46.849 837.201 47.523 836.978 48.113 836.625 C 48.702 836.272 49.121 835.738 49.394 835 C 49.483 834.745 49.573 834.456 49.613 834.156 C 49.652 833.856 49.644 833.559 49.644 833.25 C 49.641 833.019 49.633 832.807 49.613 832.594 C 49.586 832.34 49.558 832.107 49.519 831.875 C 49.479 831.643 49.425 831.432 49.363 831.25 C 49.17 830.761 48.904 830.387 48.55 830.125 C 48.196 829.863 47.78 829.665 47.3 829.563 C 47.688 829.478 48.069 829.307 48.425 829.063 C 48.781 828.818 49.061 828.423 49.269 827.844 C 49.34 827.635 49.394 827.406 49.425 827.156 C 49.456 826.907 49.457 826.638 49.456 826.375 C 49.457 826.047 49.441 825.726 49.394 825.406 C 49.347 825.087 49.274 824.788 49.175 824.531 C 48.902 823.86 48.477 823.39 47.925 823.094 C 47.373 822.798 46.768 822.631 46.081 822.563 C 45.752 822.519 45.371 822.483 44.956 822.469 C 44.541 822.454 44.112 822.436 43.675 822.438 Z " stroke-width="1"/>
</svg>