<svg xmlns="http://www.w3.org/2000/svg" xmlns:xlink="http://www.w3.org/1999/xlink" version="1.1" width="15.625015258789062" height="15.87506103515625" viewBox="36.58798599243164 821.9999389648438 15.625015258789062 15.87506103515625">
  <!-- Exported by Scratch - http://scratch.mit.edu/ -->
  <path id="path3283" fill="#ff2a2a" stroke="none" d="M 43.525 822.5 C 43.143 822.5 42.771 822.523 42.431 822.531 C 42.092 822.54 41.803 822.545 41.556 822.563 C 40.684 822.596 39.918 822.777 39.275 823.094 C 38.632 823.411 38.2 824 37.994 824.844 C 37.966 824.974 37.947 825.141 37.931 825.344 C 37.915 825.546 37.9 825.748 37.9 825.969 C 37.9 826.123 37.922 826.266 37.931 826.406 C 37.94 826.547 37.945 826.664 37.963 826.781 C 38.042 827.217 38.186 827.608 38.4 827.906 C 38.614 828.204 38.859 828.459 39.119 828.688 C 39.2 828.759 39.281 828.84 39.369 828.906 C 39.457 828.973 39.56 829.023 39.65 829.094 C 39.124 829.209 38.674 829.437 38.306 829.75 C 37.938 830.063 37.659 830.422 37.494 830.844 C 37.376 831.146 37.281 831.483 37.213 831.844 C 37.144 832.204 37.097 832.55 37.088 832.906 L 37.088 833.125 C 37.087 833.471 37.136 833.808 37.181 834.156 C 37.226 834.505 37.279 834.824 37.369 835.125 C 37.6 835.849 38.012 836.375 38.619 836.688 C 39.226 837 39.945 837.183 40.744 837.25 C 41.071 837.286 41.445 837.326 41.869 837.344 C 42.293 837.362 42.732 837.375 43.213 837.375 C 43.698 837.374 44.167 837.336 44.619 837.313 C 45.071 837.289 45.46 837.287 45.775 837.25 C 46.443 837.168 46.966 837.045 47.306 836.906 C 47.646 836.768 47.887 836.619 48.088 836.438 L 48.869 837.063 L 51.713 837.094 L 49.588 835.25 C 49.882 834.82 50.076 834.363 50.15 833.875 C 50.224 833.387 50.255 832.903 50.244 832.438 L 50.244 831 L 48.306 831 L 48.306 832.375 C 48.296 832.789 48.272 833.11 48.213 833.344 C 48.153 833.578 48.062 833.776 47.963 833.938 C 47.626 833.664 47.157 833.273 46.556 832.781 C 45.956 832.29 45.353 831.803 44.713 831.281 C 44.072 830.76 43.513 830.301 43.056 829.938 C 43.446 829.876 43.981 829.783 44.65 829.656 C 45.319 829.53 45.889 829.419 46.369 829.313 C 46.842 829.205 47.265 829.039 47.619 828.813 C 47.972 828.586 48.224 828.288 48.4 827.938 C 48.551 827.674 48.671 827.393 48.744 827.063 C 48.816 826.732 48.853 826.42 48.869 826.156 L 48.869 825.875 C 48.871 825.587 48.853 825.286 48.806 825 C 48.759 824.714 48.68 824.436 48.556 824.156 C 48.364 823.725 48.03 823.381 47.588 823.125 C 47.145 822.869 46.566 822.683 45.806 822.594 C 45.52 822.559 45.178 822.544 44.775 822.531 C 44.371 822.519 43.955 822.499 43.525 822.5 Z M 42.65 824.219 C 42.923 824.21 43.214 824.219 43.525 824.219 C 43.837 824.219 44.115 824.21 44.4 824.219 C 44.685 824.228 44.933 824.232 45.119 824.25 C 45.63 824.318 46.027 824.45 46.306 824.625 C 46.586 824.801 46.767 824.989 46.838 825.219 C 46.873 825.335 46.887 825.475 46.9 825.594 C 46.913 825.713 46.901 825.812 46.9 825.938 C 46.9 826.175 46.905 826.433 46.869 826.688 C 46.826 826.993 46.692 827.262 46.463 827.469 C 46.233 827.676 45.879 827.83 45.431 827.938 C 44.934 828.054 44.291 828.174 43.494 828.313 C 42.697 828.451 42.098 828.563 41.681 828.625 C 41.503 828.475 41.348 828.331 41.213 828.219 C 41.077 828.107 40.953 828.012 40.838 827.906 C 40.65 827.752 40.469 827.554 40.306 827.344 C 40.144 827.133 40.046 826.909 39.994 826.656 C 39.984 826.583 39.97 826.507 39.963 826.406 C 39.955 826.306 39.963 826.172 39.963 826.063 C 39.963 825.887 39.948 825.744 39.963 825.594 C 39.977 825.443 40.006 825.326 40.025 825.25 C 40.113 824.982 40.297 824.754 40.588 824.594 C 40.878 824.433 41.335 824.321 41.963 824.25 C 42.138 824.232 42.377 824.228 42.65 824.219 Z M 41.088 830.406 L 46.681 835.063 C 46.477 835.227 46.229 835.347 45.963 835.406 C 45.695 835.465 45.439 835.502 45.181 835.531 C 44.924 835.567 44.642 835.612 44.306 835.625 C 43.971 835.638 43.6 835.626 43.244 835.625 C 42.889 835.625 42.567 835.641 42.244 835.625 C 41.92 835.609 41.647 835.559 41.4 835.531 C 40.861 835.485 40.386 835.38 39.994 835.188 C 39.601 834.995 39.333 834.683 39.181 834.25 C 39.117 834.04 39.064 833.816 39.025 833.563 C 38.986 833.309 38.964 833.037 38.963 832.781 L 38.963 832.531 C 38.98 832.355 39.007 832.169 39.056 831.969 C 39.105 831.768 39.186 831.604 39.275 831.438 C 39.366 831.284 39.478 831.148 39.619 831.031 C 39.759 830.914 39.907 830.8 40.088 830.719 C 40.232 830.648 40.389 830.58 40.556 830.531 C 40.723 830.482 40.907 830.442 41.088 830.406 Z " stroke-width="1"/>
</svg>